<svg id="d8e89b4f-d3f5-4d98-9f4a-8f711d76b20f" data-name="Layer 1" xmlns="http://www.w3.org/2000/svg" viewBox="0 0 661.25 560.77"><defs><style>.\32 59c37a3-2b3d-4267-b7d8-828076950026{fill:#fff;}.\33 12f6368-4d9c-4dc9-8d6d-524a7fb22b9e,.\35 2f67b10-b22f-475e-a4cb-61859fb5bbd5{fill:none;stroke:#fff;stroke-linejoin:round;stroke-width:14.5px;}.\33 12f6368-4d9c-4dc9-8d6d-524a7fb22b9e{stroke-linecap:round;}.d34de60f-ac49-48f6-b6e0-77e26ad63111{fill:#fdcd00;}</style></defs><title>logo</title><path class="259c37a3-2b3d-4267-b7d8-828076950026" d="M365.75,161.05l48.67,56.71-13.57,57-31.6-34.07-3.5-79.62m-2.24-9.61c-2.85,2.82-.49,7.64-.31,11.82l.31,79.2c.15,3.43-7.23,5.55-4.89,8.07l31.6,34.07A14.5,14.5,0,0,0,415,278.1l13.57-57a14.55,14.55,0,0,0-3.1-12.81l-48.67-56.7c-4-4.69-9-6.83-14.74-4.56C360.16,147.79,363.51,151.44,363.51,151.44Z"/><path class="259c37a3-2b3d-4267-b7d8-828076950026" d="M281,160.58l-4.39,79.58-32,33.71-12.94-57.12L281,160.58m-10.19-10.31c-.25.24-.48.48-.71.74l-49.3,56.17A14.5,14.5,0,0,0,217.59,220l12.94,57.13a14.49,14.49,0,0,0,24.33,7.1l.33-.33,32-33.71c2.37-2.5-3.78-4.25-3.59-7.68l-.36-87.86c.34-6.18,5.14-8.29-.59-10.62-5.4-2.21-7.68,2.23-11.78,6.29Z"/><path class="259c37a3-2b3d-4267-b7d8-828076950026" d="M309.34,63.22a48.08,48.08,0,0,1,14.34-10.07v0l0,0s0,0,0,0v0c21,9.44,36.27,39.76,36.16,59.93l-.72,129.38-73-.4.72-129.39c.09-15.23,9-36.15,22.47-49.45m-10.2-10.31h0c-15.65,15.48-26.66,40-26.76,59.68L271.65,242a14.51,14.51,0,0,0,14.42,14.58l73,.4a14.51,14.51,0,0,0,14.58-14.42l.72-129.38c.14-25.35-17.46-60.47-44-72.89a14.6,14.6,0,0,0-13.59,0,62.87,62.87,0,0,0-17.72,12.59Z"/><path class="52f67b10-b22f-475e-a4cb-61859fb5bbd5" d="M311.83,96.9a11.57,11.57,0,1,0,11.63-11.49A11.57,11.57,0,0,0,311.83,96.9Z"/><line class="312f6368-4d9c-4dc9-8d6d-524a7fb22b9e" x1="322.72" y1="280.61" x2="322.23" y2="367.83"/><line class="312f6368-4d9c-4dc9-8d6d-524a7fb22b9e" x1="283.57" y1="280.39" x2="283.21" y2="345.54"/><line class="312f6368-4d9c-4dc9-8d6d-524a7fb22b9e" x1="361.32" y1="280.83" x2="360.97" y2="345.98"/><path class="259c37a3-2b3d-4267-b7d8-828076950026" d="M334.85,173.09q-1.61-4.91-8.75-5v17.2l1.92.46a41.82,41.82,0,0,1,8.29,2.53,12.53,12.53,0,0,1,4.3,3.76,12,12,0,0,1,2.38,7.44,13.76,13.76,0,0,1-2.23,7.56,13.52,13.52,0,0,1-5.91,5.18,35.21,35.21,0,0,1-8.75,2.61v6.53c0,1.32-.71,2-2.14,2s-2.15-.67-2.15-2v-6.53a30.14,30.14,0,0,1-9.6-2,14.53,14.53,0,0,1-6.17-4.72,11.14,11.14,0,0,1-2.27-6.76,7.83,7.83,0,0,1,1.54-5.06,4.94,4.94,0,0,1,4.06-1.92,3.91,3.91,0,0,1,2.84,1.11,3.76,3.76,0,0,1,1.16,2.81c0,2.2-1.34,3.37-4,3.53a7.58,7.58,0,0,0,3.73,5.75,16.31,16.31,0,0,0,8.71,2.23V190.44l-1.15-.31a67.56,67.56,0,0,1-8.45-2.69,9.94,9.94,0,0,1-4.29-3.45,11,11,0,0,1-1.77-6.45,13.42,13.42,0,0,1,2.23-7.44,12.92,12.92,0,0,1,5.75-5,32.84,32.84,0,0,1,7.68-2.07V156.9c0-1.54.71-2.3,2.15-2.3s2.14.76,2.14,2.3V163q6.91.77,11,3.84a9.14,9.14,0,0,1,4.07,7.52,4.77,4.77,0,0,1-1.23,3.34,4,4,0,0,1-3.07,1.34,3.69,3.69,0,0,1-2.61-1,3,3,0,0,1,.61-5Zm-13,11.28V168.1a11.2,11.2,0,0,0-7,2.46,7.31,7.31,0,0,0-2.73,5.83,6,6,0,0,0,1.84,4.72c1.23,1.1,3.4,2.06,6.53,2.88C320.68,184,321.14,184.17,321.81,184.37Zm4.29,7v18.42a11.73,11.73,0,0,0,7.79-2.77,8.52,8.52,0,0,0,3.11-6.75,7.36,7.36,0,0,0-2.22-5.76c-1.49-1.33-3.94-2.3-7.37-2.91C327.21,191.54,326.77,191.46,326.1,191.36Z"/><path class="259c37a3-2b3d-4267-b7d8-828076950026" d="M179.44,488.68H168.72l-1.84-12.27h-13L152,488.68h-9.76l10.82-67.61h15.55ZM155.2,467.24h10.24L160.32,433Z"/><path class="259c37a3-2b3d-4267-b7d8-828076950026" d="M215.86,437.78v8.79c0,10.81-5.22,16.71-15.84,16.71h-5v25.4H184.37V421.07H200C210.64,421.07,215.86,427,215.86,437.78Zm-20.87-7v22.89h5c3.38,0,5.21-1.55,5.21-6.38V437.1c0-4.83-1.83-6.37-5.21-6.37Z"/><path class="259c37a3-2b3d-4267-b7d8-828076950026" d="M253.92,488.68H243.19l-1.83-12.27h-13l-1.84,12.27h-9.75l10.82-67.61H243.1Zm-24.25-21.44h10.24L234.79,433Z"/><path class="259c37a3-2b3d-4267-b7d8-828076950026" d="M258.84,421.07h16.81c10.62,0,15.84,5.89,15.84,16.71V472c0,10.82-5.22,16.71-15.84,16.71H258.84Zm10.63,9.66V479h6c3.38,0,5.41-1.74,5.41-6.57V437.29c0-4.82-2-6.56-5.41-6.56Z"/><path class="259c37a3-2b3d-4267-b7d8-828076950026" d="M320.47,488.68c-.58-1.74-1-2.8-1-8.31V469.75c0-6.28-2.12-8.6-6.95-8.6h-3.67v27.53H298.25V421.07h16c11,0,15.74,5.12,15.74,15.55v5.31c0,7-2.22,11.49-6.95,13.72,5.31,2.22,7.05,7.34,7.05,14.39v10.43c0,3.28.09,5.7,1.16,8.21Zm-11.59-57.95v20.76H313c4,0,6.38-1.74,6.38-7.14v-6.67c0-4.83-1.65-6.95-5.41-6.95Z"/><path class="259c37a3-2b3d-4267-b7d8-828076950026" d="M337.08,421.07h10.63v67.61H337.08Z"/><path class="259c37a3-2b3d-4267-b7d8-828076950026" d="M364.9,439.71v49h-9.56V421.07h13.33l10.91,40.47V421.07h9.47v67.61H378.13Z"/><path class="d34de60f-ac49-48f6-b6e0-77e26ad63111" d="M431.06,488.68H420.34l-1.83-12.27h-13l-1.84,12.27h-9.75l10.82-67.61h15.55Zm-24.24-21.44h10.24L411.94,433Z"/><path class="d34de60f-ac49-48f6-b6e0-77e26ad63111" d="M467.48,437.78v8.79c0,10.81-5.22,16.71-15.84,16.71h-5v25.4H436V421.07h15.65C462.26,421.07,467.48,427,467.48,437.78Zm-20.86-7v22.89h5c3.38,0,5.22-1.55,5.22-6.38V437.1c0-4.83-1.84-6.37-5.22-6.37Z"/><path class="d34de60f-ac49-48f6-b6e0-77e26ad63111" d="M503.9,437.78v8.79c0,10.81-5.22,16.71-15.84,16.71h-5v25.4H472.41V421.07h15.65C498.68,421.07,503.9,427,503.9,437.78Zm-20.87-7v22.89h5c3.38,0,5.21-1.55,5.21-6.38V437.1c0-4.83-1.83-6.37-5.21-6.37Z"/></svg>