<svg xmlns="http://www.w3.org/2000/svg" xmlns:xlink="http://www.w3.org/1999/xlink" viewBox="0 0 661.25 521.87"><defs><style>.\39 dd34bef-d8d1-4527-9018-7c543562fdf7{fill:none;}.cc5edc19-9850-496d-a996-e191b62f82f2{isolation:isolate;}.bac7582a-720f-49fc-8137-848f4c09c4dd{fill:#472387;}.\34 690b288-d2ef-4d16-858c-32a3c7aa6fe9{clip-path:url(#5b41adb3-3bbb-4ef3-b5e7-61033930ec0e);}.f02b8e9d-3992-428d-bd6f-477c8b85c087{fill:#4e3956;}.f5c96fe5-f40b-4fe5-8c1b-31f553bc1e85{fill:#a783e2;}.\36 c0347a6-f85b-4cb0-b37f-4f35dae4ff6d{fill:#1a9aa1;}.\32 a141eb1-3e55-4283-bd5d-22eb85be2648,.\32 db54332-bd0a-437d-ab09-38d5946b5cf1,.\34 d2626d4-b00a-4c40-a814-ee6af0507ebf{fill:#231f20;mix-blend-mode:overlay;}.\34 d2626d4-b00a-4c40-a814-ee6af0507ebf{opacity:0.31;}.\31 4192fa1-3a1d-4ac8-a25a-01793aa1b08f{fill:#edc50f;}.e14b0f20-43d0-4f29-8901-fec606138f6b{fill:#fedbdc;}.dae557a5-fae6-4e57-bb5c-a4af3d12776b{fill:#fff;}.\34 6b22162-e522-4d82-a1ba-8edc1f89cc71{fill:#ffc381;}.c2d3ec8d-0054-44b2-a5ab-3488844e587d{fill:#fc828b;}.b85daeec-7cd3-4f97-81cc-61ccb8492553{fill:#f9b4b9;}.\32 db54332-bd0a-437d-ab09-38d5946b5cf1{opacity:0.12;}</style><clipPath id="5b41adb3-3bbb-4ef3-b5e7-61033930ec0e"><path id="087b378d-c820-4d5c-948b-2c0806919c7c" data-name="&lt;Clipping Path&gt;" class="9dd34bef-d8d1-4527-9018-7c543562fdf7" d="M399.18,521.32H660.82V359h0V.55H.43v427.9H175a134.78,134.78,0,0,1,95.3,39.48h0A182.29,182.29,0,0,0,399.18,521.32Z"/></clipPath></defs><title>Artboard 3 copy 2</title><g class="cc5edc19-9850-496d-a996-e191b62f82f2"><g id="50f61b14-21cb-46a7-bce6-8d4bccf1920c" data-name="Layer 1"><path id="03eef9b8-866e-4a60-a951-06d3ce8ca34e" data-name="&lt;Path&gt;" class="bac7582a-720f-49fc-8137-848f4c09c4dd" d="M399.18,521.32H660.82V359h0V.55H.43v427.9H175a134.78,134.78,0,0,1,95.3,39.48h0A182.29,182.29,0,0,0,399.18,521.32Z"/><g id="e67bfc9f-fc2c-40ef-b290-99aa247b1d1f" data-name="&lt;Clip Group&gt;"><g class="4690b288-d2ef-4d16-858c-32a3c7aa6fe9"><g id="74921e28-e0c5-42b3-ad60-19e89925e713" data-name="&lt;Group&gt;"><path id="289785ad-87ad-4155-aa3f-b27f89a2d789" data-name="&lt;Path&gt;" class="f02b8e9d-3992-428d-bd6f-477c8b85c087" d="M499.52,78.12S488.75,70,490.89,53.25s81-29.13,93,0c0,0,18,54.76-19.46,66.15Z"/><path id="283d4655-c9b3-41ff-a014-580b9bc82bd6" data-name="&lt;Path&gt;" class="f5c96fe5-f40b-4fe5-8c1b-31f553bc1e85" d="M334.21,83.43S328,72.32,322,68.85s-22.68-12.51-23.82-8.34,11,8.86,11,8.86-30.81.84-33.67,9.84c0,0,37,1.94,47.19,10.84Z"/><path id="15c719a6-5bd2-4c75-9936-f4c3a4c3e792" data-name="&lt;Path&gt;" class="6c0347a6-f85b-4cb0-b37f-4f35dae4ff6d" d="M394.18,144s83.19,8.89,99.92,7.51,36.3-7.95,44.75,6.17-2.45,32.19-22.11,39.49S405.19,200.72,390.68,187c-20.93-15.2-47-60.47-72-99.84l15-9.59Z"/><path id="ab76f05d-5cfd-44e4-a221-d6c5e0eee376" data-name="&lt;Path&gt;" class="4d2626d4-b00a-4c40-a814-ee6af0507ebf" d="M539.92,176.69a44.37,44.37,0,0,1-16.89,11C503.37,195,411.48,191.21,397,177.51c-20.25-14.7-45.28-57.51-69.56-95.94l-8.76,5.61c25.05,39.37,51.1,84.64,72,99.84,14.51,13.7,106.41,17.45,126.06,10.15C528,193,536.42,185.21,539.92,176.69Z"/><path id="7209f20a-9b16-4d1e-9ced-3f6eac0e8284" data-name="&lt;Path&gt;" class="14192fa1-3a1d-4ac8-a25a-01793aa1b08f" d="M450.9,338.15s-19.31,28.2-17.52,51.8,30.3,197.52,30.3,197.52L483,747.85l17.25,0S515.08,375.62,512.48,369,450.9,338.15,450.9,338.15Z"/><path id="3efa11ae-1f3f-407a-860a-09216efdfe95" data-name="&lt;Path&gt;" class="4d2626d4-b00a-4c40-a814-ee6af0507ebf" d="M512.48,369c-2.59-6.6-61.58-30.87-61.58-30.87s-16.38,24-17.54,46.22c13.31,9,27.75,22.29,36.22,39.84,15.34,31.78,20.89,254.84,22.25,323.65h8.42S515.08,375.62,512.48,369Z"/><path id="7dc3a268-56d8-46de-8d5f-754ff888f3b6" data-name="&lt;Path&gt;" class="14192fa1-3a1d-4ac8-a25a-01793aa1b08f" d="M552.87,349.64l16,20.72s2.93,25,0,47.38-20.62,163.94-20.62,163.94L563,752.77H544.3L499.07,580.7,477.44,353.63Z"/><path id="351166f9-d9e2-44cf-88a6-d2cbe0961a2a" data-name="&lt;Path&gt;" class="4d2626d4-b00a-4c40-a814-ee6af0507ebf" d="M568.86,370.36l-16-20.72-10.58.56,15.56,20.16s2.92,25,0,47.38-20.63,163.94-20.63,163.94L552,752.77h11L548.24,581.68s17.7-141.59,20.62-163.94S568.86,370.36,568.86,370.36Z"/><path id="ff1583a3-e682-4abc-be6c-6b2858891bab" data-name="&lt;Path&gt;" class="6c0347a6-f85b-4cb0-b37f-4f35dae4ff6d" d="M534.53,353.89l-4.08,16.31c-25.11-.82-61.29-5.34-92.65-22.08,0,0,48.81-102.55,40.27-113.26s-16.88-22.63-12.8-34.26,22.32-38.55,36.74-44.89c10.78-4.74,26.46.25,28.58,0s40.31,6.37,40.31,6.37,31.81,4.24,43.61,24.14-45.68,56.24-54.29,94.21,10.75,65.64,8.64,89.93c0,0-15.4,0-28.17,0Z"/><path id="26273da9-b719-48a5-b578-ca31fd218cbc" data-name="&lt;Path&gt;" class="e14b0f20-43d0-4f29-8901-fec606138f6b" d="M524.64,125.14c-.46,2.69,9.36,20.84-2.63,31.39-16,14-26.52,31.1-18.92,34.3,13.82,6.26,40.87-13.48,65.77-29,0,0-11.06-8.13-12.24-17.34s7.08-25.08,7.08-25.08Z"/><path id="a75f9f25-0571-4c3b-8a82-043e2b9c6aca" data-name="&lt;Path&gt;" class="2a141eb1-3e55-4283-bd5d-22eb85be2648" d="M511.51,174.11c4.5-9,31.16-23.94,45-31.22-.18-9.33,7.19-23.49,7.19-23.49l-39.06,5.74c-.46,2.69,9.36,20.84-2.63,31.39-16,14-26.52,31.1-18.92,34.3A14,14,0,0,0,508.5,192,33.89,33.89,0,0,1,511.51,174.11Z"/><path id="254324e3-9f86-4b06-a51e-a98226aa6c87" data-name="&lt;Path&gt;" class="e14b0f20-43d0-4f29-8901-fec606138f6b" d="M498,59.8c-1.75-1.27-8,71.42,14.92,80.79s50.07-18.5,51.5-21.19a48,48,0,0,0,4.48-14.56s14.93,4.11,13.21-13c-1.16-11.56-12-17.31-16.9-11.34l-4.89,6s3.85-25.1-12.78-26.87S511.26,69.44,498,59.8Z"/><path id="ec1c6997-d811-4018-8cd6-c7b039b74e81" data-name="&lt;Path&gt;" class="f02b8e9d-3992-428d-bd6f-477c8b85c087" d="M532.29,91.42A3.45,3.45,0,1,0,535.73,88,3.45,3.45,0,0,0,532.29,91.42Z"/><path id="6ab126a6-b534-4817-b864-caf35fbde8df" data-name="&lt;Path&gt;" class="dae557a5-fae6-4e57-bb5c-a4af3d12776b" d="M534.89,90.86a1.5,1.5,0,1,0,1.5-1.49A1.5,1.5,0,0,0,534.89,90.86Z"/><path id="8775ac4d-2e8e-4eea-809f-03b1ed863510" data-name="&lt;Path&gt;" class="f02b8e9d-3992-428d-bd6f-477c8b85c087" d="M500.32,92.42A3.45,3.45,0,1,0,503.77,89,3.46,3.46,0,0,0,500.32,92.42Z"/><circle id="a46afa0e-c3a2-481d-a03d-541aa438c2db" data-name="&lt;Ellipse&gt;" class="dae557a5-fae6-4e57-bb5c-a4af3d12776b" cx="504.43" cy="91.87" r="1.5"/><path id="671cfb33-7272-4004-a83c-9ca9b8827389" data-name="&lt;Path&gt;" class="46b22162-e522-4d82-a1ba-8edc1f89cc71" d="M546.33,81.8s-16.06-9.21-24.09,1.5c0,0,11.35-6.64,22.81,1.28Z"/><path id="60df1ace-c4f5-4357-b404-752c6707c3c2" data-name="&lt;Path&gt;" class="46b22162-e522-4d82-a1ba-8edc1f89cc71" d="M493.65,83.08s11.2-7.74,16.8,1.26a13.24,13.24,0,0,0-15.91,1.08Z"/><circle id="a34c225b-217d-437c-a63e-dacea061abe3" data-name="&lt;Ellipse&gt;" class="c2d3ec8d-0054-44b2-a5ab-3488844e587d" cx="536.84" cy="99.36" r="1.11"/><circle id="472637ee-df28-49c1-9ef2-e39e20b0e09d" data-name="&lt;Ellipse&gt;" class="c2d3ec8d-0054-44b2-a5ab-3488844e587d" cx="502.11" cy="100.47" r="1.11"/><circle id="c42d3896-d336-4579-afc7-fe3255c192eb" data-name="&lt;Ellipse&gt;" class="c2d3ec8d-0054-44b2-a5ab-3488844e587d" cx="536.84" cy="104.7" r="1.11"/><circle id="62c0d8d2-d67f-43c7-ba72-e7019fe63dd9" data-name="&lt;Ellipse&gt;" class="c2d3ec8d-0054-44b2-a5ab-3488844e587d" cx="541.51" cy="102.08" r="1.11"/><circle id="1c0cba94-6dc4-457b-82b3-3fd8c2f1ac93" data-name="&lt;Ellipse&gt;" class="c2d3ec8d-0054-44b2-a5ab-3488844e587d" cx="532.04" cy="102.08" r="1.11"/><path id="063c89e9-68d4-4354-b7a5-96a71ab5964f" data-name="&lt;Path&gt;" class="c2d3ec8d-0054-44b2-a5ab-3488844e587d" d="M501,104.9a1.11,1.11,0,1,0,1.11-1.1A1.11,1.11,0,0,0,501,104.9Z"/><circle id="fcaad266-ed86-4c31-8970-3c39a41d95ec" data-name="&lt;Ellipse&gt;" class="c2d3ec8d-0054-44b2-a5ab-3488844e587d" cx="506.78" cy="102.28" r="1.11"/><circle id="5f37a770-33fd-4dd1-93bc-9f672f148a18" data-name="&lt;Ellipse&gt;" class="c2d3ec8d-0054-44b2-a5ab-3488844e587d" cx="498.41" cy="102.28" r="1.11"/><path id="5acdc22f-c241-4d74-a4ae-09adaa48f6cc" data-name="&lt;Path&gt;" class="f02b8e9d-3992-428d-bd6f-477c8b85c087" d="M507.89,119.4,535.3,118S522.67,137.54,507.89,119.4Z"/><path id="06a685f1-5e4e-4f45-967e-90c55695e608" data-name="&lt;Path&gt;" class="c2d3ec8d-0054-44b2-a5ab-3488844e587d" d="M514.52,125.22c1.25-2.58,4.93-4.47,9.33-4.47a12.69,12.69,0,0,1,7.15,2C527.25,126.06,521.35,129.1,514.52,125.22Z"/><polygon id="63e7b517-c0ab-413f-be0b-47900b719b49" data-name="&lt;Path&gt;" class="b85daeec-7cd3-4f97-81cc-61ccb8492553" points="512.45 90.86 507.22 109.02 518.95 109.02 510.66 107.03 512.45 90.86"/><path id="83862ce5-42a9-4fb8-b9f7-0848cd0ad192" data-name="&lt;Path&gt;" class="4d2626d4-b00a-4c40-a814-ee6af0507ebf" d="M609,209.11,582.2,186.9s-82.62,61.68-82.68,93.38c0,19.8-22.13,19.21-38.69,16-6.56,15.84-13.42,31.09-17.93,40.92,20-1.78,65-4.39,76.05,7,6.87,7.1,1.3,16.74-6.33,24.84,6.35.62,12.36,1,17.83,1.17l4.08-16.31,6.16,16.47c12.77,0,28.17,0,28.17,0,2.11-24.29-17.25-52-8.64-89.93C566.16,254.27,595.29,228.88,609,209.11Z"/><path id="fb8f6b3c-424f-4fdc-8775-1deef8b82755" data-name="&lt;Path&gt;" class="f5c96fe5-f40b-4fe5-8c1b-31f553bc1e85" d="M419.3,311.32s-13.23-.44-19.53,3-23.32,13.48-20.22,16.74S393.37,326,393.37,326s-15.8,27.89-9.32,35.27c0,0,21.58-31.89,35-36.21Z"/><g id="c8957f85-2cb5-4b2c-a68c-672f37d48ffa" data-name="&lt;Group&gt;"><path id="409747f1-c52c-4775-b49a-3e357d774bdd" data-name="&lt;Path&gt;" class="6c0347a6-f85b-4cb0-b37f-4f35dae4ff6d" d="M505.44,290.45s52.58-69.29,60.33-84.93,12.42-36.6,29.53-36.53,27.34,19.47,23.29,40.89S561.85,311.1,541.86,316.67c-24.78,10.47-79.07,9.36-127.59,10.52l-.48-18.49Z"/><path id="52cd8dcf-7960-4d3e-b61c-96e7e561ad76" data-name="&lt;Path&gt;" class="2db54332-bd0a-437d-ab09-38d5946b5cf1" d="M612.81,178.24a46.37,46.37,0,0,1,.69,20.93c-4,21.43-56.74,101.23-76.74,106.8-24,10.12-75.52,9.42-122.77,10.41l.28,10.81c48.52-1.16,102.81-.05,127.59-10.52,20-5.57,72.68-85.37,76.73-106.79C620.92,197.56,618.51,185.93,612.81,178.24Z"/></g></g></g></g><g id="c31a6b9b-af21-4830-911e-75d4599e8ebf" data-name="&lt;Group&gt;"><g id="ef29e092-5e74-4fb8-a3ad-55e3063f5783" data-name="&lt;Group&gt;"><path class="dae557a5-fae6-4e57-bb5c-a4af3d12776b" d="M87.72,237.22a12.07,12.07,0,0,1-9.49,4.3c-4.92,0-8.6-1.92-14-7.52-10.16-.88-17.47-8.5-17.47-18.56,0-10.73,8.3-18.66,19.55-18.66s19.55,7.88,19.55,18.66a18.18,18.18,0,0,1-13.59,17.89c2.08,2.23,3.94,3.06,6.07,3.06a8.25,8.25,0,0,0,6.22-2.9Zm-21.36-9a12.76,12.76,0,0,0,0-25.51,12.76,12.76,0,1,0,0,25.51Z"/><path class="dae557a5-fae6-4e57-bb5c-a4af3d12776b" d="M119.25,205.9v27.69h-6.17v-3.53a11.32,11.32,0,0,1-8.92,3.89c-7.11,0-11.93-3.89-11.93-12.23V205.9h6.48v14.93c0,5,2.39,7.42,6.48,7.42,4.52,0,7.57-2.8,7.57-8.35v-14Z"/><path class="dae557a5-fae6-4e57-bb5c-a4af3d12776b" d="M153.67,221.82H132c.78,4,4.15,6.64,9,6.64a9.94,9.94,0,0,0,7.52-3l3.47,4c-2.49,3-6.38,4.51-11.15,4.51-9.28,0-15.29-6-15.29-14.2s6.07-14.16,14.31-14.16c8.09,0,14,5.65,14,14.31C153.78,220.42,153.73,221.2,153.67,221.82Zm-21.77-4.3h15.71a7.53,7.53,0,0,0-7.83-6.74A7.64,7.64,0,0,0,131.9,217.52Zm9-15.4h-5.6l7-7.11h7.62Z"/><path class="dae557a5-fae6-4e57-bb5c-a4af3d12776b" d="M201.43,195.12v38.47h-6.22V230A11.41,11.41,0,0,1,186,234c-8,0-14-5.6-14-14.2s6-14.16,14-14.16a11.34,11.34,0,0,1,8.92,3.73v-14.2Zm-6.38,24.63c0-5.29-3.58-8.66-8.24-8.66s-8.25,3.37-8.25,8.66,3.58,8.65,8.25,8.65S195.05,225,195.05,219.75Z"/><path class="dae557a5-fae6-4e57-bb5c-a4af3d12776b" d="M235.86,221.82H214.13c.78,4,4.15,6.64,9,6.64a9.94,9.94,0,0,0,7.52-3l3.47,4c-2.48,3-6.37,4.51-11.14,4.51-9.28,0-15.3-6-15.3-14.2s6.07-14.16,14.31-14.16c8.09,0,14,5.65,14,14.31C236,220.42,235.91,221.2,235.86,221.82Zm-21.78-4.3h15.71a7.53,7.53,0,0,0-7.83-6.74A7.64,7.64,0,0,0,214.08,217.52Z"/><path class="dae557a5-fae6-4e57-bb5c-a4af3d12776b" d="M239,230.84l2.49-4.92a18.7,18.7,0,0,0,9.64,2.74c4.1,0,5.81-1.14,5.81-3.06,0-5.28-17.11-.31-17.11-11.35,0-5.24,4.72-8.66,12.18-8.66,3.69,0,7.89.88,10.37,2.39l-2.48,4.92a15.23,15.23,0,0,0-7.94-2.07c-3.94,0-5.8,1.29-5.8,3.11,0,5.6,17.11.62,17.11,11.46,0,5.18-4.77,8.55-12.55,8.55C246.12,234,241.51,232.6,239,230.84Z"/><path class="dae557a5-fae6-4e57-bb5c-a4af3d12776b" d="M294.81,221.82H273.09c.77,4,4.14,6.64,9,6.64a9.91,9.91,0,0,0,7.51-3l3.48,4c-2.49,3-6.38,4.51-11.15,4.51-9.28,0-15.29-6-15.29-14.2s6.06-14.16,14.31-14.16c8.08,0,14,5.65,14,14.31C294.92,220.42,294.86,221.2,294.81,221.82ZM273,217.52h15.71a7.52,7.52,0,0,0-7.82-6.74A7.66,7.66,0,0,0,273,217.52Z"/><path class="dae557a5-fae6-4e57-bb5c-a4af3d12776b" d="M323.54,217.36v16.23h-6.12v-3.37c-1.56,2.38-4.56,3.73-8.71,3.73-6.33,0-10.32-3.47-10.32-8.29,0-4.62,3.11-8.25,11.51-8.25h7.16V217c0-3.79-2.29-6-6.9-6a13.71,13.71,0,0,0-8.4,2.75L299.22,209c2.95-2.28,7.26-3.42,11.72-3.42C318.92,205.59,323.54,209.38,323.54,217.36Zm-6.48,7.57v-3.21h-6.69c-4.41,0-5.6,1.66-5.6,3.68,0,2.33,2,3.83,5.29,3.83C313.22,229.23,316,227.78,317.06,224.93Z"/><path class="dae557a5-fae6-4e57-bb5c-a4af3d12776b" d="M328.67,230.84l2.49-4.92a18.7,18.7,0,0,0,9.64,2.74c4.1,0,5.81-1.14,5.81-3.06,0-5.28-17.11-.31-17.11-11.35,0-5.24,4.72-8.66,12.18-8.66,3.69,0,7.89.88,10.37,2.39l-2.48,4.92a15.23,15.23,0,0,0-7.94-2.07c-3.94,0-5.8,1.29-5.8,3.11,0,5.6,17.11.62,17.11,11.46,0,5.18-4.77,8.55-12.55,8.55C335.77,234,331.16,232.6,328.67,230.84Z"/></g><g id="b24003f6-1cdc-4fee-a5dd-64ad04c1b93e" data-name="&lt;Group&gt;"><path class="dae557a5-fae6-4e57-bb5c-a4af3d12776b" d="M78,277v15.87H71.49v-15c0-4.92-2.44-7.31-6.58-7.31-4.62,0-7.73,2.8-7.73,8.35v14H50.7V254.38h6.48v14c2.13-2.28,5.39-3.52,9.23-3.52C73.05,264.86,78,268.64,78,277Z"/><path class="dae557a5-fae6-4e57-bb5c-a4af3d12776b" d="M109.39,276.63v16.23h-6.11v-3.37c-1.56,2.38-4.57,3.73-8.71,3.73-6.33,0-10.32-3.47-10.32-8.3,0-4.61,3.11-8.24,11.51-8.24h7.15v-.41c0-3.79-2.28-6-6.89-6a13.71,13.71,0,0,0-8.4,2.75l-2.54-4.72c3-2.28,7.26-3.42,11.72-3.42C104.78,264.86,109.39,268.64,109.39,276.63Zm-6.48,7.57V281H96.22c-4.4,0-5.6,1.66-5.6,3.68,0,2.34,2,3.84,5.29,3.84S101.82,287.05,102.91,284.2Z"/><path class="dae557a5-fae6-4e57-bb5c-a4af3d12776b" d="M115.67,279c0-8.29,6.22-14.15,15-14.15,5.4,0,9.7,2.23,11.82,6.43l-5,2.9a7.85,7.85,0,0,0-6.9-3.84c-4.77,0-8.4,3.32-8.4,8.66s3.63,8.66,8.4,8.66a7.84,7.84,0,0,0,6.9-3.83l5,2.9c-2.12,4.15-6.42,6.48-11.82,6.48C121.89,293.22,115.67,287.31,115.67,279Z"/><path class="dae557a5-fae6-4e57-bb5c-a4af3d12776b" d="M173.58,281.09H151.86c.78,4,4.15,6.63,9,6.63a9.93,9.93,0,0,0,7.52-3l3.47,4c-2.49,3-6.38,4.51-11.15,4.51-9.28,0-15.29-6-15.29-14.21s6.06-14.15,14.31-14.15c8.09,0,14,5.65,14,14.31C173.69,279.69,173.64,280.47,173.58,281.09Zm-21.77-4.31h15.71a7.54,7.54,0,0,0-7.83-6.74A7.65,7.65,0,0,0,151.81,276.78Z"/><path class="dae557a5-fae6-4e57-bb5c-a4af3d12776b" d="M195.93,264.86V271a7.67,7.67,0,0,0-1.5-.16c-4.93,0-8,2.91-8,8.56v13.43h-6.48V265.17h6.17v4C188,266.31,191.32,264.86,195.93,264.86Z"/><path class="dae557a5-fae6-4e57-bb5c-a4af3d12776b" d="M218.12,266.52c0-2.91-2.48-4.88-6.48-4.88a9.8,9.8,0,0,0-8.45,4l-5-3.27c2.91-3.94,7.57-6.33,14.05-6.33,7.63,0,12.71,3.48,12.71,9.44,0,8.45-8.87,9.23-8.87,15.35h-6.58C209.47,273.15,218.12,271.7,218.12,266.52Zm-9.48,22.66a4.12,4.12,0,1,1,4.14,4A4,4,0,0,1,208.64,289.18Z"/></g></g></g></g></svg>