<svg id="3c946ab8-4a44-4936-aa1c-540d9c7bb573" data-name="Layer 1" xmlns="http://www.w3.org/2000/svg" xmlns:xlink="http://www.w3.org/1999/xlink" viewBox="0 0 661.25 560.77"><defs><style>.\36 4074e7f-1c53-4f66-a9b9-cb76205d2f0f{fill:#e3dfea;}.\37 04c70cc-3cca-4674-b543-ae617c7717db{fill:url(#7e99403e-8885-4894-8e96-c812a6414218);}.\36 e0c5407-807d-456e-a554-0b194ff857d2{fill:url(#1133bc94-88bc-4f4d-a852-1c03cc144e8e);}.d98748a6-2dde-44c5-916b-b1d43da54cc9{fill:url(#fc9e232d-bb2c-4262-aa14-b73fbc9fda76);}.\33 fc9f7b4-6797-4c31-89c1-6f19be5acf1d{fill:url(#47efc276-fc28-4307-b170-fc8b9e86aef4);}.\37 952113c-abcb-4fc5-956b-ac30d5291525{fill:url(#a8be3910-70a8-457e-a6cd-a7edab5f2c2c);}.\32 800d5e0-2e6d-42e6-96ee-fa10bce979a0{fill:url(#f4fb6623-a173-4b3e-a7bb-fe4d09173a5b);}.\31 f9687e7-fe16-4955-8e25-0f8d065b233f{fill:#ff9d4d;}.\31 12b445a-27a7-4501-971a-263399349469{fill:#ffe840;}.bbea4a51-7f76-4788-86b8-41facd4ad12a{fill:#ffd071;}.\34 ff8c305-7644-4274-9c23-579d2facb8a8{fill:#d1975d;}.\38 58bb652-5145-4704-9491-33b029f0f2e1{fill:#ffd0a6;}.\35 124b141-429a-48f6-b685-7d02ba7d8d07{fill:url(#a7d5ea8c-76f1-4bb9-9a25-1e1688667527);}.\32 fc401fe-9611-42c2-b5e5-a0e8e7adb04e{fill:#281a10;}.ba382069-df68-4a19-923c-8f8847107862{fill:url(#92903e73-8b72-449b-83a7-75abdb8cd1eb);}.\38 c7ea3ea-5f7c-406a-81ca-1bd4d27c192b{fill:url(#973ed9e0-2b6e-4265-b820-ffb171feb16a);}.\34 235e523-fa9c-404f-af21-1771a6c04148{fill:url(#10e27262-f1bf-4166-8fe8-13d144ce8bab);}.d445dea5-6f32-4e72-bd67-addc8b4b9040{fill:url(#1b09e045-c602-4126-a182-4f5795c260f6);}.\30 03b5739-b00b-472d-b45c-ce32f7514665{fill:#89603e;}.ccebaa7a-977c-46cf-8087-76e1943d92e8{fill:url(#b8ab543b-806e-4b84-be10-2df1eee4904b);}</style><linearGradient id="7e99403e-8885-4894-8e96-c812a6414218" x1="176.78" y1="-857.92" x2="518.37" y2="-857.92" gradientTransform="matrix(1, -0.58, 0, 1, 0, 1352.48)" gradientUnits="userSpaceOnUse"><stop offset="0" stop-color="#2e256b"/><stop offset="1" stop-color="#5a3087"/></linearGradient><linearGradient id="1133bc94-88bc-4f4d-a852-1c03cc144e8e" x1="155.87" y1="287.86" x2="518.37" y2="287.86" gradientUnits="userSpaceOnUse"><stop offset="0" stop-color="#6a5ebf"/><stop offset="1" stop-color="#6e3aa5"/></linearGradient><linearGradient id="fc9e232d-bb2c-4262-aa14-b73fbc9fda76" x1="414.39" y1="145.35" x2="541.67" y2="145.35" gradientTransform="matrix(1, 0, 0, 1, 0, 0)" xlink:href="#7e99403e-8885-4894-8e96-c812a6414218"/><linearGradient id="47efc276-fc28-4307-b170-fc8b9e86aef4" x1="399.13" y1="107.6" x2="541.7" y2="107.6" xlink:href="#1133bc94-88bc-4f4d-a852-1c03cc144e8e"/><linearGradient id="a8be3910-70a8-457e-a6cd-a7edab5f2c2c" x1="399.13" y1="156.18" x2="414.39" y2="156.18" xlink:href="#1133bc94-88bc-4f4d-a852-1c03cc144e8e"/><linearGradient id="f4fb6623-a173-4b3e-a7bb-fe4d09173a5b" x1="502.64" y1="163.84" x2="518.33" y2="163.84" gradientTransform="matrix(1, 0, 0, 1, 0, 0)" xlink:href="#7e99403e-8885-4894-8e96-c812a6414218"/><linearGradient id="a7d5ea8c-76f1-4bb9-9a25-1e1688667527" x1="173.69" y1="278.99" x2="250.13" y2="278.99" gradientTransform="matrix(1, 0, 0, 1, 0, 0)" xlink:href="#7e99403e-8885-4894-8e96-c812a6414218"/><linearGradient id="92903e73-8b72-449b-83a7-75abdb8cd1eb" x1="251.67" y1="628.79" x2="295.89" y2="628.79" gradientTransform="translate(39.23 -341.19) rotate(8.81)" xlink:href="#7e99403e-8885-4894-8e96-c812a6414218"/><linearGradient id="973ed9e0-2b6e-4265-b820-ffb171feb16a" x1="250.21" y1="628" x2="287.99" y2="628" gradientTransform="translate(39.23 -341.19) rotate(8.81)" xlink:href="#1133bc94-88bc-4f4d-a852-1c03cc144e8e"/><linearGradient id="10e27262-f1bf-4166-8fe8-13d144ce8bab" x1="176.07" y1="205.71" x2="276.5" y2="205.71" gradientTransform="matrix(1, 0, 0, 1, 0, 0)" xlink:href="#7e99403e-8885-4894-8e96-c812a6414218"/><linearGradient id="1b09e045-c602-4126-a182-4f5795c260f6" x1="252.46" y1="209.68" x2="341.47" y2="209.68" xlink:href="#1133bc94-88bc-4f4d-a852-1c03cc144e8e"/><linearGradient id="b8ab543b-806e-4b84-be10-2df1eee4904b" x1="236.32" y1="138.99" x2="259.44" y2="138.99" xlink:href="#1133bc94-88bc-4f4d-a852-1c03cc144e8e"/></defs><title>menuapadrina</title><ellipse class="64074e7f-1c53-4f66-a9b9-cb76205d2f0f" cx="305.67" cy="398.06" rx="125.7" ry="72.57"/><g id="3658588f-d7f6-4047-bbdc-14148932ed21" data-name="person_4"><polygon class="64074e7f-1c53-4f66-a9b9-cb76205d2f0f" points="192.46 460.09 171.34 472.28 264.32 325.62 319.21 348.82 398.52 223.73 420.92 233.19 491.82 121.35 512.93 109.16 420.92 254.31 398.52 244.84 319.21 369.93 264.32 346.73 192.46 460.09"/><polygon class="704c70cc-3cca-4674-b543-ae617c7717db" points="197.89 463.24 176.78 475.43 269.76 328.77 324.65 351.97 403.96 226.88 426.35 236.35 497.26 124.5 518.37 112.31 426.35 257.46 403.96 247.99 324.65 373.08 269.76 349.88 197.89 463.24"/><polygon class="6e0c5407-807d-456e-a554-0b194ff857d2" points="497.46 100.28 518.37 112.31 497.26 124.5 426.35 236.35 403.96 226.88 324.65 351.97 269.76 328.77 176.78 475.43 155.87 463.4 248.85 316.74 303.74 339.94 383.05 214.85 405.44 224.32 476.35 112.47 497.46 100.28"/><polygon class="d98748a6-2dde-44c5-916b-b1d43da54cc9" points="414.39 148.48 414.39 172.35 518.32 112.19 518.32 215.71 541.67 202.39 541.67 104.91 541.67 75.11 541.67 75 414.39 148.48"/><polygon class="3fc9f7b4-6797-4c31-89c1-6f19be5acf1d" points="414.42 148.5 399.13 140.06 526.41 66.69 541.7 75.14 414.42 148.5"/><polygon class="7952113c-abcb-4fc5-956b-ac30d5291525" points="414.39 172.3 399.13 163.88 399.13 140.06 414.39 148.49 414.39 172.3"/><polygon class="2800d5e0-2e6d-42e6-96ee-fa10bce979a0" points="518.33 215.29 502.64 206.69 502.64 136.74 518.33 112.38 518.33 215.29"/><path class="1f9687e7-fe16-4955-8e25-0f8d065b233f" d="M371.54,180.61l2.31-3.33-11.77-6.69-.66-.38h0c-10.35-5.65-25.43-4.27-42.23,5.43-31.21,18-56.51,57.92-56.51,89.13,0,13.1,4.46,22.59,11.94,27.85h0a24.84,24.84,0,0,0,3.53,2.06l10.22,6,2.26-3.26c8.38.08,18.14-2.73,28.56-8.75,31.21-18,56.52-57.93,56.52-89.14C375.7,192,374.22,185.64,371.54,180.61Z"/><path class="112b445a-27a7-4501-971a-263399349469" d="M347.4,167.79A28,28,0,0,1,361,171l0,0,.62.35,10.9,6.2-1.75,2.51-.31.46.26.48c2.69,5.05,4.05,11.27,4.05,18.49,0,30.87-25.15,70.51-56.06,88.35-9.78,5.65-19.38,8.63-27.76,8.63h-.83l-.27.39-1.78,2.57-9.49-5.55,0,0,0,0a23.34,23.34,0,0,1-3.39-2l-.05,0c-6.28-4.44-10.16-11.86-11.21-21.47,0-.35-.08-.71-.11-1.08-.13-1.45-.19-3-.19-4.53a63.9,63.9,0,0,1,.56-8.25c0-.31.08-.63.13-.95A82.11,82.11,0,0,1,266.85,244c.09-.28.17-.57.27-.88a104.13,104.13,0,0,1,4-10.76c.12-.27.24-.55.37-.82,1.5-3.4,3.22-6.81,5.1-10.14.15-.26.29-.52.45-.78,1.86-3.25,3.9-6.48,6.07-9.59l.52-.74c2.19-3.11,4.55-6.16,7-9.05.19-.24.39-.47.59-.7,2.54-3,5.22-5.82,8-8.48l.67-.65a113.71,113.71,0,0,1,9.1-7.83l.78-.59a97.18,97.18,0,0,1,9.9-6.59l.66-.37q.45-.27.9-.51A69.66,69.66,0,0,1,334,170h0l.13,0c.4-.13.79-.24,1.18-.35a44.17,44.17,0,0,1,12.11-1.82Zm0-.91A45,45,0,0,0,335,168.74l-1.19.35h0a70.82,70.82,0,0,0-13.08,5.65l-.92.52-.67.38a95.7,95.7,0,0,0-10,6.65l-.78.59a116.93,116.93,0,0,0-9.17,7.89l-.68.66c-2.79,2.7-5.48,5.56-8,8.54l-.6.7c-2.48,2.94-4.83,6-7,9.12l-.53.75c-2.19,3.14-4.23,6.37-6.11,9.65l-.45.79q-2.85,5-5.14,10.21c-.13.28-.25.55-.37.83a105.42,105.42,0,0,0-4,10.85l-.27.9a83.21,83.21,0,0,0-2.61,11.67c0,.33-.09.65-.13,1a64.89,64.89,0,0,0-.57,8.36c0,1.59.07,3.13.2,4.61,0,.37.07.74.11,1.11,1.11,10.17,5.29,17.67,11.63,22.13h0a25.83,25.83,0,0,0,3.53,2.06l10.22,6,2.26-3.26H291c8.3,0,17.94-2.82,28.21-8.75,31.21-18,56.52-57.93,56.52-89.14,0-7.54-1.48-13.88-4.16-18.91l2.31-3.33-11.77-6.69-.66-.38h0a29,29,0,0,0-14-3.33Z"/><ellipse class="bbea4a51-7f76-4788-86b8-41facd4ad12a" cx="330.64" cy="238.76" rx="75.13" ry="42.51" transform="translate(-58.92 359.48) rotate(-53.05)"/><ellipse class="112b445a-27a7-4501-971a-263399349469" cx="330.64" cy="238.76" rx="75.13" ry="42.51" transform="translate(-58.92 359.48) rotate(-53.05)"/><path class="1f9687e7-fe16-4955-8e25-0f8d065b233f" d="M332.09,288.13c-13.19,7.62-25.59,9.64-34.91,5.7s-14.46-13.38-14.46-26.56,5.13-28.56,14.46-43.27,21.72-27,34.91-34.62,25.59-9.63,34.91-5.69,14.47,13.37,14.47,26.56-5.14,28.56-14.47,43.27S345.28,280.52,332.09,288.13Zm0-96C306.37,207,285.43,240,285.43,265.7s20.94,34.57,46.66,19.72,46.66-47.87,46.66-73.6S357.82,177.25,332.09,192.1Z"/><path class="4ff8c305-7644-4274-9c23-579d2facb8a8" d="M339,230.41v7.53l-.48.25-4.13,2.39v-7l2.33-1.35A10.23,10.23,0,0,0,339,230.41Z"/><path class="4ff8c305-7644-4274-9c23-579d2facb8a8" d="M338.07,250.52c.32-.19.63-.39.93-.61v15.33l-4.61,2.66V252.64Z"/><path class="1f9687e7-fe16-4955-8e25-0f8d065b233f" d="M350.56,231.54q-2.3-1.68-6.23-.57a23.4,23.4,0,0,0,4.9-7.19,18.44,18.44,0,0,0,1.68-7.25,9.33,9.33,0,0,0-.74-3.8,5.57,5.57,0,0,0-2.1-2.53,5.47,5.47,0,0,0-3.29-.78,9.7,9.7,0,0,0-4.32,1.46l-1.46.84v-7.43L334.39,207v7.42l-5.6,3.24v-7.43l-4.61,2.67v7.42L315.94,225v45.8l8.24-4.75v7.71l4.61-2.66v-7.71l9.28-5.36c.32-.18.63-.37.93-.56a37.85,37.85,0,0,0,4.78-3.51,33.34,33.34,0,0,0,4.71-5,23.82,23.82,0,0,0,3.2-5.52,15.32,15.32,0,0,0,1.16-5.77C352.85,234.72,352.08,232.66,350.56,231.54Zm-9.87-11.63c1,.48,1.45,1.6,1.45,3.36a9.46,9.46,0,0,1-1.58,5.17,12.42,12.42,0,0,1-1.56,2,10.23,10.23,0,0,1-2.28,1.79l-7.93,4.58h0l-3.94,2.28V227.51l12.26-7.08a5.63,5.63,0,0,1,1.89-.73A2.8,2.8,0,0,1,340.69,219.91Zm2.74,23.9a12,12,0,0,1-1.23,2.61,12.35,12.35,0,0,1-1.84,2.32,9.91,9.91,0,0,1-1.36,1.17c-.3.22-.61.42-.93.61l-13.22,7.63V246.09l3.94-2.27h0l9.73-5.63.48-.25a4.58,4.58,0,0,1,1.65-.49,2.79,2.79,0,0,1,1.68.35,3,3,0,0,1,1.13,1.32,4.87,4.87,0,0,1,.42,2.11A8.16,8.16,0,0,1,343.43,243.81Z"/><path class="112b445a-27a7-4501-971a-263399349469" d="M336.28,183.7l-.46.78-16-9.22.92-.52Z"/><path class="112b445a-27a7-4501-971a-263399349469" d="M322.16,189.78l-.45.78-13.3-7.68.78-.59Z"/><path class="112b445a-27a7-4501-971a-263399349469" d="M312.33,198.33l-.45.79-13.32-7.69.68-.66Z"/><path class="112b445a-27a7-4501-971a-263399349469" d="M302.5,206.89l-.45.78-12.12-7,.6-.7Z"/><path class="112b445a-27a7-4501-971a-263399349469" d="M297,217.91l-.45.79-14.14-8.16.53-.75Z"/><path class="112b445a-27a7-4501-971a-263399349469" d="M293.38,230.15l-.45.79L275.8,221l.45-.79Z"/><path class="112b445a-27a7-4501-971a-263399349469" d="M286.41,240.28l-.45.79-15.67-9c.12-.28.24-.55.37-.83Z"/><path class="112b445a-27a7-4501-971a-263399349469" d="M283.76,253l-.45.79-17.33-10,.27-.9Z"/><path class="112b445a-27a7-4501-971a-263399349469" d="M279.28,264.63l-.45.78-15.59-9c0-.32.09-.64.13-1Z"/><path class="112b445a-27a7-4501-971a-263399349469" d="M280,279.24l-.45.79L263,270.49c0-.37-.08-.74-.11-1.11Z"/><path class="112b445a-27a7-4501-971a-263399349469" d="M349.85,177.28l-.45.79-15.55-9,1.19-.35Z"/><path class="858bb652-5145-4704-9491-33b029f0f2e1" d="M296.89,275l-.21-.29a2.33,2.33,0,0,0-2.52-.87h0a.63.63,0,0,0-.38.9l1.1,2a.6.6,0,0,0,.2.22l3.91,2.7a.63.63,0,0,0,.82-.09l1.11-1.23a.62.62,0,0,0-.14-.95l-3.71-2.26A.55.55,0,0,1,296.89,275Z"/><path class="858bb652-5145-4704-9491-33b029f0f2e1" d="M335.74,217.44l1.14-3.3,3.33-9.64,4.79,4.58,2,8.6a5.32,5.32,0,0,1-2.19,5.61l-5.31,2.54Z"/><path class="5124b141-429a-48f6-b685-7d02ba7d8d07" d="M182.85,231.92l62.28,44.82a12,12,0,0,1,.22,19.35l-39.75,30-11.71-9.44s24.47-24.83,22.93-25.81c-.87-.55-19.22-14.22-35.08-26a20,20,0,0,1,1.11-32.86Z"/><path class="2fc401fe-9611-42c2-b5e5-a0e8e7adb04e" d="M212.64,325.55l-3.42,3.65a5,5,0,0,0,0,6.83l4.6,4.85a5.78,5.78,0,0,1,1.44,5.23h0a5.76,5.76,0,0,1-8.76,3.57L204,348a35.23,35.23,0,0,1-11.59-12.4l-7.75-13.89a7.68,7.68,0,0,1,5.11-11.25l16.12-3.43Z"/><path class="ba382069-df68-4a19-923c-8f8847107862" d="M246.27,254.7l-16.84,79.67-24.71,63.91-23.83-10.46h0a247,247,0,0,1,7.88-31.09A244.2,244.2,0,0,1,200.68,327l5.48-82.52.06-1Z"/><path class="8c7ea3ea-5f7c-406a-81ca-1bd4d27c192b" d="M238.46,253.49l-16.85,79.67-24,62-16.74-7.35h0a247,247,0,0,1,7.88-31.09A244.2,244.2,0,0,1,200.68,327l1.15-83.73Z"/><path class="4235e523-fa9c-404f-af21-1771a6c04148" d="M260,152c13.81,7.6,19.67,25.81,14.79,40.8-8.28,25.41-18.71,65.08-30.63,88.12a7.75,7.75,0,0,1-8.91,4l-12.66-3.43c-18.63-5-25.23-19.11-40.23-31.26h0a17,17,0,0,1-4.95-19.87l21.93-40.87,9.2-50.35a18.63,18.63,0,0,1,28-9.65Z"/><path class="d445dea5-6f32-4e72-bd67-addc8b4b9040" d="M278.36,181.37l10.33,51.92-17.88-8.18,64.6-9.23a5.2,5.2,0,0,1,5.69,3.55l.09.28a5.79,5.79,0,0,1-3.56,7.24l-55,19.67h0a11.58,11.58,0,0,1-17.62-7.1l-.25-1.08L252.8,186.87a13.07,13.07,0,0,1,10-15.73h0A13.07,13.07,0,0,1,278.36,181.37Z"/><path class="858bb652-5145-4704-9491-33b029f0f2e1" d="M237.78,131.26l6.37-7.23,0-16.1a23,23,0,0,1,10.1-23.79h0a23.15,23.15,0,0,1,24.39-.39l9.08,5.43a7.86,7.86,0,0,1,2.6,11l-.06.1a15.54,15.54,0,0,0-2.12,5.23l-1.76,8.66h0a18.81,18.81,0,0,1-2.61,9.1l-1.9,3.22a11.43,11.43,0,0,1-16,2.28h0l-9.22,20.88Z"/><path class="003b5739-b00b-472d-b45c-ce32f7514665" d="M288.39,104.41l-8.8,3.42a26.58,26.58,0,0,0-3.51,8.86c-.93,5-12.33,8.1-12.33,8.1l-7.65,5a5.79,5.79,0,0,1-5.46.44l-6-2.64A9.4,9.4,0,0,1,239,119.3a48.48,48.48,0,0,1,.22-8.81c.38-1.82.06-5.89-.33-9.4a20.16,20.16,0,0,1,3-13.12A21.76,21.76,0,0,1,247,82c4.79-3.31,7.08-7.75,16.33-6.8s23.11,5,25.91,8.23,1.86,4.27,3.34,10.38S288.39,104.41,288.39,104.41Z"/><polygon class="ccebaa7a-977c-46cf-8087-76e1943d92e8" points="236.32 130.36 241.19 127.39 259.44 143.36 257.57 150.6 236.32 130.36"/><path class="858bb652-5145-4704-9491-33b029f0f2e1" d="M274.19,121l-1.05-3.79a3.28,3.28,0,0,0-4-2h0a2,2,0,0,0-1.56,1.92l0,9.17,7.1-.5Z"/><path class="2fc401fe-9611-42c2-b5e5-a0e8e7adb04e" d="M207.7,390.58l-3,7.7s0,0,0,0c-2.37,2.62-4.71,5.59-1.2,5.16l4.58,3.83a5.77,5.77,0,0,1,1.44,5.23h0c-.88,3.91-3.6,4.12-3.6,4.12l-8.13,2.7a5.53,5.53,0,0,1-5.14-.92,35.29,35.29,0,0,1-9.07-10.6l-7.75-13.89A7.67,7.67,0,0,1,181,382.66l2.68-6.62Z"/></g></svg>