<svg id="7d2b7f87-a61d-4a25-8263-5b2ac1d78d13" data-name="Layer 1" xmlns="http://www.w3.org/2000/svg" viewBox="0 0 495.13 511.04"><defs><style>.def1a966-47af-4184-97d5-463ab372a327{fill:#ebebeb;}.\34 e4fd6b0-f596-4fa5-a30a-2ec5f0de4452{fill:#f5f5f5;}.c939c8e8-df5d-495b-a31f-8ed014e27602{fill:#f0f0f0;}.\36 f4ab648-16bd-4f1b-ad03-1e6a6f458a86{fill:#fafafa;}.\30 a69301d-49da-4ea5-ad92-87e750b6ca69{fill:#407bff;}.\37 f4b6655-6fdd-4dcd-99d0-eca4d26662f9,.a9d9c167-f5d5-485c-a11a-a3e5b8fadbcb,.d18a7dfb-cd8f-48b0-82ae-d0dad0e99d59{fill:#263238;}.\39 5e22c5e-e2d5-46d9-a51c-e2c0ae0df9f2,.a9d9c167-f5d5-485c-a11a-a3e5b8fadbcb,.fad8650e-df0f-4fd5-80fd-846010019400{opacity:0.2;}.\34 c17be26-cc7a-441d-9066-9450ad41b234,.\36 f280f33-a7bb-41b3-9a81-1a04fba4548f,.\39 5e22c5e-e2d5-46d9-a51c-e2c0ae0df9f2{fill:#fff;}.\34 c17be26-cc7a-441d-9066-9450ad41b234{opacity:0.7;}.b6417c97-5585-415c-b9a4-5444a35c2eba{fill:#7f3e3b;}.\37 f4b6655-6fdd-4dcd-99d0-eca4d26662f9{opacity:0.4;}.\38 faed791-7ba1-468f-935e-3d7181b38035{fill:#630f0f;}</style></defs><title>Artboard 2</title><rect class="def1a966-47af-4184-97d5-463ab372a327" x="11.93" y="369.84" width="474.25" height="0.24"/><rect class="def1a966-47af-4184-97d5-463ab372a327" x="388.33" y="385.11" width="50.33" height="0.24"/><rect class="def1a966-47af-4184-97d5-463ab372a327" x="270.45" y="382.14" width="55.64" height="0.24"/><rect class="def1a966-47af-4184-97d5-463ab372a327" x="372.55" y="380.77" width="18.2" height="0.24"/><rect class="def1a966-47af-4184-97d5-463ab372a327" x="107.23" y="377.89" width="40.97" height="0.24"/><rect class="def1a966-47af-4184-97d5-463ab372a327" x="87.3" y="377.89" width="14.65" height="0.24"/><rect class="def1a966-47af-4184-97d5-463ab372a327" x="136.63" y="381.9" width="51.4" height="0.24"/><path class="def1a966-47af-4184-97d5-463ab372a327" d="M236.74,327.54H53.58a5.42,5.42,0,0,1-5.41-5.41V64.67a5.42,5.42,0,0,1,5.41-5.41H236.74a5.42,5.42,0,0,1,5.41,5.41V322.13A5.42,5.42,0,0,1,236.74,327.54ZM53.58,59.5a5.18,5.18,0,0,0-5.17,5.17V322.13a5.18,5.18,0,0,0,5.17,5.17H236.74a5.18,5.18,0,0,0,5.17-5.17V64.67a5.18,5.18,0,0,0-5.17-5.17Z"/><path class="def1a966-47af-4184-97d5-463ab372a327" d="M441.9,327.54H258.74a5.42,5.42,0,0,1-5.41-5.41V64.67a5.42,5.42,0,0,1,5.41-5.41H441.9a5.42,5.42,0,0,1,5.41,5.41V322.13A5.42,5.42,0,0,1,441.9,327.54ZM258.74,59.5a5.18,5.18,0,0,0-5.17,5.17V322.13a5.18,5.18,0,0,0,5.17,5.17H441.9a5.18,5.18,0,0,0,5.17-5.17V64.67a5.18,5.18,0,0,0-5.17-5.17Z"/><path class="4e4fd6b0-f596-4fa5-a30a-2ec5f0de4452" d="M365.51,270.61c-24.26-31.46-35.49-62.29-65-16.92-13.27-14-24.94-28.05-33.43-41.28-45.95-71.58-92.16-27.53-129.68,21.11s-80.9,136.32-80.9,136.32H447.07S389.92,302.25,365.51,270.61Z"/><path class="c939c8e8-df5d-495b-a31f-8ed014e27602" d="M282.23,295.88c-12.58-23.59-18.35-46.73-33.75-12-14.64,33-52.2,86-52.2,86h128S294.8,319.46,282.23,295.88Z"/><path class="6f4ab648-16bd-4f1b-ad03-1e6a6f458a86" d="M74.7,92a4.16,4.16,0,0,1,2.63.82c5.8-2.82,12.52-4.55,18.14-4.36a13.81,13.81,0,0,1,6.67,1.62c6.17-4.25,14.14-7.27,20-7.27,3.33,0,5.44,1,6.24,2.61,6.39-2.86,13-4.61,18.4-4.61,8.59,0,11.56,4.45,8.29,10.71,4.05.11,7.46,2.58,4.55,4.8H64.71l.36-.41A14.12,14.12,0,0,1,74.7,92Z"/><path class="6f4ab648-16bd-4f1b-ad03-1e6a6f458a86" d="M172.72,119.6a2,2,0,0,1,1.5.59c3.52-2,7.52-3.31,10.79-3.17a6.52,6.52,0,0,1,3.83,1.18h0c3.78-3.09,8.57-5.28,12-5.28,2,0,3.14.71,3.53,1.89,3.87-2.08,7.81-3.36,11-3.36,3.91,0,5.71,2,5.29,5a12.86,12.86,0,0,1,5.19-1.39c2.09,0,3.1,1,3,2.55a4.87,4.87,0,0,1,.54,0c3.2.26,4.5,2.27,3,4.56H167.14A8.1,8.1,0,0,1,172.72,119.6Z"/><path class="6f4ab648-16bd-4f1b-ad03-1e6a6f458a86" d="M86,149a1.34,1.34,0,0,1,1,.41,14.51,14.51,0,0,1,7.47-2.19,4.5,4.5,0,0,1,2.64.82h0c2.61-2.14,5.92-3.66,8.29-3.66,1.35,0,2.18.49,2.45,1.31a17.06,17.06,0,0,1,7.57-2.32c2.71,0,4,1.36,3.66,3.44a8.94,8.94,0,0,1,3.59-1c1.44,0,2.15.69,2.07,1.76l.38,0c2.21.18,3.11,1.57,2.11,3.15H82.18A5.6,5.6,0,0,1,86,149Z"/><circle class="c939c8e8-df5d-495b-a31f-8ed014e27602" cx="390.2" cy="106.89" r="33.09"/><path class="6f4ab648-16bd-4f1b-ad03-1e6a6f458a86" d="M309.43,105.92a4.23,4.23,0,0,1,2.63.81c5.8-2.81,12.53-4.55,18.14-4.35a13.81,13.81,0,0,1,6.67,1.62c6.18-4.26,14.14-7.27,20-7.27,3.33,0,5.44,1,6.24,2.6,6.4-2.85,13-4.61,18.4-4.61,8.59,0,11.56,4.46,8.29,10.72,4.05.11,7.47,2.58,4.55,4.8H299.44c.11-.14.23-.27.36-.42A14.16,14.16,0,0,1,309.43,105.92Z"/><path class="6f4ab648-16bd-4f1b-ad03-1e6a6f458a86" d="M372.68,159a2,2,0,0,1,1.5.59c3.52-2,7.52-3.31,10.79-3.17a6.59,6.59,0,0,1,3.83,1.18h0c3.78-3.09,8.57-5.28,12-5.28,1.95,0,3.14.71,3.53,1.89,3.87-2.08,7.81-3.35,11-3.35,3.91,0,5.71,2,5.29,5a12.86,12.86,0,0,1,5.19-1.39c2.09,0,3.1,1,3,2.55a4.87,4.87,0,0,1,.54,0c3.2.26,4.5,2.27,3.05,4.56H367.1A8.1,8.1,0,0,1,372.68,159Z"/><ellipse id="6cb595e0-7e49-41bb-a88d-15b69ccfeb7f" data-name="&lt;Path&gt;" class="4e4fd6b0-f596-4fa5-a30a-2ec5f0de4452" cx="249.06" cy="401.94" rx="183.9" ry="10.74"/><rect class="0a69301d-49da-4ea5-ad92-87e750b6ca69" x="383.49" y="277.1" width="0.95" height="7.7" transform="translate(-65.51 124.95) rotate(-17.05)"/><rect class="0a69301d-49da-4ea5-ad92-87e750b6ca69" x="377" y="248.33" width="0.95" height="22.91" transform="translate(-59.58 122.11) rotate(-17.05)"/><path class="0a69301d-49da-4ea5-ad92-87e750b6ca69" d="M343,157H309.22L238.89,386.28a12,12,0,0,0,11.42,15.45H401.87a11.94,11.94,0,0,0,11.42-15.45Z"/><path class="a9d9c167-f5d5-485c-a11a-a3e5b8fadbcb" d="M343,157H326.09L304.7,401.73h97.17a11.94,11.94,0,0,0,11.42-15.45Z"/><path class="a9d9c167-f5d5-485c-a11a-a3e5b8fadbcb" d="M343,157h-7.92l24.14,244.73h42.68a11.94,11.94,0,0,0,11.42-15.45Z"/><path class="95e22c5e-e2d5-46d9-a51c-e2c0ae0df9f2" d="M309.22,157h8.13L259.17,401.73h-8.86a12,12,0,0,1-11.42-15.45Z"/><path class="0a69301d-49da-4ea5-ad92-87e750b6ca69" d="M325.83,147.88h0a22.4,22.4,0,0,1,21.62,16.58L358.34,205l-2.89,12.81-11.08-10.52-10.5,24.11-9.56-16.76-11.87,16.76-5.17-25.13-10.81,14.33L293.9,204l10.26-39.37A22.4,22.4,0,0,1,325.83,147.88Z"/><path class="4c17be26-cc7a-441d-9066-9450ad41b234" d="M325.83,147.88h0a22.4,22.4,0,0,1,21.62,16.58L358.34,205l-2.89,12.81-11.08-10.52-10.5,24.11-9.56-16.76-11.87,16.76-5.17-25.13-10.81,14.33L293.9,204l10.26-39.37A22.4,22.4,0,0,1,325.83,147.88Z"/><path class="6f280f33-a7bb-41b3-9a81-1a04fba4548f" d="M304.7,402.68a1,1,0,0,1-.86-.55l-16.07-34.85a1,1,0,0,1,.21-1.09l62.57-58.64-38.88-75.77a1,1,0,0,1-.09-.59l13.61-80.93a.94.94,0,0,1,1.09-.78,1,1,0,0,1,.78,1.09L313.51,231.2l39.06,76.12a1,1,0,0,1-.2,1.13l-62.59,58.66,15.78,34.22a1,1,0,0,1-.46,1.26A1,1,0,0,1,304.7,402.68Z"/><circle class="0a69301d-49da-4ea5-ad92-87e750b6ca69" cx="351.72" cy="307.76" r="9.64" transform="translate(-28.61 579.36) rotate(-76.72)"/><path class="6f280f33-a7bb-41b3-9a81-1a04fba4548f" d="M351.72,318.35a10.59,10.59,0,1,1,10.59-10.59A10.6,10.6,0,0,1,351.72,318.35Zm0-19.29a8.7,8.7,0,1,0,8.7,8.7A8.7,8.7,0,0,0,351.72,299.06Z"/><circle class="0a69301d-49da-4ea5-ad92-87e750b6ca69" cx="288.63" cy="366.88" r="9.64" transform="translate(-119.75 593.01) rotate(-80.78)"/><path class="6f280f33-a7bb-41b3-9a81-1a04fba4548f" d="M288.63,377.47a10.59,10.59,0,1,1,10.59-10.59A10.6,10.6,0,0,1,288.63,377.47Zm0-19.28a8.7,8.7,0,1,0,8.69,8.69A8.7,8.7,0,0,0,288.63,358.19Z"/><circle class="0a69301d-49da-4ea5-ad92-87e750b6ca69" cx="312.52" cy="231.35" r="9.64"/><path class="6f280f33-a7bb-41b3-9a81-1a04fba4548f" d="M312.52,241.94a10.59,10.59,0,1,1,10.59-10.59A10.6,10.6,0,0,1,312.52,241.94Zm0-19.28a8.7,8.7,0,1,0,8.69,8.69A8.7,8.7,0,0,0,312.52,222.66Z"/><circle class="0a69301d-49da-4ea5-ad92-87e750b6ca69" cx="326.12" cy="150.41" r="9.64" transform="translate(125.41 448.23) rotate(-80.78)"/><path class="6f280f33-a7bb-41b3-9a81-1a04fba4548f" d="M326.12,161a10.59,10.59,0,1,1,10.59-10.59A10.6,10.6,0,0,1,326.12,161Zm0-19.28a8.7,8.7,0,1,0,8.7,8.69A8.7,8.7,0,0,0,326.12,141.72Z"/><path class="0a69301d-49da-4ea5-ad92-87e750b6ca69" d="M326.09,150.47a1,1,0,0,1-.95-.95V106.89a1,1,0,1,1,1.9,0v42.63A1,1,0,0,1,326.09,150.47Z"/><path class="0a69301d-49da-4ea5-ad92-87e750b6ca69" d="M287.84,124.62c8.5,2.9,17-2.9,25.5,0V110.13c-8.5-2.9-17,2.9-25.5,0Z"/><path class="fad8650e-df0f-4fd5-80fd-846010019400" d="M297.15,110.67v14.48c5.4-.71,10.8-2.37,16.2-.53V110.13C308,108.29,302.55,110,297.15,110.67Z"/><path class="0a69301d-49da-4ea5-ad92-87e750b6ca69" d="M300.59,121.38c8.5,2.9,17-2.9,25.5,0V106.89c-8.5-2.9-17,2.9-25.5,0Z"/><path class="b6417c97-5585-415c-b9a4-5444a35c2eba" d="M162.47,211.66l3,4.75L157,217.49a39.57,39.57,0,0,1,.8-4.64,2.18,2.18,0,0,1,2.57-1.65Z"/><polygon class="b6417c97-5585-415c-b9a4-5444a35c2eba" points="164.73 224.01 158.13 221.99 156.96 217.49 165.43 216.41 164.73 224.01"/><path class="b6417c97-5585-415c-b9a4-5444a35c2eba" d="M187.18,158.56c1-.32,2.22-.74,3.34-1.12s2.28-.82,3.41-1.26c2.24-.89,4.48-1.81,6.62-2.84a43.46,43.46,0,0,0,11.38-7.26,14.85,14.85,0,0,0,1.9-2.16l.2-.28s.24-.48-.14.4a3.66,3.66,0,0,0-.2,1.58,2.93,2.93,0,0,0,.05.29l0,.2.06.18,0,.11c.13.28.17.27.14.21a3.29,3.29,0,0,0-.22-.35,16.86,16.86,0,0,0-2.12-2.18c-.87-.76-1.78-1.54-2.73-2.3-3.82-3-8-6-12-9l2.47-4.61a98.38,98.38,0,0,1,14.23,6.77c1.16.69,2.33,1.39,3.48,2.2a26.4,26.4,0,0,1,3.57,2.93,9.33,9.33,0,0,1,2.05,3l.12.34.12.41c0,.15.07.27.1.43a4.81,4.81,0,0,1,.07.53,5.8,5.8,0,0,1-.3,2.52,5.68,5.68,0,0,1-.61,1.23l-.31.54A24.49,24.49,0,0,1,219,152.9a49.21,49.21,0,0,1-13.84,9.9c-2.44,1.22-4.9,2.34-7.41,3.3-1.25.49-2.51,1-3.78,1.39s-2.51.83-3.95,1.23Z"/><polygon class="b6417c97-5585-415c-b9a4-5444a35c2eba" points="191.04 126.41 185.99 129.7 193.22 131.36 195.07 126.26 191.04 126.41"/><path class="b6417c97-5585-415c-b9a4-5444a35c2eba" d="M201.26,128.94l-6.19-2.68-1.85,5.1s4.92,5.16,8,1.71Z"/><path class="b6417c97-5585-415c-b9a4-5444a35c2eba" d="M164.38,167.62c-2.33,4.22-4.69,8.59-6.94,12.91s-4.46,8.7-6.3,13c-.48,1.09-.9,2.17-1.3,3.24l-.14.36a.4.4,0,0,0,0-.11c0-.06,0-.08,0-.07a1,1,0,0,0,0,.49,8.32,8.32,0,0,0,1,2.25,25,25,0,0,0,1.83,2.62,98.77,98.77,0,0,0,9.87,10.26L159.48,217a58.55,58.55,0,0,1-13-9,29.63,29.63,0,0,1-2.92-3.15A17.41,17.41,0,0,1,141,200.5a10.5,10.5,0,0,1-.72-3.17,9.22,9.22,0,0,1,.09-1.94,9.64,9.64,0,0,1,.22-1l.16-.53c.39-1.3.79-2.58,1.23-3.81A140.61,140.61,0,0,1,148,175.8c2.25-4.59,4.59-9,7.21-13.47Z"/><path class="b6417c97-5585-415c-b9a4-5444a35c2eba" d="M171,137.23c-.61,6.41.3,12.62-1.14,18.19,0,0,1.59,5.17,11.07,5.17,10.41,0,4.77-5.17,4.77-5.17-5.73-1.36-5.75-5.58-4.91-9.54Z"/><path class="d18a7dfb-cd8f-48b0-82ae-d0dad0e99d59" d="M168.6,157.19c-.81-1.63-1.71-3.51,0-4.09,1.84-.65,12.06-1.31,15.64-.1a3.79,3.79,0,0,1,2.7,4.54Z"/><path class="0a69301d-49da-4ea5-ad92-87e750b6ca69" d="M148.29,390.4a9.5,9.5,0,0,1-1.9-.68.19.19,0,0,1-.1-.17.17.17,0,0,1,.12-.16c.31-.12,3-1.08,3.76-.48a.56.56,0,0,1,.19.56,1.09,1.09,0,0,1-.56.86A2.31,2.31,0,0,1,148.29,390.4Zm-1.33-.82a3.71,3.71,0,0,0,2.67.43.78.78,0,0,0,.38-.59.22.22,0,0,0-.07-.23C149.56,388.88,148.05,389.22,147,389.58Z"/><path class="0a69301d-49da-4ea5-ad92-87e750b6ca69" d="M146.43,389.73a.2.2,0,0,1-.09-.05.19.19,0,0,1,0-.18c0-.09.66-2.2,1.68-2.72a1,1,0,0,1,.8-.07h0a.6.6,0,0,1,.46.59c0,.86-1.86,2.17-2.72,2.43Zm2.15-2.7a.64.64,0,0,0-.44.07,4.36,4.36,0,0,0-1.37,2.15c.89-.42,2.1-1.45,2.11-2,0-.05,0-.16-.22-.24h0Z"/><path class="0a69301d-49da-4ea5-ad92-87e750b6ca69" d="M197.17,395.37a8.84,8.84,0,0,1-2-.28A.16.16,0,0,1,195,395a.18.18,0,0,1,.08-.18c.28-.18,2.73-1.69,3.58-1.25a.55.55,0,0,1,.3.51,1.08,1.08,0,0,1-.37,1A2.28,2.28,0,0,1,197.17,395.37Zm-1.47-.53a3.66,3.66,0,0,0,2.7-.14.72.72,0,0,0,.24-.65c0-.14-.06-.19-.11-.21C198.09,393.61,196.69,394.26,195.7,394.84Z"/><path class="0a69301d-49da-4ea5-ad92-87e750b6ca69" d="M195.22,395.1a.18.18,0,0,1-.18-.2c0-.09.19-2.29,1.07-3a1,1,0,0,1,.77-.23h0a.58.58,0,0,1,.57.47c.16.85-1.36,2.52-2.15,2.95Zm1.53-3.09a.61.61,0,0,0-.41.16,4.31,4.31,0,0,0-.9,2.39c.78-.6,1.75-1.86,1.66-2.36,0-.05,0-.15-.27-.18h-.08Z"/><polygon class="b6417c97-5585-415c-b9a4-5444a35c2eba" points="187.02 394.82 193.99 394.82 194.06 378.69 187.09 378.69 187.02 394.82"/><polygon class="b6417c97-5585-415c-b9a4-5444a35c2eba" points="138.21 388.41 144.86 389.7 150.4 373.88 143.74 372.59 138.21 388.41"/><path class="d18a7dfb-cd8f-48b0-82ae-d0dad0e99d59" d="M145.76,388.77l-7.66-1.63a.59.59,0,0,0-.66.35l-2.4,5.82a1.06,1.06,0,0,0,.79,1.43c2.68.53,4,.65,7.37,1.36,2.07.44,6.3,1.57,9.16,2.18s3.73-2.17,2.6-2.67c-5.05-2.28-6.75-4.3-8.17-6.18A1.74,1.74,0,0,0,145.76,388.77Z"/><path class="d18a7dfb-cd8f-48b0-82ae-d0dad0e99d59" d="M193.91,394H186.3a.57.57,0,0,0-.57.47l-1.14,6.2a1.06,1.06,0,0,0,1,1.24c2.74-.05,6.7-.21,10.15-.21,4,0,4.24.22,9,.22,2.86,0,3.54-2.89,2.33-3.16-5.5-1.19-6.66-1.32-11.48-4.22A3.28,3.28,0,0,0,193.91,394Z"/><path class="d18a7dfb-cd8f-48b0-82ae-d0dad0e99d59" d="M158.42,156.81c-6.41,1.75-14,19.49-14,19.49l14.72,8.31s3.44-6.28,6.84-14.05C169.54,162.41,169.11,153.89,158.42,156.81Z"/><path class="d18a7dfb-cd8f-48b0-82ae-d0dad0e99d59" d="M200.07,188.12c0,7.78-.52,17.45-1.68,29.46H161.11c-.45-5.41,1.78-30.68-3.53-56.21a4.31,4.31,0,0,1,3.57-5.15c2.25-.33,5.08-.67,7.86-.81a141.77,141.77,0,0,1,15.84,0c2.35.22,4.64.6,6.51,1a8.18,8.18,0,0,1,6.32,5.8A72.55,72.55,0,0,1,199.8,177C200,180.19,200.09,183.87,200.07,188.12Z"/><path class="d18a7dfb-cd8f-48b0-82ae-d0dad0e99d59" d="M183.31,170.26c5.8,3.21,19.15-.46,19.15-.46l-.7-18.07a52.87,52.87,0,0,0-14,3.8C178.62,159.23,176.76,166.65,183.31,170.26Z"/><path class="0a69301d-49da-4ea5-ad92-87e750b6ca69" d="M190.93,153.94s-2.69.95-3.69,1.24c-3.58,3.93-5.8,12.46-5.8,12.46l4.55,6C184.26,164.75,190.93,153.94,190.93,153.94Z"/><path class="fad8650e-df0f-4fd5-80fd-846010019400" d="M190.93,153.94s-2.69.95-3.69,1.24c-3.58,3.93-5.8,12.46-5.8,12.46l4.55,6C184.26,164.75,190.93,153.94,190.93,153.94Z"/><path class="0a69301d-49da-4ea5-ad92-87e750b6ca69" d="M200.07,198.68c-3.55,2.74-10.62-3.64-10.62-3.64l.21,3.24C196.14,203.69,200,201,200,201A8,8,0,0,0,200.07,198.68Z"/><path class="fad8650e-df0f-4fd5-80fd-846010019400" d="M200.07,198.68c-3.55,2.74-10.62-3.64-10.62-3.64l.21,3.24C196.14,203.69,200,201,200,201A8,8,0,0,0,200.07,198.68Z"/><path class="0a69301d-49da-4ea5-ad92-87e750b6ca69" d="M166.93,155.18a19.12,19.12,0,0,0-3.15.52,22.15,22.15,0,0,0-1.05,12.82l4.09-1.84S165.51,160.48,166.93,155.18Z"/><path class="fad8650e-df0f-4fd5-80fd-846010019400" d="M166.93,155.18a19.12,19.12,0,0,0-3.15.52,22.15,22.15,0,0,0-1.05,12.82l4.09-1.84S165.51,160.48,166.93,155.18Z"/><path class="0a69301d-49da-4ea5-ad92-87e750b6ca69" d="M162.13,167.67c2.22-3.48,19.34-3.09,23-.24s8.17,34,2.7,37.47S157.14,210,157,203s5.57-19.27,4.88-23.32S159.1,172.41,162.13,167.67Z"/><path class="7f4b6655-6fdd-4dcd-99d0-eca4d26662f9" d="M162.37,178.54S168.6,181,181.8,178C179.24,179.36,165.67,182.43,162.37,178.54Z"/><path class="7f4b6655-6fdd-4dcd-99d0-eca4d26662f9" d="M169.9,177.63c.08.58-.24,1.05-.72,1.05a1.16,1.16,0,0,1-1-1.05c-.08-.58.24-1,.72-1A1.16,1.16,0,0,1,169.9,177.63Z"/><path class="7f4b6655-6fdd-4dcd-99d0-eca4d26662f9" d="M184.44,205.4h-.07a.24.24,0,0,1-.15-.3c2-6.59,1.76-15.68-.75-27-1-4.7.15-9.25.78-10.19a.22.22,0,0,1,.32-.06.23.23,0,0,1,.07.32c-.65,1-1.66,5.48-.7,9.83,2.52,11.42,2.77,20.59.73,27.26A.25.25,0,0,1,184.44,205.4Z"/><g class="fad8650e-df0f-4fd5-80fd-846010019400"><polygon points="194.06 378.69 194.02 387.01 187.05 387.01 187.09 378.69 194.06 378.69"/><polygon points="143.74 372.6 150.4 373.89 147.54 382.04 140.88 380.75 143.74 372.6"/></g><path class="0a69301d-49da-4ea5-ad92-87e750b6ca69" d="M185.16,217.58s-5.85,53.25-9.42,73.2c-3.91,21.85-24.16,90.42-24.16,90.42l-12.48-2.66s13.94-64.15,15.81-85.78c2-23.48,6.21-75.18,6.21-75.18Z"/><path class="d18a7dfb-cd8f-48b0-82ae-d0dad0e99d59" d="M154.37,377c.06,0-2.12,4.56-2.12,4.56l-14-3,1-4.26Z"/><path class="fad8650e-df0f-4fd5-80fd-846010019400" d="M180.9,236.55c-9.08,1.8-6.79,35.89-5,53.43C178,277.58,181,253.73,183,236.8A3.21,3.21,0,0,0,180.9,236.55Z"/><path class="0a69301d-49da-4ea5-ad92-87e750b6ca69" d="M198.38,217.58s3,52.1,3,73.35c.06,22.1-4.86,94.47-4.86,94.47H184.75s-3.17-71.08-4.54-92.79c-1.48-23.66-6.32-75-6.32-75Z"/><path class="d18a7dfb-cd8f-48b0-82ae-d0dad0e99d59" d="M198.65,380.7s-.48,4.9-.48,4.9H183.81l-.56-4.38Z"/><path class="d18a7dfb-cd8f-48b0-82ae-d0dad0e99d59" d="M186.85,130.6c.08.55.44,1,.81.94s.6-.52.52-1.08-.44-1-.81-.94S186.77,130,186.85,130.6Z"/><path class="8faed791-7ba1-468f-935e-3d7181b38035" d="M187.24,131.58a21.26,21.26,0,0,0,3.35,4.49,3.19,3.19,0,0,1-2.6.77Z"/><path class="d18a7dfb-cd8f-48b0-82ae-d0dad0e99d59" d="M187.08,127a.35.35,0,0,0,.21-.23.34.34,0,0,0-.24-.4,3.22,3.22,0,0,0-2.88.81.33.33,0,0,0,0,.47.34.34,0,0,0,.47,0,2.57,2.57,0,0,1,2.27-.66A.44.44,0,0,0,187.08,127Z"/><path class="b6417c97-5585-415c-b9a4-5444a35c2eba" d="M168,131.32c1.39,6.8,1.86,10.84,5.82,14a9,9,0,0,0,14.67-6.25c.6-6.29-1.77-16.35-8.88-18.38A9.08,9.08,0,0,0,168,131.32Z"/><path class="d18a7dfb-cd8f-48b0-82ae-d0dad0e99d59" d="M182.7,132.34c-1.16,3.58-7.6,10.43-9.88,11s-8.53-4.88-9.09-7.7c-2.28-.26-4.78-4.8-1.3-6.58-2.55-1.3-1.87-8.08,3.32-7.59-3.17-3.06.64-8.22,5-6.85,1-2.63,6.88-4.32,10.24-.26,2.63-1.48,7.23,1.5,6.89,6a7.2,7.2,0,0,1-5.07,6C183.87,127.61,182.7,132.34,182.7,132.34Z"/><path class="b6417c97-5585-415c-b9a4-5444a35c2eba" d="M179.22,131.39a8.18,8.18,0,0,0,2.63,4.38c1.75,1.5,3.16.28,3.12-1.78,0-1.85-1-4.86-3-5.57S178.78,129.35,179.22,131.39Z"/></svg>