<svg xmlns="http://www.w3.org/2000/svg" xmlns:xlink="http://www.w3.org/1999/xlink" viewBox="0 0 661.25 560.77"><defs><style>.ef1ed2e3-744b-4ee2-9ea2-bafa3aeb2063{fill:none;}.\31 d86bc8f-4c11-4e10-a804-d14de37e3bf4{isolation:isolate;}.d968cd95-dbcb-4abe-a223-c457268f3be4{opacity:0;}.\30 721b8cd-b6c2-44b5-abef-312f5af6aa23,.\30 dd7f3dc-aaea-49a9-a3ce-f41d055dfdce,.\31 1d4fa5b-b988-4b34-8a06-5c1b0abdd27d,.\31 5dacb1f-cdc2-4a00-aac7-dc05ef999e0a,.\31 7bcf1a3-5ed3-4e48-b879-b951f5c408e0,.\31 7f9e397-a922-4a55-847f-7dac5cdb71ad,.\32 266b1f9-c376-4b1c-a1f3-4b3c7f278a91,.\32 c6496fc-8e51-41f0-893a-bd1d2b0b7a07,.\32 c9a4ca4-f30a-4766-a75c-dd79dc125de3,.\33 5e0c910-ad33-48e5-9d59-3a4150594afc,.\33 60f4748-681c-4d23-91d1-0cea27277ae5,.\33 9b94d24-d4ba-4c7a-9053-d7e4e365aa2b,.\34 7167d93-768d-449a-ad3c-8d616dbbee5d,.\34 b9ffc7c-e3bb-42a4-a539-d5d45c4f2530,.\35 6371206-524c-4d4d-9ee2-b117b665251b,.\37 600c71b-d463-4c30-a6d1-6bff0723c75f,.\37 fcc55af-0f3a-45e9-9e1b-946218d7b8bb,.\38 6650769-0977-451c-be13-dd58cc14fd89,.\38 84a82b7-5531-4b34-88a4-f858aa4531f1,.\38 add2a8b-6d0e-4c6c-a7a7-5db73362c955,.\38 f46af53-85f9-47a3-956b-4207fc771fb6,.\39 aff9dbd-952c-40e6-8b10-2711d5c08f90,.a849185d-afcc-4cc8-b097-3c471c87d817,.a922cb1d-9491-4c3b-bcd6-2e57189d2fd5,.aa2014b9-a80d-47cb-bf34-12824a43346e,.ab902480-9661-474a-8871-0b867cc29c10,.ae92d71b-b8b2-4e5a-b5ab-174e58973c19,.c4dd0250-d9f8-447b-8397-0b94b382b219,.d968cd95-dbcb-4abe-a223-c457268f3be4,.e952ec89-fff7-4555-a733-f068f1066ae0,.ecc80fb1-765c-426f-bc8e-cd30f8368732,.fa1ca947-51c3-4b8c-8f37-d043f5a67142,.fbda7602-a3db-477d-806a-c364a2a2c5ef{mix-blend-mode:multiply;}.\33 9b94d24-d4ba-4c7a-9053-d7e4e365aa2b{opacity:0.01;}.\33 60f4748-681c-4d23-91d1-0cea27277ae5{opacity:0.03;}.\30 dd7f3dc-aaea-49a9-a3ce-f41d055dfdce{opacity:0.04;}.\38 add2a8b-6d0e-4c6c-a7a7-5db73362c955{opacity:0.06;}.fa1ca947-51c3-4b8c-8f37-d043f5a67142{opacity:0.07;}.\31 5dacb1f-cdc2-4a00-aac7-dc05ef999e0a{opacity:0.09;}.\39 aff9dbd-952c-40e6-8b10-2711d5c08f90{opacity:0.1;}.aa2014b9-a80d-47cb-bf34-12824a43346e{opacity:0.11;}.\30 721b8cd-b6c2-44b5-abef-312f5af6aa23{opacity:0.13;}.ecc80fb1-765c-426f-bc8e-cd30f8368732{opacity:0.14;}.\37 600c71b-d463-4c30-a6d1-6bff0723c75f{opacity:0.16;}.\35 6371206-524c-4d4d-9ee2-b117b665251b{opacity:0.17;}.\31 7bcf1a3-5ed3-4e48-b879-b951f5c408e0{opacity:0.19;}.\31 1d4fa5b-b988-4b34-8a06-5c1b0abdd27d{opacity:0.2;}.ab902480-9661-474a-8871-0b867cc29c10{opacity:0.21;}.\32 c9a4ca4-f30a-4766-a75c-dd79dc125de3{opacity:0.23;}.\38 f46af53-85f9-47a3-956b-4207fc771fb6{opacity:0.24;}.\32 266b1f9-c376-4b1c-a1f3-4b3c7f278a91{opacity:0.26;}.\38 84a82b7-5531-4b34-88a4-f858aa4531f1{opacity:0.27;}.\34 b9ffc7c-e3bb-42a4-a539-d5d45c4f2530{opacity:0.29;}.\38 6650769-0977-451c-be13-dd58cc14fd89{opacity:0.3;}.\30 98feb01-0e3f-4409-b898-2102e12543b6{fill:url(#783e5f7c-b35f-4623-ac22-f388102f5c28);}.\35 6580b55-3c7c-4bc8-a0c7-e6b152a978c9{fill:url(#b9667715-e8c9-4baa-a0c9-46b5205cbe9a);}.\31 e09cb47-6e86-47a5-8cca-d5d502739315,.\34 37f50e9-b34e-4ed3-94d1-0036dabe085c,.c30256b5-b60a-4a63-9db1-da17babae04a{opacity:0.5;}.\34 37f50e9-b34e-4ed3-94d1-0036dabe085c{fill:url(#ab1db9ad-0638-4130-958a-b381b47abce9);}.c386d6ee-ac91-4eec-94af-1f2a06a50952{fill:url(#59f0e8fa-2f2b-4f9a-b2d6-7e2552b12b94);}.c30256b5-b60a-4a63-9db1-da17babae04a{fill:url(#3091f262-d014-4bda-aea2-58f54a6c5e5b);}.\30 de0399e-d304-43f9-9f6d-299c635bb9b5{fill:url(#c3434535-70ac-416a-b5a2-21333b4c89e7);}.\31 e09cb47-6e86-47a5-8cca-d5d502739315{fill:url(#516a7e5e-8476-4e49-9264-b59c480779c3);}.f73d3576-7374-4f31-a948-ceefd42f7da3{fill:url(#5d1c9779-8590-4c30-a85f-469e8905684b);}.cdba3b0a-95ee-4fd2-a1a5-8b2e3548d0b6{fill:url(#92ae132c-e3ba-4a40-9c56-e4ee64e48cc2);}.\31 0ce172b-0bb3-4b70-9869-7272adf1c8b7{fill:url(#d71657b8-ff23-42df-b4b7-27323138407a);}.\38 cf7563e-8ec8-4595-b6e3-4e35b7ad8d9d{fill:url(#72214d6b-736e-43a9-8178-5831278338d2);}.\33 e82492f-7d47-441c-98f6-be01ebe512b7{fill:url(#dc615dde-2f92-4022-837a-986f232570ee);}.\33 90f2b75-ead6-4730-a5ab-cd5357c9d0b5{fill:url(#dc1ac4dd-36fd-4dc1-b125-cc1164495746);}.bffc0971-90c5-4bc3-be26-43a8e86077af{fill:url(#be1dc7fd-436f-447a-841f-20d8e6872efb);}.\36 723e260-d152-47f1-9680-8a4e05f3c5b9{fill:url(#2365c1f1-5c20-491e-b4f0-8c1875d7c614);}.\35 2201f10-ffc5-4a03-bebe-08292d0ee1c5{fill:url(#db3157a5-8a57-48da-b5c5-5d1405fa0b7e);}.a849185d-afcc-4cc8-b097-3c471c87d817{fill:url(#ba7296e3-ea41-4ee8-8b4a-ab285b3529e1);}.\34 7167d93-768d-449a-ad3c-8d616dbbee5d{fill:url(#19b7280d-10d4-4091-b9eb-6f505be419c1);}.\31 35276ab-3c81-46ee-b43a-473d6e65703e,.\32 014ef01-65ae-4dd1-87c0-33fa4d24dbeb,.\34 2ec962c-7510-40f8-9b6a-df3d835d614b,.\35 4660f14-6770-451d-9e11-3e4457733977,.\39 6c4526f-4367-48e4-a0d9-61fa4d78b965,.b2693ad5-a79c-4773-ba26-bdc2fe40b987,.c6c6de33-358c-4fa3-a965-c46b406bf2c5{mix-blend-mode:color-dodge;}.\32 014ef01-65ae-4dd1-87c0-33fa4d24dbeb{fill:url(#b1d3b2f0-cc62-4072-a768-0784003a3167);}.bb511ae6-d2e2-40b5-b4cd-7c1f871c328f{fill:url(#4b484578-6498-423a-bd18-325af607f935);}.fbda7602-a3db-477d-806a-c364a2a2c5ef{fill:url(#3c8e23b1-8c6e-4a11-9adf-3fe2f7dcbc04);}.b2693ad5-a79c-4773-ba26-bdc2fe40b987{fill:url(#0a44455b-9067-4f74-a3b3-0f313245e2bf);}.\38 70c6b0d-e3a1-4d8c-a698-2c37354594cb{fill:url(#8b64b181-b31c-4736-a738-f4c2c5347d58);}.\37 3c4b55e-49d7-4226-829e-9732773c1266{fill:url(#3f1bef44-0c89-4e57-8ce0-5b3011d06cef);}.\39 e2c5913-5480-48b2-b702-7047d616dbe7{fill:url(#b481e612-8872-469b-a9c2-f4013d9e3f62);}.\39 6c4526f-4367-48e4-a0d9-61fa4d78b965{fill:url(#c4b743fb-f292-479f-be9d-12ec8c585548);}.\31 7f9e397-a922-4a55-847f-7dac5cdb71ad{fill:url(#2d33a2f5-a11f-4e26-a7ff-e5725095693c);}.\34 fa8b9a1-01fb-4867-ba4e-3334e0c06893{fill:url(#4ea7cd7c-efa1-46d5-9163-745b2f760757);}.c6c6de33-358c-4fa3-a965-c46b406bf2c5{fill:url(#d3cb55ca-d039-4138-8625-cc264079fdbd);}.ae92d71b-b8b2-4e5a-b5ab-174e58973c19{fill:url(#baaf7f00-b563-4ddd-856e-e9191c2ac3e3);}.\37 509ef81-a6f0-4861-a034-3a2d09788e65{fill:#fff;}.d19ad4c1-7c1d-4673-a5cb-e81f8d4d5c00{clip-path:url(#6289612b-5d2c-4f09-8c4b-325f1dd2d00a);}.d191d7ae-2998-4265-9d7f-16e38e17ab15{fill:url(#c6cfb756-1e74-4a21-80a1-1459db18b5dc);}.\37 fcc55af-0f3a-45e9-9e1b-946218d7b8bb{fill:url(#ed4d53ac-b13c-4f04-baad-b3df5d5fc47d);}.\35 0485d01-5a69-454b-99c4-dd7671014011{fill:url(#2149924a-f263-4c9e-883a-6da1167c7830);}.\39 b4ed767-b205-4c70-aee6-592261b84de3{fill:url(#007f9b47-87f9-436c-9eef-e90f0a016bed);}.\33 5e0c910-ad33-48e5-9d59-3a4150594afc{fill:url(#2d5b48fe-11bf-4fce-937d-fad464a64eec);}.a15565fb-8152-4f88-bafa-38b962b371a1{fill:#fdd65b;}.\34 2ec962c-7510-40f8-9b6a-df3d835d614b{fill:url(#874222f7-4786-46da-9217-d5ff936dd791);}.c4dd0250-d9f8-447b-8397-0b94b382b219{fill:url(#db4e30b3-3a9e-4ce0-810d-704d9d503eb8);}.\31 35276ab-3c81-46ee-b43a-473d6e65703e{fill:url(#3e6885ac-a558-4ab9-adee-eaaaa487f007);}.\32 c6496fc-8e51-41f0-893a-bd1d2b0b7a07{fill:url(#6afa73cc-3dec-4b56-9972-52f68050fd00);}.\31 fbf9b77-bf0b-47cc-a27d-8f9a6ecd57c7{fill:url(#c0b60943-5cad-4e8b-96d9-49b72376b3a1);}.\33 0a7e271-fb34-4fba-b16f-9413af9a1f23{fill:url(#dbf9c514-576b-4858-a089-c18c0f228b6e);}.a922cb1d-9491-4c3b-bcd6-2e57189d2fd5{fill:url(#948037fb-bcf1-46a5-8e46-65d13a63d373);}</style><radialGradient id="783e5f7c-b35f-4623-ac22-f388102f5c28" cx="424.11" cy="158.83" r="74.2" gradientUnits="userSpaceOnUse"><stop offset="0.01" stop-color="#fff"/><stop offset="0.16" stop-color="#e6d7f0"/><stop offset="0.28" stop-color="#d7bde7"/><stop offset="0.36" stop-color="#d1b4e3"/><stop offset="0.48" stop-color="#c4a4dc"/><stop offset="0.71" stop-color="#a17bc9"/><stop offset="0.72" stop-color="#9f79c8"/><stop offset="0.81" stop-color="#a37cc9"/><stop offset="0.9" stop-color="#ae84cc"/><stop offset="0.91" stop-color="#b086cc"/><stop offset="0.96" stop-color="#ad84cb"/><stop offset="0.99" stop-color="#a57dc9"/><stop offset="1" stop-color="#9f79c8"/></radialGradient><radialGradient id="b9667715-e8c9-4baa-a0c9-46b5205cbe9a" cx="210.84" cy="172.57" r="376.56" xlink:href="#783e5f7c-b35f-4623-ac22-f388102f5c28"/><linearGradient id="ab1db9ad-0638-4130-958a-b381b47abce9" x1="401.45" y1="329.31" x2="474.92" y2="329.31" gradientUnits="userSpaceOnUse"><stop offset="0.01" stop-color="#c1a1d5"/><stop offset="0.05" stop-color="#c8abda"/><stop offset="0.11" stop-color="#dac6e6"/><stop offset="0.2" stop-color="#f7f2f9"/><stop offset="0.22" stop-color="#fff"/><stop offset="0.25" stop-color="#f9f5fb"/><stop offset="0.3" stop-color="#e9dbf2"/><stop offset="0.36" stop-color="#d1b4e3"/><stop offset="0.43" stop-color="#b395d6"/><stop offset="0.49" stop-color="#9c7dcb"/><stop offset="0.56" stop-color="#8e6ec5"/><stop offset="0.61" stop-color="#8969c3"/><stop offset="0.76" stop-color="#9471c6"/><stop offset="1" stop-color="#b086cc"/></linearGradient><radialGradient id="59f0e8fa-2f2b-4f9a-b2d6-7e2552b12b94" cx="198.33" cy="160.06" r="376.57" xlink:href="#783e5f7c-b35f-4623-ac22-f388102f5c28"/><linearGradient id="3091f262-d014-4bda-aea2-58f54a6c5e5b" x1="261.48" y1="408.05" x2="334.94" y2="408.05" xlink:href="#ab1db9ad-0638-4130-958a-b381b47abce9"/><radialGradient id="c3434535-70ac-416a-b5a2-21333b4c89e7" cx="198.33" cy="160.06" r="376.57" xlink:href="#783e5f7c-b35f-4623-ac22-f388102f5c28"/><linearGradient id="516a7e5e-8476-4e49-9264-b59c480779c3" x1="177.97" y1="358.7" x2="251.44" y2="358.7" xlink:href="#ab1db9ad-0638-4130-958a-b381b47abce9"/><linearGradient id="5d1c9779-8590-4c30-a85f-469e8905684b" x1="466.17" y1="352.54" x2="422.49" y2="298.88" gradientUnits="userSpaceOnUse"><stop offset="0" stop-color="#fff"/><stop offset="1" stop-color="#9c70b8"/></linearGradient><linearGradient id="92ae132c-e3ba-4a40-9c56-e4ee64e48cc2" x1="183.25" y1="387.31" x2="210.49" y2="352.71" xlink:href="#5d1c9779-8590-4c30-a85f-469e8905684b"/><linearGradient id="d71657b8-ff23-42df-b4b7-27323138407a" x1="298.21" y1="429.49" x2="298.21" y2="378.56" xlink:href="#5d1c9779-8590-4c30-a85f-469e8905684b"/><radialGradient id="72214d6b-736e-43a9-8178-5831278338d2" cx="2434.08" cy="-2940.59" r="255.3" gradientTransform="matrix(0.93, 0, 0, 0.8, -1978.45, 2583.03)" xlink:href="#783e5f7c-b35f-4623-ac22-f388102f5c28"/><linearGradient id="dc615dde-2f92-4022-837a-986f232570ee" x1="1167.25" y1="-468.07" x2="1250.73" y2="-486.78" gradientTransform="matrix(1.05, -0.22, 0.2, 0.98, -878.81, 996.22)" gradientUnits="userSpaceOnUse"><stop offset="0" stop-color="#25054d"/><stop offset="1" stop-color="#45108a"/></linearGradient><linearGradient id="dc1ac4dd-36fd-4dc1-b125-cc1164495746" x1="198.59" y1="120.4" x2="257.86" y2="220.4" gradientTransform="matrix(1, -0.04, 0, 1, 0, 182.19)" xlink:href="#ab1db9ad-0638-4130-958a-b381b47abce9"/><linearGradient id="be1dc7fd-436f-447a-841f-20d8e6872efb" x1="82.3" y1="204.98" x2="335.55" y2="148.21" gradientTransform="matrix(1, -0.04, 0, 1, 0, 182.19)" gradientUnits="userSpaceOnUse"><stop offset="0" stop-color="#9f79c8"/><stop offset="0.14" stop-color="#a27dca"/><stop offset="0.27" stop-color="#ac88cf"/><stop offset="0.4" stop-color="#bc9bd7"/><stop offset="0.52" stop-color="#d1b4e3"/><stop offset="0.65" stop-color="#dbc4e9"/><stop offset="0.9" stop-color="#f4edf8"/><stop offset="1" stop-color="#fff"/></linearGradient><linearGradient id="2365c1f1-5c20-491e-b4f0-8c1875d7c614" x1="164.52" y1="163.99" x2="211.25" y2="153.51" gradientTransform="matrix(1, -0.04, 0, 1, 0, 182.19)" xlink:href="#ab1db9ad-0638-4130-958a-b381b47abce9"/><linearGradient id="db3157a5-8a57-48da-b5c5-5d1405fa0b7e" x1="199.73" y1="185.2" x2="246.46" y2="174.72" gradientTransform="matrix(1, -0.04, 0, 1, 0, 182.19)" xlink:href="#ab1db9ad-0638-4130-958a-b381b47abce9"/><linearGradient id="ba7296e3-ea41-4ee8-8b4a-ab285b3529e1" x1="173.28" y1="335.99" x2="206.15" y2="328.62" gradientUnits="userSpaceOnUse"><stop offset="0" stop-color="#9f79c8"/><stop offset="0.14" stop-color="#a580cb"/><stop offset="0.33" stop-color="#b492d3"/><stop offset="0.55" stop-color="#cdb0e1"/><stop offset="0.58" stop-color="#d1b4e3"/><stop offset="0.76" stop-color="#dbc4e9"/><stop offset="1" stop-color="#ebdef3"/></linearGradient><linearGradient id="19b7280d-10d4-4091-b9eb-6f505be419c1" x1="208.49" y1="355.84" x2="241.36" y2="348.47" xlink:href="#ba7296e3-ea41-4ee8-8b4a-ab285b3529e1"/><radialGradient id="b1d3b2f0-cc62-4072-a768-0784003a3167" cx="228.23" cy="-558.3" r="47.98" gradientTransform="matrix(1, -0.04, 0, 0.81, 0, 799.66)" gradientUnits="userSpaceOnUse"><stop offset="0" stop-color="#fff"/><stop offset="1"/></radialGradient><linearGradient id="4b484578-6498-423a-bd18-325af607f935" x1="-850.63" y1="3394.86" x2="-772.14" y2="3377.26" gradientTransform="translate(2940.33 -1917.32) rotate(38.22)" xlink:href="#dc615dde-2f92-4022-837a-986f232570ee"/><linearGradient id="3c8e23b1-8c6e-4a11-9adf-3fe2f7dcbc04" x1="354.8" y1="152.3" x2="340.17" y2="112.55" gradientUnits="userSpaceOnUse"><stop offset="0" stop-color="#8457b5"/><stop offset="0.17" stop-color="#895eb8"/><stop offset="0.42" stop-color="#9970c1"/><stop offset="0.71" stop-color="#b18ed0"/><stop offset="1" stop-color="#d1b4e3"/></linearGradient><radialGradient id="0a44455b-9067-4f74-a3b3-0f313245e2bf" cx="3495.51" cy="-2910.11" r="114.37" gradientTransform="matrix(1, 0, 0, 0.8, -3237.73, 2570.61)" gradientUnits="userSpaceOnUse"><stop offset="0" stop-color="#972a74"/><stop offset="0.04" stop-color="#8a266a"/><stop offset="0.19" stop-color="#601b4a"/><stop offset="0.35" stop-color="#3d112f"/><stop offset="0.51" stop-color="#230a1b"/><stop offset="0.67" stop-color="#0f040c"/><stop offset="0.83" stop-color="#040103"/><stop offset="1"/></radialGradient><radialGradient id="8b64b181-b31c-4736-a738-f4c2c5347d58" cx="302.49" cy="196.13" r="123.65" xlink:href="#783e5f7c-b35f-4623-ac22-f388102f5c28"/><radialGradient id="3f1bef44-0c89-4e57-8ce0-5b3011d06cef" cx="167.04" cy="136.13" r="134.1" xlink:href="#783e5f7c-b35f-4623-ac22-f388102f5c28"/><linearGradient id="b481e612-8872-469b-a9c2-f4013d9e3f62" x1="362.86" y1="110.64" x2="569.22" y2="64.38" gradientTransform="matrix(1, -0.04, 0.04, 1, -116.18, 157.82)" xlink:href="#be1dc7fd-436f-447a-841f-20d8e6872efb"/><radialGradient id="c4b743fb-f292-479f-be9d-12ec8c585548" cx="383.27" cy="211.68" r="25.7" gradientTransform="matrix(1, 0, 0, 1, 0, 0)" xlink:href="#b1d3b2f0-cc62-4072-a768-0784003a3167"/><linearGradient id="2d33a2f5-a11f-4e26-a7ff-e5725095693c" x1="277.36" y1="245.43" x2="415.33" y2="214.51" xlink:href="#ba7296e3-ea41-4ee8-8b4a-ab285b3529e1"/><linearGradient id="4ea7cd7c-efa1-46d5-9163-745b2f760757" x1="236.85" y1="25.73" x2="446.36" y2="-21.23" gradientTransform="translate(-119.91 164.02) rotate(-2.18)" xlink:href="#be1dc7fd-436f-447a-841f-20d8e6872efb"/><radialGradient id="d3cb55ca-d039-4138-8625-cc264079fdbd" cx="239.13" cy="137.14" r="16.23" gradientTransform="matrix(1, 0, 0, 1, 0, 0)" xlink:href="#b1d3b2f0-cc62-4072-a768-0784003a3167"/><linearGradient id="baaf7f00-b563-4ddd-856e-e9191c2ac3e3" x1="145.34" y1="175.87" x2="300.62" y2="141.06" xlink:href="#ba7296e3-ea41-4ee8-8b4a-ab285b3529e1"/><clipPath id="6289612b-5d2c-4f09-8c4b-325f1dd2d00a"><path class="ef1ed2e3-744b-4ee2-9ea2-bafa3aeb2063" d="M314.45,170.26c30.17-16.44,61.67-25,90.74-26.67a1.83,1.83,0,0,0,.8-3.41l-5.13-2.94c-2.94-1.68-4.29-60.11-7.64-60.59-72-10.31-60.88,22.53-89.06,37.64-2.29,1.23-1.48,51.22.55,52.86l3.15,2.55A5.94,5.94,0,0,0,314.45,170.26Z"/></clipPath><linearGradient id="c6cfb756-1e74-4a21-80a1-1459db18b5dc" x1="8293.05" y1="81.64" x2="8340.35" y2="167.92" gradientTransform="matrix(-1, 0, 0, 1, 8663.75, 0)" gradientUnits="userSpaceOnUse"><stop offset="0" stop-color="#ffbb96"/><stop offset="0.23" stop-color="#fffbc9"/><stop offset="0.54" stop-color="#f9b673"/><stop offset="0.64" stop-color="#f9b876"/><stop offset="0.72" stop-color="#fabe81"/><stop offset="0.81" stop-color="#fcc993"/><stop offset="0.86" stop-color="#fed2a3"/><stop offset="0.97" stop-color="#ffc28c"/></linearGradient><linearGradient id="ed4d53ac-b13c-4f04-baad-b3df5d5fc47d" x1="326.7" y1="169" x2="337.54" y2="137.95" gradientUnits="userSpaceOnUse"><stop offset="0" stop-color="#231f20"/><stop offset="0.06" stop-color="#4a4747"/><stop offset="0.14" stop-color="#747272"/><stop offset="0.22" stop-color="#9a9898"/><stop offset="0.3" stop-color="#b9b8b8"/><stop offset="0.4" stop-color="#d3d2d2"/><stop offset="0.5" stop-color="#e6e6e6"/><stop offset="0.62" stop-color="#f4f4f4"/><stop offset="0.76" stop-color="#fdfdfd"/><stop offset="1" stop-color="#fff"/></linearGradient><linearGradient id="2149924a-f263-4c9e-883a-6da1167c7830" x1="8287.37" y1="136.78" x2="8397.85" y2="103.7" gradientTransform="matrix(-1, 0, 0, 1, 8663.75, 0)" gradientUnits="userSpaceOnUse"><stop offset="0.04" stop-color="#ffba78"/><stop offset="0.4" stop-color="#ffc987"/><stop offset="1" stop-color="#feeca8"/></linearGradient><linearGradient id="007f9b47-87f9-436c-9eef-e90f0a016bed" x1="333.9" y1="147.64" x2="444.05" y2="81.25" gradientTransform="translate(292.19 -245.5) rotate(59.69)" xlink:href="#2149924a-f263-4c9e-883a-6da1167c7830"/><linearGradient id="2d5b48fe-11bf-4fce-937d-fad464a64eec" x1="8298.69" y1="164.52" x2="8304.5" y2="112.43" xlink:href="#c6cfb756-1e74-4a21-80a1-1459db18b5dc"/><radialGradient id="874222f7-4786-46da-9217-d5ff936dd791" cx="16513.54" cy="5663.81" r="46.37" gradientTransform="matrix(-0.28, -0.25, -0.44, 0.49, 7497.53, 1463.01)" gradientUnits="userSpaceOnUse"><stop offset="0" stop-color="#f49587"/><stop offset="0.12" stop-color="#bd7368"/><stop offset="0.24" stop-color="#8b554d"/><stop offset="0.36" stop-color="#603b35"/><stop offset="0.48" stop-color="#3e2622"/><stop offset="0.61" stop-color="#231513"/><stop offset="0.74" stop-color="#0f0908"/><stop offset="0.86" stop-color="#040202"/><stop offset="1"/></radialGradient><linearGradient id="db4e30b3-3a9e-4ce0-810d-704d9d503eb8" x1="8303.09" y1="76.14" x2="8350.09" y2="161.86" xlink:href="#c6cfb756-1e74-4a21-80a1-1459db18b5dc"/><radialGradient id="3e6885ac-a558-4ab9-adee-eaaaa487f007" cx="8315.19" cy="115.21" r="37.83" gradientTransform="matrix(-1, 0, 0, 1, 8663.75, 0)" xlink:href="#b1d3b2f0-cc62-4072-a768-0784003a3167"/><linearGradient id="6afa73cc-3dec-4b56-9972-52f68050fd00" x1="340.82" y1="107.01" x2="367.81" y2="142.73" gradientTransform="matrix(1, 0, 0, 1, 0, 0)" xlink:href="#c6cfb756-1e74-4a21-80a1-1459db18b5dc"/><linearGradient id="c0b60943-5cad-4e8b-96d9-49b72376b3a1" x1="350.72" y1="131.99" x2="371.98" y2="131.99" gradientTransform="matrix(1, 0, 0, 1, 0, 0)" xlink:href="#2149924a-f263-4c9e-883a-6da1167c7830"/><radialGradient id="dbf9c514-576b-4858-a089-c18c0f228b6e" cx="372.21" cy="117.09" r="33.2" gradientTransform="matrix(1, 0, 0, 1, 0, 0)" xlink:href="#874222f7-4786-46da-9217-d5ff936dd791"/><linearGradient id="948037fb-bcf1-46a5-8e46-65d13a63d373" x1="363.2" y1="160.49" x2="355.23" y2="133.57" xlink:href="#ed4d53ac-b13c-4f04-baad-b3df5d5fc47d"/></defs><title>menuestado</title><g class="1d86bc8f-4c11-4e10-a804-d14de37e3bf4"><g id="3586abbf-2918-4fce-b5d2-cd5dbf0abc33" data-name="Layer 1"><ellipse class="d968cd95-dbcb-4abe-a223-c457268f3be4" cx="343.81" cy="350.15" rx="174.55" ry="120.01" transform="translate(-93.79 128.09) rotate(-18.62)"/><ellipse class="39b94d24-d4ba-4c7a-9053-d7e4e365aa2b" cx="343.54" cy="349.67" rx="171.73" ry="118.07" transform="translate(-93.65 127.97) rotate(-18.62)"/><ellipse class="360f4748-681c-4d23-91d1-0cea27277ae5" cx="343.27" cy="349.18" rx="168.91" ry="116.13" transform="translate(-93.51 127.86) rotate(-18.62)"/><ellipse class="0dd7f3dc-aaea-49a9-a3ce-f41d055dfdce" cx="342.99" cy="348.7" rx="166.09" ry="114.19" transform="translate(-93.37 127.75) rotate(-18.62)"/><ellipse class="8add2a8b-6d0e-4c6c-a7a7-5db73362c955" cx="342.72" cy="348.22" rx="163.28" ry="112.25" transform="translate(-93.23 127.64) rotate(-18.62)"/><ellipse class="fa1ca947-51c3-4b8c-8f37-d043f5a67142" cx="342.44" cy="347.73" rx="160.46" ry="110.32" transform="translate(-93.09 127.52) rotate(-18.62)"/><ellipse class="15dacb1f-cdc2-4a00-aac7-dc05ef999e0a" cx="342.17" cy="347.25" rx="157.64" ry="108.38" transform="translate(-92.95 127.41) rotate(-18.62)"/><ellipse class="9aff9dbd-952c-40e6-8b10-2711d5c08f90" cx="341.9" cy="346.76" rx="154.82" ry="106.44" transform="translate(-92.81 127.3) rotate(-18.62)"/><ellipse class="aa2014b9-a80d-47cb-bf34-12824a43346e" cx="341.62" cy="346.28" rx="152" ry="104.5" transform="translate(-92.67 127.18) rotate(-18.62)"/><ellipse class="0721b8cd-b6c2-44b5-abef-312f5af6aa23" cx="341.35" cy="345.8" rx="149.18" ry="102.56" transform="translate(-92.53 127.07) rotate(-18.62)"/><ellipse class="ecc80fb1-765c-426f-bc8e-cd30f8368732" cx="341.07" cy="345.31" rx="146.36" ry="100.63" transform="translate(-92.39 126.96) rotate(-18.62)"/><ellipse class="7600c71b-d463-4c30-a6d1-6bff0723c75f" cx="340.8" cy="344.83" rx="143.54" ry="98.69" transform="translate(-92.25 126.85) rotate(-18.62)"/><ellipse class="56371206-524c-4d4d-9ee2-b117b665251b" cx="340.53" cy="344.34" rx="140.72" ry="96.75" transform="translate(-92.11 126.73) rotate(-18.62)"/><ellipse class="17bcf1a3-5ed3-4e48-b879-b951f5c408e0" cx="340.25" cy="343.86" rx="137.9" ry="94.81" transform="translate(-91.97 126.62) rotate(-18.62)"/><ellipse class="11d4fa5b-b988-4b34-8a06-5c1b0abdd27d" cx="339.98" cy="343.38" rx="135.08" ry="92.87" transform="translate(-91.83 126.51) rotate(-18.62)"/><ellipse class="ab902480-9661-474a-8871-0b867cc29c10" cx="339.7" cy="342.89" rx="132.26" ry="90.93" transform="translate(-91.69 126.39) rotate(-18.62)"/><ellipse class="2c9a4ca4-f30a-4766-a75c-dd79dc125de3" cx="339.43" cy="342.41" rx="129.45" ry="89" transform="translate(-91.55 126.28) rotate(-18.62)"/><ellipse class="8f46af53-85f9-47a3-956b-4207fc771fb6" cx="339.16" cy="341.92" rx="126.63" ry="87.06" transform="translate(-91.41 126.17) rotate(-18.62)"/><ellipse class="2266b1f9-c376-4b1c-a1f3-4b3c7f278a91" cx="338.88" cy="341.44" rx="123.81" ry="85.12" transform="translate(-91.27 126.05) rotate(-18.62)"/><ellipse class="884a82b7-5531-4b34-88a4-f858aa4531f1" cx="338.61" cy="340.96" rx="120.99" ry="83.18" transform="translate(-91.13 125.94) rotate(-18.62)"/><ellipse class="4b9ffc7c-e3bb-42a4-a539-d5d45c4f2530" cx="338.33" cy="340.47" rx="118.17" ry="81.24" transform="translate(-90.99 125.83) rotate(-18.62)"/><ellipse class="86650769-0977-451c-be13-dd58cc14fd89" cx="338.06" cy="339.99" rx="115.35" ry="79.31" transform="translate(-90.85 125.72) rotate(-18.62)"/><path class="098feb01-0e3f-4409-b898-2102e12543b6" d="M485.39,190.85c-3.67,7.2-20.46,22.68-25.73,18.53s-4.79-20.24,12.51-25.77c8.8-2.8,3.46-13.25,8.1-12.51C487.47,172.26,489.84,182.14,485.39,190.85Z"/><path class="56580b55-3c7c-4bc8-a0c7-e6b152a978c9" d="M474.92,271.58H401.45l7.35,98.1h0v.24c0,9.45,13.16,17.11,29.38,17.11s29.39-7.66,29.39-17.11v-.24h0Z"/><path class="437f50e9-b34e-4ed3-94d1-0036dabe085c" d="M474.92,271.58H401.45l7.35,98.1h0v.24c0,9.45,13.16,17.11,29.38,17.11s29.39-7.66,29.39-17.11v-.24h0Z"/><path class="c386d6ee-ac91-4eec-94af-1f2a06a50952" d="M334.94,350.33H261.48l7.35,98.09h0v.24c0,9.45,13.15,17.11,29.38,17.11s29.39-7.66,29.39-17.11v-.24h0Z"/><path class="c30256b5-b60a-4a63-9db1-da17babae04a" d="M334.94,350.33H261.48l7.35,98.09h0v.24c0,9.45,13.15,17.11,29.38,17.11s29.39-7.66,29.39-17.11v-.24h0Z"/><path class="0de0399e-d304-43f9-9f6d-299c635bb9b5" d="M251.44,301H178l7.35,98.1h0v.23c0,9.45,13.16,17.11,29.39,17.11s29.38-7.66,29.38-17.11v-.23h0Z"/><path class="1e09cb47-6e86-47a5-8cca-d5d502739315" d="M251.44,301H178l7.35,98.1h0v.23c0,9.45,13.16,17.11,29.39,17.11s29.38-7.66,29.38-17.11v-.23h0Z"/><g class="e952ec89-fff7-4555-a733-f068f1066ae0"><path class="f73d3576-7374-4f31-a948-ceefd42f7da3" d="M469.22,347.65l5.7-76.07H401.45l7.35,98.1h0v.24c0,7,7.28,13.05,17.68,15.69A205.36,205.36,0,0,0,469.22,347.65Z"/><path class="cdba3b0a-95ee-4fd2-a1a5-8b2e3548d0b6" d="M230.59,413.7c8.11-3.05,13.5-8.35,13.5-14.39v-.23h0l7.35-98.1H178l5.86,78.22C195.36,394.13,211.45,405.77,230.59,413.7Z"/><path class="10ce172b-0bb3-4b70-9869-7272adf1c8b7" d="M329.47,423.39l5.47-73.06H261.48L267,423.7A205.11,205.11,0,0,0,329.47,423.39Z"/></g><ellipse class="8cf7563e-8ec8-4595-b6e3-4e35b7ad8d9d" cx="324.4" cy="263.95" rx="167.71" ry="144.99" transform="translate(-90.07 208.08) rotate(-31.46)"/><path class="3e82492f-7d47-441c-98f6-be01ebe512b7" d="M305.72,263.71c1.64,7.91-3.13,15.59-10.65,17.14s-14.94-3.59-16.58-11.51,3.13-15.58,10.65-17.14S304.08,255.8,305.72,263.71Z"/><path class="390f2b75-ead6-4730-a5ab-cd5357c9d0b5" d="M274.15,357.6c0,11.12-4.72,19.18-12.39,23.29,0,0-22.44,12.42-22.68,12.54-8,3.94-2.88-4.5-15-9.72-24.4-10.52-44.18-37.5-44.18-60.28,0-11.26-12.8-10.85-5-14.92l20.72-10.72c8-3.82,18.84-3.59,30.84,1.58C250.9,309.88,274.15,334.82,274.15,357.6Z"/><path class="bffc0971-90c5-4bc3-be26-43a8e86077af" d="M250.36,370.46c0,22.78-19.78,32.71-44.18,22.2S162,355.16,162,332.39s19.78-32.72,44.18-22.2S250.36,347.69,250.36,370.46Z"/><path class="6723e260-d152-47f1-9680-8a4e05f3c5b9" d="M195.53,337.31c0,4.2-3.65,6-8.15,4.1s-8.15-6.92-8.15-11.12,3.65-6,8.15-4.1S195.53,333.11,195.53,337.31Z"/><path class="52201f10-ffc5-4a03-bebe-08292d0ee1c5" d="M230.74,357.16c0,4.2-3.65,6-8.15,4.09s-8.15-6.92-8.15-11.12,3.65-6,8.15-4.1S230.74,353,230.74,357.16Z"/><path class="a849185d-afcc-4cc8-b097-3c471c87d817" d="M187.38,326.19a8.19,8.19,0,0,0-3.83-.72,5.6,5.6,0,0,0-.37,2c0,4.21,3.65,9.19,8.15,11.13a8.19,8.19,0,0,0,3.83.72,5.65,5.65,0,0,0,.37-2C195.53,333.11,191.88,328.13,187.38,326.19Z"/><path class="47167d93-768d-449a-ad3c-8d616dbbee5d" d="M222.59,346a8.32,8.32,0,0,0-3.83-.72,5.7,5.7,0,0,0-.37,2c0,4.2,3.65,9.18,8.15,11.12a8.19,8.19,0,0,0,3.83.72,5.6,5.6,0,0,0,.37-2C230.74,353,227.09,348,222.59,346Z"/><path class="2014ef01-65ae-4dd1-87c0-33fa4d24dbeb" d="M208.15,309.14c-11.76-5.07-22.44-5.4-30.38-1.86,7.4-2,16.59-1.07,26.55,3.22,24.52,10.57,44.41,37.69,44.41,60.59,0,11.92-5.4,20.33-14,24.17,10.84-2.89,17.86-11.93,17.86-25.53C252.56,346.83,232.68,319.71,208.15,309.14Z"/><path class="bb511ae6-d2e2-40b5-b4cd-7c1f871c328f" d="M216.7,247.91c-5,6.34-13.32,8.12-18.59,4s-5.49-12.66-.49-19,13.32-8.12,18.59-4S221.7,241.56,216.7,247.91Z"/><path class="fbda7602-a3db-477d-806a-c364a2a2c5ef" d="M314.45,170.26c30.17-16.44,61.67-25,90.74-26.67a1.83,1.83,0,0,0,.8-3.41l-5.13-2.94a16.44,16.44,0,0,0-9.69-2.15,226.68,226.68,0,0,0-85.93,26,3.66,3.66,0,0,0-.53,6.06l3.15,2.55A5.94,5.94,0,0,0,314.45,170.26Z"/><ellipse class="b2693ad5-a79c-4773-ba26-bdc2fe40b987" cx="279.49" cy="241.77" rx="120.91" ry="97.17" transform="translate(-89.49 262.29) rotate(-44.04)"/><path class="870c6b0d-e3a1-4d8c-a698-2c37354594cb" d="M361.87,276a74.33,74.33,0,0,0,24.94-22.64c9.37-13.39-.89-75-22.81-76.84C354.58,175.73,361.87,276,361.87,276Z"/><path class="73c4b55e-49d7-4226-829e-9732773c1266" d="M255,179.25s15.4-8.8,15-18.75c-.43-11.29-19.51-47.91-37.75-44.48S255,179.25,255,179.25Z"/><path class="9e2c5913-5480-48b2-b702-7047d616dbe7" d="M311.28,206.69s16.81,14.79,28.85,32A295.52,295.52,0,0,1,361.87,276s20.53-80.35,8-96S311.28,206.69,311.28,206.69Z"/><path class="96c4526f-4367-48e4-a0d9-61fa4d78b965" d="M369.91,180a9,9,0,0,0-5.92-3.32,8.82,8.82,0,0,1,2.61,2.21c10.88,13.68-3.3,76.4-7.13,92.34,1.54,3,2.4,4.81,2.4,4.81S382.4,195.64,369.91,180Z"/><path class="17f9e397-a922-4a55-847f-7dac5cdb71ad" d="M319.1,214.12a191.63,191.63,0,0,1,21,24.59,271.24,271.24,0,0,1,14.35,23.14c3.74-16.49,11.46-54.93,4.19-64.06S328.53,206.17,319.1,214.12Z"/><path class="4fa8b9a1-01fb-4867-ba4e-3334e0c06893" d="M194.87,189.74s15.39-10.91,32.9-12.75c11.66-1.22,27.27,2.26,27.27,2.26s-2.41-62.94-22.73-63.23C210,115.69,194.87,189.74,194.87,189.74Z"/><path class="c6c6de33-358c-4fa3-a965-c46b406bf2c5" d="M229.55,116.57c18.75.27,22.25,53.82,22.68,62.12,1.75.32,2.81.56,2.81.56s-2.41-62.94-22.73-63.23a10.58,10.58,0,0,0-3.58.62C229,116.62,229.28,116.57,229.55,116.57Z"/><path class="ae92d71b-b8b2-4e5a-b5ab-174e58973c19" d="M227.77,177c6.84-.72,15,.18,20.63,1-.74-11-4.19-46.17-17.64-46.37-14.61-.21-25.31,40.3-28.43,53.62C208.48,182,217.77,178,227.77,177Z"/><path class="7509ef81-a6f0-4861-a034-3a2d09788e65" d="M292.43,260.14a3.35,3.35,0,1,1-4-2.78A3.44,3.44,0,0,1,292.43,260.14Z"/><path class="7509ef81-a6f0-4861-a034-3a2d09788e65" d="M208.45,236.57a2.83,2.83,0,1,1-.11-4.35A3.1,3.1,0,0,1,208.45,236.57Z"/><g class="d19ad4c1-7c1d-4673-a5cb-e81f8d4d5c00"><path class="d191d7ae-2998-4265-9d7f-16e38e17ab15" d="M313.58,145.29c0,10.84,3.74,18.52,9.82,22.23L334,174.05c6.33,3.53,2.28-4.49,11.89-10,19.33-11.16,35-38.2,35-60.38,0-11,10.14-11.06,3.93-14.73-.18-.1-11.59-6.6-11.77-6.69-6.31-3.42-14.93-2.79-24.44,2.7C329.26,96.07,313.58,123.11,313.58,145.29Z"/><path class="7fcc55af-0f3a-45e9-9e1b-946218d7b8bb" d="M314.09,138.39a52.79,52.79,0,0,0-.51,6.9c0,10.84,3.74,18.52,9.82,22.23L334,174.05c6.33,3.53,2.28-4.49,11.89-10a55.07,55.07,0,0,0,7.8-5.54Z"/><path class="50485d01-5a69-454b-99c4-dd7671014011" d="M325,152.1c0,22.18,15.68,31.12,35,20s35-38.2,35-60.39-15.67-31.12-35-20S325,129.91,325,152.1Z"/><ellipse class="9b4ed767-b205-4c70-aee6-592261b84de3" cx="360.04" cy="131.89" rx="36.49" ry="21.07" transform="translate(64.48 376.15) rotate(-59.69)"/><path class="35e0c910-ad33-48e5-9d59-3a4150594afc" d="M357.65,159.32c14.29-8.25,25.88-28.24,25.88-44.65,0-5.87-1.5-10.46-4.06-13.59,4,2.92,6.46,8.35,6.46,15.86,0,16.41-11.59,36.39-25.89,44.65-9.18,5.3-17.22,4.44-21.82-1.17C343,163.87,349.9,163.79,357.65,159.32Z"/><g class="e952ec89-fff7-4555-a733-f068f1066ae0"><path class="a15565fb-8152-4f88-bafa-38b962b371a1" d="M347.83,85.39c.25-.15.5-.33.76-.48s.46-.23.7-.36l11.63,6.71c-.3.16-.58.28-.88.45s-.4.27-.6.39Z"/><path class="a15565fb-8152-4f88-bafa-38b962b371a1" d="M360.51,80.46l11.73,6.77c-.72.11-1.45.26-2.18.43l-11.74-6.77C359.06,80.71,359.79,80.58,360.51,80.46Z"/><path class="a15565fb-8152-4f88-bafa-38b962b371a1" d="M341,90.3,352.54,97c-.39.33-.77.68-1.16,1l-11.59-6.69C340.18,91,340.56,90.63,341,90.3Z"/><path class="a15565fb-8152-4f88-bafa-38b962b371a1" d="M328.29,104.11l11.55,6.67c-.29.4-.56.8-.84,1.21l-11.55-6.67C327.73,104.92,328,104.51,328.29,104.11Z"/><path class="a15565fb-8152-4f88-bafa-38b962b371a1" d="M334.1,96.91l11.57,6.67c-.34.37-.66.75-1,1.12L333.11,98C333.44,97.65,333.77,97.27,334.1,96.91Z"/><path class="a15565fb-8152-4f88-bafa-38b962b371a1" d="M323.36,111.83l11.53,6.66c-.24.43-.46.86-.69,1.29l-11.54-6.66C322.9,112.69,323.12,112.26,323.36,111.83Z"/><path class="a15565fb-8152-4f88-bafa-38b962b371a1" d="M315.59,157.44,326.94,164c.28.76.57,1.51.9,2.21l-11.31-6.53C316.18,159,315.88,158.21,315.59,157.44Z"/><path class="a15565fb-8152-4f88-bafa-38b962b371a1" d="M325.07,153c0,.59.05,1.16.08,1.73l-11.45-6.61c0-.56-.06-1.14-.07-1.73Z"/><path class="a15565fb-8152-4f88-bafa-38b962b371a1" d="M314.1,138.36c.07-.53.11-1.05.19-1.58l11.49,6.63c-.09.53-.14,1.05-.21,1.57Z"/><path class="a15565fb-8152-4f88-bafa-38b962b371a1" d="M327.86,134.66c-.15.49-.27,1-.41,1.46L316,129.48c.14-.49.25-1,.4-1.46Z"/><path class="a15565fb-8152-4f88-bafa-38b962b371a1" d="M318.83,121.19c.19-.46.36-.92.55-1.37l11.52,6.64c-.2.46-.37.92-.56,1.37Z"/></g><path class="42ec962c-7510-40f8-9b6a-df3d835d614b" d="M335.69,95.07c-11.34,12.66-14.7,28.15-7.51,34.6s22.23,1.41,33.57-11.25,14.71-28.16,7.51-34.6S347,82.41,335.69,95.07Z"/><path class="c4dd0250-d9f8-447b-8397-0b94b382b219" d="M348.59,84.91c9.51-5.49,18.13-6.12,24.44-2.7l1.58.87c-6.16-2.62-14.18-1.75-23,3.34-19.33,11.16-35,38.2-35,60.38,0,10.84,3.75,18.52,9.82,22.23.15.09-2.84-1.4-3-1.51-6.08-3.71-9.82-11.39-9.82-22.23C313.58,123.11,329.26,96.07,348.59,84.91Z"/><path class="135276ab-3c81-46ee-b43a-473d6e65703e" d="M358.51,90.72c9.27-5.35,17.54-5.92,23.8-2.79-5.84-1.63-13.08-.41-20.93,4.12-19.33,11.16-35,38.2-35,60.38,0,11.56,4.25,19.5,11.05,22.9-8.54-2.39-13.93-11-13.93-24.22C323.5,128.92,339.17,101.88,358.51,90.72Z"/><path class="2c6496fc-8e51-41f0-893a-bd1d2b0b7a07" d="M366.52,120.55a1.44,1.44,0,0,0-.65-.18,8.39,8.39,0,0,0-1.39,0,15.74,15.74,0,0,0-1.86.22,10.46,10.46,0,0,0-2.08.62V127l1.2-.35a24.43,24.43,0,0,1,3.44-.68,5.24,5.24,0,0,1,2.6.26,3.12,3.12,0,0,1,1.64,1.6,7.45,7.45,0,0,1,.58,3.27,13.81,13.81,0,0,1-.75,4.59,15.84,15.84,0,0,1-2,4,19.34,19.34,0,0,1-2.87,3.32,23.83,23.83,0,0,1-3.42,2.61v5l-2.58,1.49v-5a22,22,0,0,1-5.11,1.75,11.87,11.87,0,0,1-4.53.13l2.68-7.69a2,2,0,0,0,.81.25,7.72,7.72,0,0,0,1.66.06,15,15,0,0,0,2.28-.28,13.16,13.16,0,0,0,2.61-.8v-5.71l-1.78.44a16.88,16.88,0,0,1-3.19.44,4.4,4.4,0,0,1-2.22-.45,2.89,2.89,0,0,1-1.3-1.52,7.29,7.29,0,0,1-.43-2.76,14.31,14.31,0,0,1,.67-4.35,18.48,18.48,0,0,1,1.81-4A19.05,19.05,0,0,1,355,119a22.63,22.63,0,0,1,3.35-2.86v-4.33l2.58-1.49v4.33a14.88,14.88,0,0,1,4.55-1.39,20.1,20.1,0,0,1,3.71-.12Zm-10.35,5.59c0,.72.22,1.15.66,1.32a3.68,3.68,0,0,0,1.95,0v-5.27C357.05,123.32,356.17,124.66,356.17,126.14Zm7.25,9.45c0-.74-.26-1.17-.78-1.28a5.66,5.66,0,0,0-2.1.07v5.15Q363.42,137.73,363.42,135.59Z"/><path class="1fbf9b77-bf0b-47cc-a27d-8f9a6ecd57c7" d="M368.5,121.34a1.44,1.44,0,0,0-.65-.18,7.46,7.46,0,0,0-1.38,0,12.54,12.54,0,0,0-1.87.22,10.61,10.61,0,0,0-2.08.61v5.84l1.2-.35a26,26,0,0,1,3.44-.68,5.24,5.24,0,0,1,2.6.26,3.12,3.12,0,0,1,1.64,1.6,7.45,7.45,0,0,1,.58,3.27,14.07,14.07,0,0,1-.74,4.59,16.46,16.46,0,0,1-2,4,19.27,19.27,0,0,1-2.87,3.31,23.91,23.91,0,0,1-3.42,2.62v5l-2.58,1.49v-5a22,22,0,0,1-5.11,1.75,11.87,11.87,0,0,1-4.53.13L353.4,142a2.36,2.36,0,0,0,.81.24,7.7,7.7,0,0,0,1.67.07,17.91,17.91,0,0,0,2.27-.28,14.24,14.24,0,0,0,2.62-.81v-5.7L359,136a16.1,16.1,0,0,1-3.19.44,4.34,4.34,0,0,1-2.21-.45,2.9,2.9,0,0,1-1.31-1.52,7.24,7.24,0,0,1-.43-2.75,14.33,14.33,0,0,1,.67-4.36,18.48,18.48,0,0,1,1.81-4,19.86,19.86,0,0,1,2.69-3.5,23.25,23.25,0,0,1,3.35-2.86v-4.33l2.58-1.49v4.33a14.65,14.65,0,0,1,4.55-1.38,19.35,19.35,0,0,1,3.71-.13Zm-10.35,5.59q0,1.08.66,1.32a3.72,3.72,0,0,0,2,0v-5.27C359,124.11,358.15,125.45,358.15,126.93Zm7.25,9.46q0-1.11-.78-1.29a5.66,5.66,0,0,0-2.1.07v5.15C364.45,139.13,365.4,137.82,365.4,136.39Z"/><g class="54660f14-6770-451d-9e11-3e4457733977"><path class="30a7e271-fb34-4fba-b16f-9413af9a1f23" d="M368.5,121.34a1.44,1.44,0,0,0-.65-.18,7.46,7.46,0,0,0-1.38,0,12.54,12.54,0,0,0-1.87.22,10.61,10.61,0,0,0-2.08.61v5.84l1.2-.35a26,26,0,0,1,3.44-.68,5.24,5.24,0,0,1,2.6.26,3.12,3.12,0,0,1,1.64,1.6,7.45,7.45,0,0,1,.58,3.27,14.07,14.07,0,0,1-.74,4.59,16.46,16.46,0,0,1-2,4,19.27,19.27,0,0,1-2.87,3.31,23.91,23.91,0,0,1-3.42,2.62v5l-2.58,1.49v-5a22,22,0,0,1-5.11,1.75,11.87,11.87,0,0,1-4.53.13L353.4,142a2.36,2.36,0,0,0,.81.24,7.7,7.7,0,0,0,1.67.07,17.91,17.91,0,0,0,2.27-.28,14.24,14.24,0,0,0,2.62-.81v-5.7L359,136a16.1,16.1,0,0,1-3.19.44,4.34,4.34,0,0,1-2.21-.45,2.9,2.9,0,0,1-1.31-1.52,7.24,7.24,0,0,1-.43-2.75,14.33,14.33,0,0,1,.67-4.36,18.48,18.48,0,0,1,1.81-4,19.86,19.86,0,0,1,2.69-3.5,23.25,23.25,0,0,1,3.35-2.86v-4.33l2.58-1.49v4.33a14.65,14.65,0,0,1,4.55-1.38,19.35,19.35,0,0,1,3.71-.13Zm-10.35,5.59q0,1.08.66,1.32a3.72,3.72,0,0,0,2,0v-5.27C359,124.11,358.15,125.45,358.15,126.93Zm7.25,9.46q0-1.11-.78-1.29a5.66,5.66,0,0,0-2.1.07v5.15C364.45,139.13,365.4,137.82,365.4,136.39Z"/></g><path class="a922cb1d-9491-4c3b-bcd6-2e57189d2fd5" d="M325.17,155.22a32,32,0,0,0,2.1,9.61,266.92,266.92,0,0,1,57-17.9,82.94,82.94,0,0,0,7.49-16.28,275.6,275.6,0,0,0-66.06,20.11C325.43,152.26,325.28,153.74,325.17,155.22Z"/></g></g></g></svg>