<svg id="944fd1b4-1fb2-413b-84ec-613032a3a824" data-name="Layer 1" xmlns="http://www.w3.org/2000/svg" xmlns:xlink="http://www.w3.org/1999/xlink" viewBox="0 0 495.13 511.04"><defs><style>.ffd43196-25db-48e6-8159-8056f708f529{fill:#e3dfea;}.\38 213c559-300d-411d-ab27-5387a759488a{fill:#ff9d4d;}.\32 53a644a-fd75-4c93-b249-0ca9d7192f8d{fill:#ffe840;}.\32 b6d6b4c-2381-4135-9070-b4e140d262d2{fill:#d1975d;}.\30 2a5b961-26d6-4426-a9a6-3009b6b83c4d{fill:url(#4b7adc2c-8bc1-4c83-a913-8aa985adacc9);}.cebff768-5fcc-4a26-afcd-085beef99a3a{fill:url(#13088b95-8ccb-44ac-a021-9ab405fff38c);}.\30 e2d4e56-6d4d-43a9-b36c-4821b4bbc049{fill:url(#70727e4e-6133-4ce5-a79a-8bb5a204c43a);}.d320ce0a-260b-40f2-b00a-af7156a5458d{fill:#7b5baa;}.dc9d3063-c8b1-4ae3-8c1d-4122b849a260{fill:url(#79aabc45-9d14-4274-8974-13246022c16a);}.\31 c9bbbac-00bd-455c-861e-be5fe4323ff1{fill:url(#6d1d837e-b682-4206-a4dd-f4dda9a6dc21);}.ac441815-1870-4a3a-834e-78bb1a8db939{fill:#704e34;}.cbf205b4-0e41-466f-9f99-2b2d01070471{fill:#efc392;}.a93f03ac-a723-47aa-af04-7b9d9f3586cc{fill:#ffd89f;}.\30 74e66da-c476-4f58-8c61-ff4886df81bb{fill:#89603e;}.\35 87b9cb3-a519-4a05-b5c8-da1da0a64783{fill:#1a142d;}.\35 b85fd15-0ddb-495f-9b7f-aae8c3611c42{fill:#634d99;}.\35 ba49294-a465-4a97-94b4-78a34c0627a7{fill:#fff;}.\35 e47afe7-1ff1-44c1-96c6-84058ff28e96{fill:#bf89ef;}.ea05ba6a-f064-47b5-9ae3-be5ff5d62691{fill:url(#b936b555-71b4-4d42-916d-549083062d0f);}.ac8c628d-7a41-426c-8c65-f71f887eeb13{fill:#00cbfc;}.d8bba9a0-5419-4ba4-9b2d-2bcba51f6a6d{fill:url(#0b145989-25fe-4699-9688-70699773c7aa);}</style><linearGradient id="4b7adc2c-8bc1-4c83-a913-8aa985adacc9" x1="182.46" y1="280.04" x2="259.85" y2="280.04" gradientUnits="userSpaceOnUse"><stop offset="0" stop-color="#6a5ebf"/><stop offset="1" stop-color="#6e3aa5"/></linearGradient><linearGradient id="13088b95-8ccb-44ac-a021-9ab405fff38c" x1="211.51" y1="290.73" x2="290.9" y2="290.73" gradientUnits="userSpaceOnUse"><stop offset="0" stop-color="#2e256b"/><stop offset="1" stop-color="#5a3087"/></linearGradient><linearGradient id="70727e4e-6133-4ce5-a79a-8bb5a204c43a" x1="211.56" y1="289.23" x2="283.27" y2="289.23" xlink:href="#4b7adc2c-8bc1-4c83-a913-8aa985adacc9"/><linearGradient id="79aabc45-9d14-4274-8974-13246022c16a" x1="200.87" y1="168.01" x2="263.67" y2="168.01" xlink:href="#4b7adc2c-8bc1-4c83-a913-8aa985adacc9"/><linearGradient id="6d1d837e-b682-4206-a4dd-f4dda9a6dc21" x1="236.37" y1="187.25" x2="299.87" y2="187.25" xlink:href="#13088b95-8ccb-44ac-a021-9ab405fff38c"/><linearGradient id="b936b555-71b4-4d42-916d-549083062d0f" x1="237.6" y1="188.91" x2="304.79" y2="188.91" xlink:href="#4b7adc2c-8bc1-4c83-a913-8aa985adacc9"/><linearGradient id="0b145989-25fe-4699-9688-70699773c7aa" x1="159.8" y1="203.98" x2="232.51" y2="203.98" xlink:href="#13088b95-8ccb-44ac-a021-9ab405fff38c"/></defs><title>Artboard 2 copy 2</title><ellipse class="ffd43196-25db-48e6-8159-8056f708f529" cx="257.76" cy="342.13" rx="104.2" ry="60.16"/><path class="8213c559-300d-411d-ab27-5387a759488a" d="M325.22,323.08v10.79h0v1.49h-.06a20.61,20.61,0,0,1-3.12,9.18c-.22.34-.44.69-.68,1a34.73,34.73,0,0,1-9.52,9l-.67.45c-.66.42-1.34.83-2.05,1.24a60,60,0,0,1-7.47,3.62l-.68.26a72.11,72.11,0,0,1-9.51,3l-.68.16a86.35,86.35,0,0,1-9.52,1.65l-.67.07a91.27,91.27,0,0,1-9.52.56h-.67a94.23,94.23,0,0,1-9.52-.47l-.68-.06a89.34,89.34,0,0,1-9.51-1.54l-.68-.15a75.55,75.55,0,0,1-9.52-2.82l-.67-.26a59.28,59.28,0,0,1-8.46-4l-1.06-.63-.67-.41a36.78,36.78,0,0,1-9.52-8.35c-.24-.3-.46-.6-.68-.9a21.14,21.14,0,0,1-4.11-10.66h-.06V323.08h3.26c.29-.45.59-.91.91-1.35s.44-.6.68-.9A29.78,29.78,0,0,1,223,317.6a38.84,38.84,0,0,1,4.5-3.71q1.78-1.27,3.84-2.46c21.47-12.4,56.29-12.4,77.76,0q2.06,1.19,3.84,2.46a39.71,39.71,0,0,1,4.5,3.71,30.57,30.57,0,0,1,3.9,4.57l.6.91Z"/><path class="253a644a-fd75-4c93-b249-0ca9d7192f8d" d="M270.24,302.8c14.57,0,28.26,3.27,38.54,9.21,1.34.77,2.61,1.59,3.79,2.43a38.16,38.16,0,0,1,4.42,3.65,28.61,28.61,0,0,1,3.82,4.47c.19.27.38.56.57.88l.2.32h3v10.93h0l-.05.62a19.83,19.83,0,0,1-3,8.89c-.19.31-.41.65-.66,1a34.16,34.16,0,0,1-9.33,8.86l-.67.44c-.64.41-1.32.83-2,1.23a58,58,0,0,1-7.38,3.57l-.67.26a70.22,70.22,0,0,1-9.44,2.94l-.66.16a85,85,0,0,1-9.45,1.64l-.67.07a92.72,92.72,0,0,1-9.45.56h-.85a92.26,92.26,0,0,1-9.28-.46l-.66-.06a87.62,87.62,0,0,1-9.44-1.53l-.67-.15a75.16,75.16,0,0,1-9.43-2.79l-.09,0-.58-.23a59.12,59.12,0,0,1-8.36-3.95l-1-.62-.66-.41a36.34,36.34,0,0,1-9.36-8.2c-.2-.26-.42-.55-.65-.87a20.51,20.51,0,0,1-4-10.33l-.05-.62h0V323.76h3l.19-.32c.28-.44.57-.88.89-1.32.2-.28.41-.56.66-.88a29.5,29.5,0,0,1,2.85-3.15,37.48,37.48,0,0,1,4.42-3.65c1.19-.85,2.46-1.66,3.79-2.43,10.28-5.94,24-9.21,38.54-9.21Zm0-.67c-14.07,0-28.14,3.1-38.88,9.3q-2.06,1.19-3.84,2.46a38.84,38.84,0,0,0-4.5,3.71,29.78,29.78,0,0,0-2.91,3.23c-.24.3-.46.59-.68.9s-.62.9-.91,1.35h-3.26v12.29h.06A21.14,21.14,0,0,0,219.43,346c.22.3.44.6.68.9a36.78,36.78,0,0,0,9.52,8.35l.67.41,1.06.63a59.28,59.28,0,0,0,8.46,4l.67.26A75.55,75.55,0,0,0,250,363.4l.68.15a89.34,89.34,0,0,0,9.51,1.54l.68.06c3.09.31,6.21.47,9.33.47h.86a91.27,91.27,0,0,0,9.52-.56l.67-.07a86.35,86.35,0,0,0,9.52-1.65l.68-.16a72.11,72.11,0,0,0,9.51-3l.68-.26a60,60,0,0,0,7.47-3.62c.71-.41,1.39-.82,2.05-1.24l.67-.45a34.73,34.73,0,0,0,9.52-9c.24-.35.46-.7.68-1a20.61,20.61,0,0,0,3.12-9.18h.06v-1.49h0V323.08H322l-.6-.91a30.57,30.57,0,0,0-3.9-4.57,39.71,39.71,0,0,0-4.5-3.71q-1.79-1.27-3.84-2.46c-10.74-6.2-24.81-9.3-38.88-9.3Z"/><ellipse class="253a644a-fd75-4c93-b249-0ca9d7192f8d" cx="270.24" cy="322.74" rx="54.98" ry="31.74"/><path class="8213c559-300d-411d-ab27-5387a759488a" d="M317.46,317.6c-1.76-5.45-6.31-10.46-13.25-14.47-9.08-5.24-21.14-8.12-34-8.12s-24.9,2.88-34,8.12c-6.94,4-11.49,9-13.25,14.47a16.74,16.74,0,0,0-.82,5.14c0,5.34,2.59,10.44,7.43,14.84.22.2.44.4.67.59a39.58,39.58,0,0,0,6,4.19c1.14.65,2.32,1.27,3.55,1.85l.67.32a60.7,60.7,0,0,0,9.52,3.38l.68.19a73.06,73.06,0,0,0,9.51,1.77l.68.09a84.55,84.55,0,0,0,9.36.52h.83a82.41,82.41,0,0,0,9.52-.63l.67-.09a72.89,72.89,0,0,0,9.52-1.92l.68-.19a58.87,58.87,0,0,0,9.51-3.58c.23-.1.46-.21.68-.33.87-.43,1.73-.89,2.56-1.37a38.68,38.68,0,0,0,7-5.07l.67-.65c4.2-4.18,6.44-8.94,6.44-13.9A16.74,16.74,0,0,0,317.46,317.6Zm-5.62,15.63c-.21.29-.44.58-.67.86a32.38,32.38,0,0,1-8.83,7.19l-.69.39L301,342a53.36,53.36,0,0,1-9.51,3.89l-.68.2a67.81,67.81,0,0,1-9.52,2l-.67.1a79.14,79.14,0,0,1-9.52.68h-.67a77.24,77.24,0,0,1-9.52-.56l-.68-.08a71.13,71.13,0,0,1-9.51-1.9l-.68-.19a55.45,55.45,0,0,1-9.52-3.67l-.67-.34c-.57-.3-1.13-.61-1.68-.92a33.77,33.77,0,0,1-7.84-6.07l-.67-.75c-5.54-6.42-6.25-13.89-2.11-20.57a29.63,29.63,0,0,1,10.62-9.68c17.7-10.22,46.5-10.22,64.2,0A29.63,29.63,0,0,1,313,313.89C316.84,320.15,316.46,327.1,311.84,333.23Z"/><path class="2b6d6b4c-2381-4135-9070-b4e140d262d2" d="M272,318.27l5.18,3a3.84,3.84,0,0,0-.35.18L274,323.08l-4.84-2.79,1.6-.93A3.6,3.6,0,0,0,272,318.27Z"/><path class="8213c559-300d-411d-ab27-5387a759488a" d="M287.48,330.87h0l5.31,3.06L296,332.1,290.64,329l.14-.09a8,8,0,0,0,.68-.45,13,13,0,0,0,2-1.66,6.51,6.51,0,0,0,1.68-2.76,3.54,3.54,0,0,0-.33-2.73,6.74,6.74,0,0,0-2.7-2.49l-.6-.33-.68-.33a16.07,16.07,0,0,0-5.47-1.42,19.56,19.56,0,0,0-4.05.12l-.67.11a18.74,18.74,0,0,0-2.43.6,3.52,3.52,0,0,0,.38-3.68,7.53,7.53,0,0,0-3.17-3.17,14.88,14.88,0,0,0-3.42-1.38,18.54,18.54,0,0,0-4-.65,17.63,17.63,0,0,0-4.1.24,11,11,0,0,0-3.69,1.31l-1,.58-5.11-3-3.17,1.84,5.11,2.95-3.86,2.23h0L247,312l-3.17,1.83,5.11,3L243.28,320l6.73,3.89.68.39,9.51,5.5.68.39,9.52,5.49.67.39,3.72,2.15,5.66-3.27h0l5.31,3.06,3.17-1.83-5.31-3.06h0Zm-10.65-9.43.34-.18a6.09,6.09,0,0,1,1.46-.47,8.42,8.42,0,0,1,2-.15h.1l.57,0a9.5,9.5,0,0,1,1.56.29,7.63,7.63,0,0,1,1.91.77,4.07,4.07,0,0,1,1.29,1.1,2.26,2.26,0,0,1,.46,1.24,2,2,0,0,1-.39,1.23,3.17,3.17,0,0,1-.68.69c-.13.11-.29.21-.45.32l-.14.08-2.44,1.41-.09.05-1,.6-.67.38-2.16,1.25-2.71,1.56-8.3-4.79.89-.51,1.82-1.05h0l.27-.16.67-.38,2.92-1.69Zm-16.63-5.16.68-.39.32-.19h0l1.86-1.08.34-.16a6.53,6.53,0,0,1,1.22-.45,7.71,7.71,0,0,1,2-.19,7.89,7.89,0,0,1,3.8,1l.08.05a5.44,5.44,0,0,1,.59.37,2.45,2.45,0,0,1,1.26,1.94,2,2,0,0,1-.33,1,3.19,3.19,0,0,1-.93.89l-.32.2-.35.21-1.25.72-3.86,2.23h0l-1.05.6-1.66,1-.92-.53-1-.6-.44-.25-1.94-1.12-3.62-2.09,1-.58,1.71-1h0Z"/><path class="253a644a-fd75-4c93-b249-0ca9d7192f8d" d="M221.54,337.18v11.13c-.24-.3-.46-.6-.67-.9V336.28C221.08,336.59,221.31,336.89,221.54,337.18Z"/><path class="253a644a-fd75-4c93-b249-0ca9d7192f8d" d="M230.3,344.56v11.13l-.67-.41V344.14C229.85,344.29,230.07,344.42,230.3,344.56Z"/><path class="253a644a-fd75-4c93-b249-0ca9d7192f8d" d="M240.49,349.45v11.13l-.67-.26V349.19Z"/><path class="253a644a-fd75-4c93-b249-0ca9d7192f8d" d="M250.69,352.42v11.13l-.68-.15V352.27Z"/><path class="253a644a-fd75-4c93-b249-0ca9d7192f8d" d="M260.88,354v11.13l-.68-.06V354C260.43,354,260.65,354,260.88,354Z"/><path class="253a644a-fd75-4c93-b249-0ca9d7192f8d" d="M271.07,354.48v11.13h-.67V354.49Z"/><path class="253a644a-fd75-4c93-b249-0ca9d7192f8d" d="M281.26,353.85V365l-.67.07V353.92Z"/><path class="253a644a-fd75-4c93-b249-0ca9d7192f8d" d="M291.46,352v11.13l-.68.16V352.2Z"/><path class="253a644a-fd75-4c93-b249-0ca9d7192f8d" d="M301.65,348.81v11.13l-.68.26V349.07Z"/><path class="253a644a-fd75-4c93-b249-0ca9d7192f8d" d="M311.84,343.5v11.13l-.67.45V343.94C311.4,343.8,311.62,343.65,311.84,343.5Z"/><path class="253a644a-fd75-4c93-b249-0ca9d7192f8d" d="M320.88,334.53v11.13c-.21.35-.44.7-.67,1V335.57C320.44,335.23,320.67,334.88,320.88,334.53Z"/><path class="8213c559-300d-411d-ab27-5387a759488a" d="M360.66,314.5v10.79h0v1.49h-.05a20.75,20.75,0,0,1-3.13,9.18c-.21.34-.44.69-.68,1a34.73,34.73,0,0,1-9.52,9l-.67.45c-.66.42-1.34.83-2.05,1.24a59.35,59.35,0,0,1-7.47,3.62l-.67.26a72.26,72.26,0,0,1-9.52,3l-.67.16a84.61,84.61,0,0,1-9.53,1.64l-.67.08a91.27,91.27,0,0,1-9.52.56h-.67a94.23,94.23,0,0,1-9.52-.47l-.67-.07a87,87,0,0,1-9.52-1.53l-.68-.15a75.55,75.55,0,0,1-9.52-2.82l-.67-.26a59.28,59.28,0,0,1-8.46-4l-1.06-.63-.67-.41a37,37,0,0,1-9.52-8.35c-.24-.3-.46-.6-.67-.9a21.1,21.1,0,0,1-4.12-10.66h-.06V314.5H254c.29-.45.59-.91.92-1.35s.43-.6.67-.9a30.86,30.86,0,0,1,2.91-3.23,39.71,39.71,0,0,1,4.5-3.71c1.19-.85,2.48-1.67,3.84-2.46,21.47-12.4,56.29-12.4,77.76,0q2.06,1.18,3.84,2.46a39.71,39.71,0,0,1,4.5,3.71,29.52,29.52,0,0,1,3.9,4.57c.21.31.41.61.6.91Z"/><path class="253a644a-fd75-4c93-b249-0ca9d7192f8d" d="M305.68,294.22c14.57,0,28.26,3.27,38.55,9.21,1.33.77,2.61,1.59,3.78,2.43a37.17,37.17,0,0,1,4.42,3.65,28.61,28.61,0,0,1,3.82,4.47c.19.27.38.56.58.88l.2.31h3v10.94h0l-.05.62a19.79,19.79,0,0,1-3,8.88c-.19.32-.41.66-.65,1a34,34,0,0,1-9.34,8.87l-.66.44c-.65.41-1.33.83-2,1.23a60.24,60.24,0,0,1-7.39,3.57l-.67.26a71.69,71.69,0,0,1-9.44,2.94l-.66.16a85,85,0,0,1-9.45,1.64l-.66.07a93.08,93.08,0,0,1-9.46.56h-.84a92.46,92.46,0,0,1-9.29-.46l-.65-.07a85.38,85.38,0,0,1-9.45-1.52l-.67-.15a74,74,0,0,1-9.43-2.8l-.08,0-.59-.22a59.65,59.65,0,0,1-8.36-3.95l-1.05-.63-.66-.4a36.29,36.29,0,0,1-9.35-8.2c-.21-.26-.42-.55-.66-.87a20.51,20.51,0,0,1-4-10.33l-.05-.62h0V315.17h3l.2-.31c.27-.44.57-.88.89-1.32.19-.28.4-.57.65-.88a29.5,29.5,0,0,1,2.85-3.15,37.48,37.48,0,0,1,4.42-3.65c1.19-.85,2.46-1.66,3.79-2.43,10.28-5.94,24-9.21,38.54-9.21Zm0-.67c-14.07,0-28.14,3.1-38.88,9.3-1.36.79-2.65,1.61-3.84,2.46a39.71,39.71,0,0,0-4.5,3.71,30.86,30.86,0,0,0-2.91,3.23c-.24.3-.46.59-.67.9s-.63.9-.92,1.35H250.7v12.29h.06a21.1,21.1,0,0,0,4.12,10.66c.21.3.43.6.67.9a37,37,0,0,0,9.52,8.35l.67.41,1.06.63a59.28,59.28,0,0,0,8.46,4l.67.26a75.55,75.55,0,0,0,9.52,2.82l.68.15a87,87,0,0,0,9.52,1.53l.67.07c3.09.31,6.21.47,9.34.47h.85a91.27,91.27,0,0,0,9.52-.56l.67-.08a84.61,84.61,0,0,0,9.53-1.64l.67-.16a72.26,72.26,0,0,0,9.52-3l.67-.26a59.35,59.35,0,0,0,7.47-3.62c.71-.41,1.39-.82,2.05-1.24l.67-.45a34.73,34.73,0,0,0,9.52-9c.24-.35.47-.7.68-1a20.75,20.75,0,0,0,3.13-9.18h.05V325.3h0V314.5H357.4c-.19-.3-.39-.6-.6-.91a29.52,29.52,0,0,0-3.9-4.57,39.71,39.71,0,0,0-4.5-3.71q-1.78-1.28-3.84-2.46c-10.73-6.2-24.81-9.3-38.88-9.3Z"/><ellipse class="253a644a-fd75-4c93-b249-0ca9d7192f8d" cx="305.68" cy="314.16" rx="54.98" ry="31.74"/><path class="8213c559-300d-411d-ab27-5387a759488a" d="M352.9,309c-1.76-5.45-6.31-10.46-13.25-14.47-9.07-5.24-21.14-8.12-34-8.12s-24.89,2.88-34,8.12c-6.93,4-11.49,9-13.25,14.47a16.74,16.74,0,0,0-.82,5.14c0,5.34,2.59,10.44,7.43,14.83.22.21.44.4.67.6a39.58,39.58,0,0,0,6,4.19c1.14.65,2.33,1.27,3.55,1.85l.67.31a59.72,59.72,0,0,0,9.52,3.39c.23.06.45.13.68.18a71.57,71.57,0,0,0,9.52,1.78l.67.09a84.55,84.55,0,0,0,9.36.52h.83a82.41,82.41,0,0,0,9.52-.63l.67-.09a73.38,73.38,0,0,0,9.53-1.92l.67-.19a59.35,59.35,0,0,0,9.52-3.58l.67-.33c.88-.44,1.73-.89,2.56-1.37a38.33,38.33,0,0,0,7-5.07l.67-.65c4.2-4.18,6.44-8.94,6.44-13.9A16.74,16.74,0,0,0,352.9,309Zm-5.62,15.63c-.21.29-.44.57-.67.86a32.56,32.56,0,0,1-8.83,7.19l-.69.39-.67.36a53.46,53.46,0,0,1-9.52,3.89l-.67.2a69.72,69.72,0,0,1-9.53,2c-.22,0-.44.07-.67.09a75.24,75.24,0,0,1-9.52.68h-.67a77.24,77.24,0,0,1-9.52-.56c-.23,0-.45-.05-.67-.09a69.72,69.72,0,0,1-9.52-1.89l-.68-.19a55.45,55.45,0,0,1-9.52-3.67l-.67-.34c-.57-.3-1.13-.61-1.68-.92a34.26,34.26,0,0,1-7.84-6.07l-.67-.75c-5.54-6.42-6.25-13.89-2.11-20.57a29.63,29.63,0,0,1,10.62-9.68c17.7-10.22,46.5-10.22,64.2,0a29.46,29.46,0,0,1,10.62,9.68C352.28,311.57,351.91,318.52,347.28,324.65Z"/><path class="2b6d6b4c-2381-4135-9070-b4e140d262d2" d="M307.44,309.69l5.18,3a2.91,2.91,0,0,0-.35.18l-2.84,1.64-4.84-2.79,1.6-.93A3.6,3.6,0,0,0,307.44,309.69Z"/><path class="8213c559-300d-411d-ab27-5387a759488a" d="M322.93,322.29h0l5.3,3.06,3.17-1.83-5.32-3.07.15-.09.67-.45a13,13,0,0,0,2-1.66,6.54,6.54,0,0,0,1.69-2.76,3.59,3.59,0,0,0-.34-2.73,6.74,6.74,0,0,0-2.7-2.49l-.6-.33c-.22-.12-.45-.22-.67-.33a16.19,16.19,0,0,0-5.48-1.42,19.56,19.56,0,0,0-4.05.12l-.67.11a19.57,19.57,0,0,0-2.43.6,3.52,3.52,0,0,0,.38-3.68,7.48,7.48,0,0,0-3.17-3.17,14.88,14.88,0,0,0-3.42-1.38,18.54,18.54,0,0,0-4-.65,17.63,17.63,0,0,0-4.1.24,11.1,11.1,0,0,0-3.69,1.31l-1,.58-5.11-3-3.17,1.83,5.11,2.95-3.86,2.23h0l-5.11-2.95-3.17,1.83,5.11,2.95-5.66,3.27,6.73,3.89.68.39,9.52,5.5.67.39,9.52,5.49.67.39,3.72,2.15,5.67-3.27h0l5.3,3.06,3.17-1.83-5.3-3.06h0Zm-10.66-9.43a2.91,2.91,0,0,1,.35-.18,6,6,0,0,1,1.45-.47,8.47,8.47,0,0,1,2-.15h.11a5.27,5.27,0,0,1,.56,0,9.62,9.62,0,0,1,1.57.29,7.71,7.71,0,0,1,1.9.77,4,4,0,0,1,1.29,1.1,2.25,2.25,0,0,1,.47,1.24,2,2,0,0,1-.4,1.23,3.11,3.11,0,0,1-.67.69c-.14.11-.3.21-.46.32l-.14.08-2.44,1.41-.09.05-1,.6-.67.38-2.15,1.25-2.72,1.56-8.3-4.79.89-.51,1.82-1h0l.27-.16.67-.38,2.92-1.69Zm-16.62-5.16.67-.39.33-.19h0l1.86-1.08.34-.16a5.9,5.9,0,0,1,1.22-.45,8.21,8.21,0,0,1,5.77.85l.09,0c.21.13.4.25.58.38a2.45,2.45,0,0,1,1.26,1.94,2,2,0,0,1-.33,1.05,3.19,3.19,0,0,1-.93.89,2.49,2.49,0,0,1-.32.2l-.35.21-1.25.72-3.85,2.22h0l-1.06.61-1.65,1-.92-.53-1-.6-.43-.25L293.7,313l-3.62-2.09,1-.58,1.7-1h0Z"/><path class="253a644a-fd75-4c93-b249-0ca9d7192f8d" d="M257,328.6v11.13l-.67-.9V327.7C256.53,328,256.75,328.31,257,328.6Z"/><path class="253a644a-fd75-4c93-b249-0ca9d7192f8d" d="M265.74,336v11.13l-.67-.41V335.56Z"/><path class="253a644a-fd75-4c93-b249-0ca9d7192f8d" d="M275.93,340.86V352l-.67-.26V340.61Z"/><path class="253a644a-fd75-4c93-b249-0ca9d7192f8d" d="M286.13,343.84V355l-.68-.15V343.69Z"/><path class="253a644a-fd75-4c93-b249-0ca9d7192f8d" d="M296.32,345.44v11.13l-.67-.07V345.38C295.87,345.4,296.09,345.43,296.32,345.44Z"/><path class="253a644a-fd75-4c93-b249-0ca9d7192f8d" d="M306.51,345.9V357h-.67V345.91Z"/><path class="253a644a-fd75-4c93-b249-0ca9d7192f8d" d="M316.7,345.27v11.12l-.67.08V345.34Z"/><path class="253a644a-fd75-4c93-b249-0ca9d7192f8d" d="M326.9,343.46v11.13l-.67.16V343.62Z"/><path class="253a644a-fd75-4c93-b249-0ca9d7192f8d" d="M337.09,340.23v11.13l-.67.26V340.49Z"/><path class="253a644a-fd75-4c93-b249-0ca9d7192f8d" d="M347.28,334.92v11.13l-.67.45V335.36C346.84,335.22,347.06,335.07,347.28,334.92Z"/><path class="253a644a-fd75-4c93-b249-0ca9d7192f8d" d="M356.32,326v11.13c-.21.35-.43.7-.67,1V327C355.89,326.65,356.11,326.3,356.32,326Z"/><path class="8213c559-300d-411d-ab27-5387a759488a" d="M321.51,292.33v10.79h0v1.49h-.06a20.5,20.5,0,0,1-3.13,9.18c-.21.34-.43.69-.67,1a34.73,34.73,0,0,1-9.52,9l-.67.45c-.66.42-1.34.83-2,1.24a60,60,0,0,1-7.47,3.62l-.68.26a72.11,72.11,0,0,1-9.51,3l-.68.16a84.05,84.05,0,0,1-9.52,1.64l-.67.08a91.27,91.27,0,0,1-9.52.56h-.67a94.23,94.23,0,0,1-9.52-.47l-.68-.06A89.52,89.52,0,0,1,247,332.8l-.67-.15a75.55,75.55,0,0,1-9.52-2.82l-.67-.26a59.28,59.28,0,0,1-8.46-4l-1.06-.63-.67-.41a36.78,36.78,0,0,1-9.52-8.35c-.24-.3-.46-.6-.68-.9a21.17,21.17,0,0,1-4.11-10.66h-.06V292.33h3.26c.28-.45.59-.91.91-1.35s.44-.6.68-.9a29.78,29.78,0,0,1,2.91-3.23,38.84,38.84,0,0,1,4.5-3.71q1.78-1.27,3.84-2.46c21.47-12.4,56.29-12.4,77.76,0q2.05,1.19,3.84,2.46a39.71,39.71,0,0,1,4.5,3.71,30.08,30.08,0,0,1,3.9,4.57l.6.91Z"/><path class="253a644a-fd75-4c93-b249-0ca9d7192f8d" d="M266.53,272.05c14.57,0,28.26,3.27,38.54,9.21,1.34.77,2.61,1.59,3.79,2.43a37.17,37.17,0,0,1,4.42,3.65,28,28,0,0,1,3.81,4.47,10.32,10.32,0,0,1,.58.88l.2.32h3v10.93h0l-.05.62a19.79,19.79,0,0,1-3,8.88c-.19.32-.42.66-.66,1a34,34,0,0,1-9.33,8.87l-.67.44c-.64.41-1.32.83-2,1.23a59.4,59.4,0,0,1-7.38,3.57l-.67.26a71.69,71.69,0,0,1-9.44,2.94l-.66.16a85,85,0,0,1-9.45,1.64l-.67.07a92.72,92.72,0,0,1-9.45.56h-.85a92.26,92.26,0,0,1-9.28-.46l-.66-.06a87.62,87.62,0,0,1-9.44-1.53l-.67-.15a74.16,74.16,0,0,1-9.44-2.8l-.08,0-.58-.23A59.12,59.12,0,0,1,228,325c-.36-.21-.71-.41-1.05-.63l-.66-.4a36.34,36.34,0,0,1-9.36-8.2c-.2-.26-.42-.55-.65-.87a20.51,20.51,0,0,1-4-10.33l-.05-.62h0V293h3l.19-.32c.28-.44.57-.88.89-1.32.2-.28.41-.57.66-.88a29.5,29.5,0,0,1,2.85-3.15,37.48,37.48,0,0,1,4.42-3.65c1.19-.85,2.46-1.66,3.79-2.43,10.28-5.94,24-9.21,38.54-9.21Zm0-.67c-14.07,0-28.14,3.1-38.88,9.3q-2.06,1.19-3.84,2.46a38.84,38.84,0,0,0-4.5,3.71,29.78,29.78,0,0,0-2.91,3.23c-.24.3-.46.59-.68.9s-.63.9-.91,1.35h-3.26v12.29h.06a21.17,21.17,0,0,0,4.11,10.66c.22.3.44.6.68.9a36.78,36.78,0,0,0,9.52,8.35l.67.41,1.06.63a59.28,59.28,0,0,0,8.46,4l.67.26a75.55,75.55,0,0,0,9.52,2.82l.67.15a89.52,89.52,0,0,0,9.52,1.54l.68.06a93.41,93.41,0,0,0,9.33.47h.86a91.27,91.27,0,0,0,9.52-.56l.67-.08a84.05,84.05,0,0,0,9.52-1.64l.68-.16a72.11,72.11,0,0,0,9.51-3l.68-.26a60,60,0,0,0,7.47-3.62c.71-.41,1.39-.82,2-1.24l.67-.45a34.73,34.73,0,0,0,9.52-9c.24-.35.46-.7.67-1a20.5,20.5,0,0,0,3.13-9.18h.06v-1.49h0V292.33h-3.26l-.6-.91a30.08,30.08,0,0,0-3.9-4.57,39.71,39.71,0,0,0-4.5-3.71q-1.78-1.27-3.84-2.46c-10.74-6.2-24.81-9.3-38.88-9.3Z"/><ellipse class="253a644a-fd75-4c93-b249-0ca9d7192f8d" cx="266.53" cy="291.99" rx="54.98" ry="31.74"/><path class="8213c559-300d-411d-ab27-5387a759488a" d="M313.75,286.85c-1.76-5.45-6.31-10.46-13.25-14.47-9.08-5.24-21.14-8.12-34-8.12s-24.9,2.88-34,8.12c-6.94,4-11.49,9-13.25,14.47a16.74,16.74,0,0,0-.82,5.14c0,5.34,2.59,10.44,7.43,14.83.21.21.44.4.67.6a39.58,39.58,0,0,0,6,4.19c1.14.65,2.32,1.27,3.55,1.85l.67.31a59.72,59.72,0,0,0,9.52,3.39l.67.18a71.87,71.87,0,0,0,9.52,1.78l.68.09a84.55,84.55,0,0,0,9.36.52h.83a82.41,82.41,0,0,0,9.52-.63l.67-.09a72.89,72.89,0,0,0,9.52-1.92l.68-.19a58.87,58.87,0,0,0,9.51-3.58c.23-.1.46-.22.68-.33.87-.44,1.73-.89,2.56-1.37a38.68,38.68,0,0,0,7-5.07l.67-.65c4.2-4.18,6.44-8.94,6.44-13.9A16.74,16.74,0,0,0,313.75,286.85Zm-5.62,15.63c-.21.29-.44.57-.67.86a32.56,32.56,0,0,1-8.83,7.19l-.69.39-.68.36a53.36,53.36,0,0,1-9.51,3.89l-.68.2a69.25,69.25,0,0,1-9.52,2c-.22,0-.44.07-.67.09a75.24,75.24,0,0,1-9.52.68h-.67a77.12,77.12,0,0,1-9.52-.56c-.23,0-.46-.05-.68-.09a70,70,0,0,1-9.52-1.89l-.67-.19a55.45,55.45,0,0,1-9.52-3.67l-.67-.34c-.57-.3-1.13-.61-1.68-.92a33.77,33.77,0,0,1-7.84-6.07c-.23-.25-.46-.5-.67-.75-5.55-6.42-6.25-13.89-2.11-20.57a29.63,29.63,0,0,1,10.62-9.68c17.7-10.22,46.5-10.22,64.2,0a29.63,29.63,0,0,1,10.62,9.68C313.12,289.4,312.75,296.35,308.13,302.48Z"/><path class="2b6d6b4c-2381-4135-9070-b4e140d262d2" d="M268.29,287.52l5.18,3a2.31,2.31,0,0,0-.35.18l-2.84,1.64-4.84-2.79,1.6-.93A3.6,3.6,0,0,0,268.29,287.52Z"/><path class="8213c559-300d-411d-ab27-5387a759488a" d="M283.77,300.12h0l5.31,3.06,3.17-1.83-5.32-3.07.14-.09c.24-.14.46-.3.68-.45a13,13,0,0,0,1.95-1.66,6.51,6.51,0,0,0,1.68-2.76,3.59,3.59,0,0,0-.33-2.73,6.74,6.74,0,0,0-2.7-2.49l-.6-.33-.68-.33A16.07,16.07,0,0,0,281.6,286a19.56,19.56,0,0,0-4.05.12l-.67.11a18.74,18.74,0,0,0-2.43.6,3.54,3.54,0,0,0,.38-3.68,7.53,7.53,0,0,0-3.17-3.17,14.88,14.88,0,0,0-3.42-1.38,18.54,18.54,0,0,0-4-.65,17.63,17.63,0,0,0-4.1.24,11,11,0,0,0-3.69,1.31l-1,.58-5.11-3L247.15,279l5.11,2.95-3.86,2.22h0l-5.11-2.95L240.12,283l5.11,3-5.66,3.27,6.73,3.89.67.39,9.52,5.5.68.39,9.52,5.49.67.39,3.72,2.15,5.66-3.27h0l5.31,3.06,3.17-1.83-5.31-3.06h0Zm-10.65-9.43a2.79,2.79,0,0,1,.34-.18,6.09,6.09,0,0,1,1.46-.47,8.42,8.42,0,0,1,2-.15h.1a5.46,5.46,0,0,1,.57,0,9.5,9.5,0,0,1,1.56.29A7.63,7.63,0,0,1,281,291a4.07,4.07,0,0,1,1.29,1.1,2.24,2.24,0,0,1,.46,1.24,2,2,0,0,1-.39,1.23,3.17,3.17,0,0,1-.68.69c-.13.11-.29.21-.45.32l-.14.08-2.44,1.41-.09.05-1,.6-.67.38-2.16,1.25L272,300.91l-8.3-4.79.89-.51,1.82-1.05h0l.27-.16.67-.38,2.92-1.69Zm-16.63-5.16.68-.39.32-.19h0l1.86-1.08.34-.16a5.9,5.9,0,0,1,1.22-.45,8.21,8.21,0,0,1,5.77.85l.08,0c.22.13.41.25.59.38a2.42,2.42,0,0,1,1.25,1.94,1.9,1.9,0,0,1-.32,1,3.19,3.19,0,0,1-.93.89l-.32.2-.35.21-1.25.72-3.86,2.22h0l-1.05.61-1.66,1-.92-.53-1-.6-.44-.25-1.94-1.12-3.62-2.09,1-.58,1.71-1h0Z"/><path class="253a644a-fd75-4c93-b249-0ca9d7192f8d" d="M217.83,306.43v11.13c-.24-.3-.46-.6-.67-.9V305.53C217.37,305.83,217.6,306.14,217.83,306.43Z"/><path class="253a644a-fd75-4c93-b249-0ca9d7192f8d" d="M226.59,313.81v11.13l-.67-.41V313.39Z"/><path class="253a644a-fd75-4c93-b249-0ca9d7192f8d" d="M236.78,318.69v11.14l-.67-.26V318.44Z"/><path class="253a644a-fd75-4c93-b249-0ca9d7192f8d" d="M247,321.67V332.8l-.67-.15V321.52Z"/><path class="253a644a-fd75-4c93-b249-0ca9d7192f8d" d="M257.17,323.27V334.4l-.68-.06V323.21C256.72,323.23,256.94,323.26,257.17,323.27Z"/><path class="253a644a-fd75-4c93-b249-0ca9d7192f8d" d="M267.36,323.73v11.13h-.67V323.74Z"/><path class="253a644a-fd75-4c93-b249-0ca9d7192f8d" d="M277.55,323.1v11.12l-.67.08V323.17Z"/><path class="253a644a-fd75-4c93-b249-0ca9d7192f8d" d="M287.75,321.29v11.13l-.68.16V321.45Z"/><path class="253a644a-fd75-4c93-b249-0ca9d7192f8d" d="M297.94,318.06v11.13l-.68.26V318.32Z"/><path class="253a644a-fd75-4c93-b249-0ca9d7192f8d" d="M308.13,312.75v11.13l-.67.45V313.19Z"/><path class="253a644a-fd75-4c93-b249-0ca9d7192f8d" d="M317.17,303.78v11.13c-.21.35-.44.7-.67,1V304.82C316.73,304.48,317,304.13,317.17,303.78Z"/><path class="8213c559-300d-411d-ab27-5387a759488a" d="M337.76,273.72v10.79h0V286h-.06a20.58,20.58,0,0,1-3.13,9.18c-.21.35-.44.7-.68,1a34.56,34.56,0,0,1-9.51,9l-.68.44c-.66.42-1.34.84-2.05,1.25a58,58,0,0,1-7.47,3.61l-.67.27a73.28,73.28,0,0,1-9.52,3l-.67.17a87.17,87.17,0,0,1-9.52,1.64l-.68.08a94.07,94.07,0,0,1-9.51.56h-.68a91.53,91.53,0,0,1-9.52-.46l-.67-.07a87,87,0,0,1-9.52-1.53l-.67-.15a73.48,73.48,0,0,1-9.52-2.83l-.68-.25a59.73,59.73,0,0,1-8.45-4l-1.07-.63-.67-.42a36.93,36.93,0,0,1-9.52-8.35c-.24-.3-.46-.59-.67-.89A21.19,21.19,0,0,1,227.85,286h-.06V273.72h3.27c.28-.46.58-.91.91-1.35s.44-.61.67-.91a31.94,31.94,0,0,1,2.91-3.22,38.67,38.67,0,0,1,4.5-3.71c1.19-.85,2.48-1.68,3.85-2.47,21.47-12.39,56.28-12.39,77.75,0q2.06,1.19,3.85,2.47a36.78,36.78,0,0,1,4.49,3.71,29.06,29.06,0,0,1,3.9,4.57c.21.3.41.6.6.91Z"/><path class="253a644a-fd75-4c93-b249-0ca9d7192f8d" d="M282.77,253.44c14.57,0,28.26,3.27,38.55,9.21a44.65,44.65,0,0,1,3.78,2.43,37.24,37.24,0,0,1,4.43,3.64,29.61,29.61,0,0,1,3.81,4.48c.19.27.38.56.58.88l.2.31h3v10.94h0L337,286a20,20,0,0,1-3,8.88c-.2.32-.42.66-.66,1a34,34,0,0,1-9.34,8.87l-.66.43c-.65.42-1.33.83-2,1.23a58.19,58.19,0,0,1-7.39,3.58l-.67.26a72.74,72.74,0,0,1-9.44,2.94l-.66.16a87.37,87.37,0,0,1-9.45,1.63l-.66.08a92.88,92.88,0,0,1-9.45.55h-.85a92.12,92.12,0,0,1-9.28-.46l-.66-.07a88.2,88.2,0,0,1-9.45-1.52l-.66-.15a73.68,73.68,0,0,1-9.44-2.8l-.08,0-.59-.22a59.65,59.65,0,0,1-8.36-3.95l-1-.63-.66-.41a36.1,36.1,0,0,1-9.35-8.2c-.21-.26-.42-.54-.66-.87a20.48,20.48,0,0,1-4-10.32l-.05-.62h0V274.39h3l.2-.32c.27-.43.57-.88.89-1.32.19-.27.41-.56.65-.87a30.57,30.57,0,0,1,2.85-3.16,38.43,38.43,0,0,1,4.42-3.64c1.19-.85,2.47-1.67,3.79-2.43,10.29-5.94,24-9.21,38.54-9.21Zm0-.67c-14.07,0-28.14,3.1-38.87,9.29-1.37.79-2.66,1.62-3.85,2.47a38.67,38.67,0,0,0-4.5,3.71,31.94,31.94,0,0,0-2.91,3.22c-.23.3-.46.6-.67.91s-.63.89-.91,1.35h-3.27V286h.06A21.19,21.19,0,0,0,232,296.67c.21.3.43.59.67.89a36.93,36.93,0,0,0,9.52,8.35l.67.42,1.07.63a59.73,59.73,0,0,0,8.45,4l.68.25a73.48,73.48,0,0,0,9.52,2.83l.67.15a87,87,0,0,0,9.52,1.53l.67.07c3.09.31,6.21.46,9.34.46h.86a94.07,94.07,0,0,0,9.51-.56l.68-.08a87.17,87.17,0,0,0,9.52-1.64l.67-.17a73.28,73.28,0,0,0,9.52-3l.67-.27a58,58,0,0,0,7.47-3.61c.71-.41,1.39-.83,2.05-1.25l.68-.44a34.56,34.56,0,0,0,9.51-9c.24-.34.47-.69.68-1A20.58,20.58,0,0,0,337.7,286h.06v-1.49h0V273.72h-3.27c-.19-.31-.39-.61-.6-.91a29.06,29.06,0,0,0-3.9-4.57,36.78,36.78,0,0,0-4.49-3.71q-1.8-1.29-3.85-2.47c-10.73-6.19-24.8-9.29-38.88-9.29Z"/><ellipse class="253a644a-fd75-4c93-b249-0ca9d7192f8d" cx="282.77" cy="273.38" rx="54.98" ry="31.74"/><path class="8213c559-300d-411d-ab27-5387a759488a" d="M330,268.24c-1.75-5.45-6.31-10.47-13.25-14.47-9.07-5.24-21.14-8.13-34-8.13s-24.9,2.89-34,8.13c-6.94,4-11.5,9-13.26,14.47a16.74,16.74,0,0,0-.82,5.14c0,5.33,2.59,10.44,7.43,14.83.22.2.44.4.67.59a38.3,38.3,0,0,0,6,4.19c1.13.66,2.32,1.28,3.54,1.86l.68.31a60.35,60.35,0,0,0,9.52,3.39l.67.18a74.93,74.93,0,0,0,9.52,1.78l.67.08a82.37,82.37,0,0,0,9.37.52h.83a80.06,80.06,0,0,0,9.51-.64l.68-.09a72.89,72.89,0,0,0,9.52-1.91l.67-.19a59,59,0,0,0,9.52-3.58l.67-.33c.88-.44,1.73-.9,2.56-1.38a37.52,37.52,0,0,0,7-5.07l.68-.65c4.19-4.17,6.43-8.93,6.43-13.89A16.45,16.45,0,0,0,330,268.24Zm-5.61,15.63c-.22.29-.44.57-.68.85a32.2,32.2,0,0,1-8.83,7.19,7.69,7.69,0,0,1-.69.39l-.67.37a53.13,53.13,0,0,1-9.52,3.88l-.67.2a68.13,68.13,0,0,1-9.52,2.05l-.68.09a77,77,0,0,1-9.51.68h-.68a79.25,79.25,0,0,1-9.52-.56l-.67-.09a68.25,68.25,0,0,1-9.52-1.9l-.67-.18a55.45,55.45,0,0,1-9.52-3.67l-.68-.35c-.57-.29-1.13-.6-1.67-.92a33.84,33.84,0,0,1-7.85-6.07c-.23-.25-.45-.49-.67-.75-5.54-6.41-6.24-13.88-2.11-20.56a29.58,29.58,0,0,1,10.63-9.68c17.69-10.22,46.49-10.22,64.19,0a29.58,29.58,0,0,1,10.63,9.68C329.37,270.79,329,277.74,324.38,283.87Z"/><path class="2b6d6b4c-2381-4135-9070-b4e140d262d2" d="M284.53,268.9l5.18,3-.34.19-2.85,1.64-4.83-2.8,1.59-.92A3.52,3.52,0,0,0,284.53,268.9Z"/><path class="8213c559-300d-411d-ab27-5387a759488a" d="M300,281.51h0l5.3,3.06,3.18-1.83-5.32-3.07.14-.09.67-.45a13.67,13.67,0,0,0,1.95-1.66,6.47,6.47,0,0,0,1.69-2.77,3.64,3.64,0,0,0-.33-2.73,6.91,6.91,0,0,0-2.71-2.48q-.3-.18-.6-.33c-.22-.12-.45-.23-.67-.33a16,16,0,0,0-5.48-1.42,19.45,19.45,0,0,0-4,.12l-.68.11a19,19,0,0,0-2.42.59,3.53,3.53,0,0,0,.37-3.68,7.4,7.4,0,0,0-3.17-3.16,14.7,14.7,0,0,0-3.42-1.38,19.19,19.19,0,0,0-4-.66,18.25,18.25,0,0,0-4.11.25,11.17,11.17,0,0,0-3.68,1.3l-1,.58-5.11-3-3.18,1.83,5.11,2.95-3.85,2.23h0l-5.12-3-3.17,1.83,5.11,2.95-5.66,3.27,6.74,3.89.67.39,9.52,5.49.67.39,9.52,5.5.68.39,3.71,2.15,5.67-3.27h0l5.3,3.06,3.18-1.83-5.31-3.06h0Zm-10.65-9.43.34-.19a6,6,0,0,1,1.45-.47,8.47,8.47,0,0,1,2-.14h.11l.57.05a10.65,10.65,0,0,1,1.56.28,8,8,0,0,1,1.91.77,4.17,4.17,0,0,1,1.28,1.1,2.31,2.31,0,0,1,.47,1.25,2,2,0,0,1-.4,1.23,3.61,3.61,0,0,1-.67.69,4.1,4.1,0,0,1-.46.31l-.13.09-2.45,1.41-.09.05-1,.59-.68.39L291,280.74l-2.71,1.56-8.3-4.79.88-.51,1.83-1.06h0l.26-.15.68-.39,2.91-1.68Zm-16.63-5.16.67-.39.33-.19h0l1.87-1.08a2.68,2.68,0,0,1,.34-.16,5.48,5.48,0,0,1,1.21-.45,7.74,7.74,0,0,1,2-.2,8,8,0,0,1,3.8,1l.09.05a6.66,6.66,0,0,1,.59.38,2.45,2.45,0,0,1,1.25,1.94,1.94,1.94,0,0,1-.33,1.05,3.27,3.27,0,0,1-.92.89l-.32.2-.36.2-1.24.72-3.86,2.23h0l-1.06.61-1.65.95-.92-.53-1-.59-.43-.25-1.95-1.12-3.62-2.09,1-.58,1.7-1h0Z"/><path class="253a644a-fd75-4c93-b249-0ca9d7192f8d" d="M234.08,287.82V299c-.24-.3-.46-.6-.68-.9V286.92C233.62,287.22,233.84,287.52,234.08,287.82Z"/><path class="253a644a-fd75-4c93-b249-0ca9d7192f8d" d="M242.83,295.2v11.13l-.67-.42V294.78Z"/><path class="253a644a-fd75-4c93-b249-0ca9d7192f8d" d="M253,300.08v11.13l-.68-.25V299.83Z"/><path class="253a644a-fd75-4c93-b249-0ca9d7192f8d" d="M263.22,303.06v11.13l-.67-.15V302.9Z"/><path class="253a644a-fd75-4c93-b249-0ca9d7192f8d" d="M273.41,304.66v11.13l-.67-.07V304.59Z"/><path class="253a644a-fd75-4c93-b249-0ca9d7192f8d" d="M283.61,305.12v11.13h-.68V305.12Z"/><path class="253a644a-fd75-4c93-b249-0ca9d7192f8d" d="M293.8,304.48v11.13l-.68.08V304.56Z"/><path class="253a644a-fd75-4c93-b249-0ca9d7192f8d" d="M304,302.67V313.8l-.67.17V302.83Z"/><path class="253a644a-fd75-4c93-b249-0ca9d7192f8d" d="M314.18,299.44v11.13l-.67.27V299.71Z"/><path class="253a644a-fd75-4c93-b249-0ca9d7192f8d" d="M324.38,294.14v11.13l-.68.44V294.58Z"/><path class="253a644a-fd75-4c93-b249-0ca9d7192f8d" d="M333.42,285.17V296.3c-.22.35-.44.69-.68,1V286.21C333,285.86,333.2,285.52,333.42,285.17Z"/><path class="8213c559-300d-411d-ab27-5387a759488a" d="M312.15,247.54v10.79h0v1.49h-.06A20.58,20.58,0,0,1,309,269c-.21.35-.44.7-.67,1a34.61,34.61,0,0,1-9.52,9l-.68.44c-.65.42-1.34.84-2,1.25a60.16,60.16,0,0,1-7.48,3.62l-.67.26a73.28,73.28,0,0,1-9.52,3l-.67.17a87.17,87.17,0,0,1-9.52,1.64l-.68.08a93.9,93.9,0,0,1-9.51.56h-.68a91.53,91.53,0,0,1-9.52-.46l-.67-.07a87,87,0,0,1-9.52-1.53l-.67-.15a74,74,0,0,1-9.52-2.83l-.68-.25a59.15,59.15,0,0,1-8.45-4l-1.06-.63-.68-.42a36.93,36.93,0,0,1-9.52-8.35c-.23-.29-.46-.59-.67-.89a21.28,21.28,0,0,1-4.12-10.67h-.06V247.54h3.27c.28-.46.59-.91.91-1.35s.44-.61.67-.9a31,31,0,0,1,2.91-3.23,38.67,38.67,0,0,1,4.5-3.71c1.2-.85,2.48-1.68,3.85-2.47,21.47-12.39,56.28-12.39,77.76,0,1.36.79,2.64,1.62,3.84,2.47a37.68,37.68,0,0,1,4.5,3.71,30.16,30.16,0,0,1,3.9,4.57c.2.3.4.6.59.91Z"/><path class="253a644a-fd75-4c93-b249-0ca9d7192f8d" d="M257.17,227.26c14.57,0,28.25,3.27,38.54,9.21,1.34.77,2.61,1.59,3.79,2.43a39,39,0,0,1,4.42,3.64,29.61,29.61,0,0,1,3.81,4.48c.19.27.38.56.58.88l.2.31h3v10.94h0l-.05.62a20,20,0,0,1-3,8.88c-.2.32-.42.66-.66,1a34,34,0,0,1-9.34,8.87l-.66.44c-.65.41-1.33.82-2,1.23a59.55,59.55,0,0,1-7.39,3.57l-.66.26a72.89,72.89,0,0,1-9.45,2.94l-.65.16a85.8,85.8,0,0,1-9.45,1.63l-.67.08c-3.11.34-6.29.53-9.45.56h-.85a92.12,92.12,0,0,1-9.28-.46l-.66-.07a87.62,87.62,0,0,1-9.44-1.52l-.67-.15a74.16,74.16,0,0,1-9.44-2.8l-.08,0-.58-.22a59.12,59.12,0,0,1-8.36-3.95l-1-.63c-.23-.13-.45-.27-.67-.41a36.43,36.43,0,0,1-9.35-8.19c-.21-.27-.42-.55-.65-.88a20.3,20.3,0,0,1-4-10.32l0-.62h0V248.21h3l.2-.32c.27-.43.57-.87.89-1.31.2-.28.41-.57.65-.88a31.76,31.76,0,0,1,2.85-3.16,39.3,39.3,0,0,1,4.42-3.64c1.19-.85,2.47-1.67,3.79-2.43,10.29-5.94,24-9.21,38.55-9.21Zm0-.67c-14.08,0-28.15,3.1-38.88,9.29-1.37.79-2.65,1.62-3.85,2.47a38.67,38.67,0,0,0-4.5,3.71,31,31,0,0,0-2.91,3.23c-.23.29-.46.59-.67.9s-.63.89-.91,1.35h-3.27v12.28h.06a21.28,21.28,0,0,0,4.12,10.67c.21.3.44.6.67.89a36.93,36.93,0,0,0,9.52,8.35l.68.42,1.06.63a59.15,59.15,0,0,0,8.45,4l.68.25a74,74,0,0,0,9.52,2.83l.67.15a87,87,0,0,0,9.52,1.53l.67.07c3.09.31,6.22.47,9.34.47H258a93.9,93.9,0,0,0,9.51-.56l.68-.08a87.17,87.17,0,0,0,9.52-1.64l.67-.17a73.28,73.28,0,0,0,9.52-3l.67-.26a60.16,60.16,0,0,0,7.48-3.62c.7-.41,1.39-.83,2-1.25l.68-.44a34.61,34.61,0,0,0,9.52-9c.23-.34.46-.69.67-1a20.58,20.58,0,0,0,3.13-9.18h.06v-1.49h0V247.54h-3.27c-.19-.31-.39-.61-.59-.91a30.16,30.16,0,0,0-3.9-4.57,37.68,37.68,0,0,0-4.5-3.71c-1.2-.85-2.48-1.68-3.84-2.47-10.74-6.19-24.81-9.29-38.88-9.29Z"/><ellipse class="253a644a-fd75-4c93-b249-0ca9d7192f8d" cx="257.17" cy="247.2" rx="54.98" ry="31.74"/><path class="8213c559-300d-411d-ab27-5387a759488a" d="M304.39,242.06c-1.76-5.45-6.32-10.47-13.25-14.47-9.08-5.24-21.14-8.12-34-8.12s-24.9,2.88-34,8.12c-6.94,4-11.5,9-13.26,14.47a16.73,16.73,0,0,0-.81,5.14c0,5.33,2.59,10.44,7.42,14.83.22.21.45.4.68.6a38.36,38.36,0,0,0,6,4.18q1.71,1,3.54,1.86l.68.31a59.37,59.37,0,0,0,9.52,3.39l.67.18a75.26,75.26,0,0,0,9.52,1.78l.67.08a82.35,82.35,0,0,0,9.37.53H258a79.92,79.92,0,0,0,9.51-.64c.23,0,.45-.05.68-.09a72.89,72.89,0,0,0,9.52-1.91l.67-.19a58.64,58.64,0,0,0,9.52-3.58l.67-.33c.88-.44,1.73-.9,2.57-1.38a37.77,37.77,0,0,0,6.95-5.07c.24-.21.46-.43.68-.65,4.2-4.17,6.43-8.93,6.43-13.89A16.73,16.73,0,0,0,304.39,242.06Zm-5.62,15.63c-.22.29-.44.57-.68.86a32.3,32.3,0,0,1-8.82,7.18l-.7.4-.67.36a53.15,53.15,0,0,1-9.52,3.89l-.67.2a69.57,69.57,0,0,1-9.52,2l-.68.09a76.84,76.84,0,0,1-9.51.68h-.68a79.37,79.37,0,0,1-9.52-.56l-.67-.09a69.72,69.72,0,0,1-9.52-1.89l-.67-.19a55.45,55.45,0,0,1-9.52-3.67l-.68-.35c-.56-.29-1.12-.6-1.67-.92a33.77,33.77,0,0,1-7.84-6.07c-.23-.24-.46-.49-.68-.75-5.54-6.41-6.24-13.88-2.11-20.56a29.58,29.58,0,0,1,10.63-9.68c17.7-10.22,46.49-10.22,64.2,0a29.63,29.63,0,0,1,10.62,9.68C303.76,244.61,303.39,251.56,298.77,257.69Z"/><path class="2b6d6b4c-2381-4135-9070-b4e140d262d2" d="M258.93,242.73l5.17,3-.34.19-2.84,1.64-4.84-2.8,1.6-.92A3.69,3.69,0,0,0,258.93,242.73Z"/><path class="8213c559-300d-411d-ab27-5387a759488a" d="M274.41,255.33h0l5.31,3.06,3.17-1.83-5.32-3.07.14-.09.67-.45a13.15,13.15,0,0,0,2-1.66,6.48,6.48,0,0,0,1.68-2.77,3.61,3.61,0,0,0-.33-2.72,6.85,6.85,0,0,0-2.71-2.49l-.6-.33c-.22-.12-.44-.23-.67-.33a16.13,16.13,0,0,0-5.47-1.42,19.54,19.54,0,0,0-4.05.12l-.68.11a19,19,0,0,0-2.42.59,3.52,3.52,0,0,0,.38-3.67,7.45,7.45,0,0,0-3.18-3.17,14.52,14.52,0,0,0-3.42-1.38,18.45,18.45,0,0,0-4-.65,17.68,17.68,0,0,0-4.11.24,11.17,11.17,0,0,0-3.68,1.3l-1,.58-5.11-3-3.17,1.83,5.1,2.95L239,239.36h0l-5.11-3-3.17,1.83,5.11,2.95-5.67,3.27,6.74,3.89.67.39,9.52,5.49.67.39,9.52,5.5.68.39,3.72,2.15,5.66-3.27h0l5.31,3.06,3.17-1.83-5.31-3.06h0Zm-10.65-9.43a2.21,2.21,0,0,1,.34-.18,5.25,5.25,0,0,1,1.45-.47,8.51,8.51,0,0,1,2-.15h.11l.57.05a9.5,9.5,0,0,1,1.56.29,7.62,7.62,0,0,1,1.91.76,4.22,4.22,0,0,1,1.29,1.11,2.32,2.32,0,0,1,.46,1.24,2,2,0,0,1-.4,1.23,3.33,3.33,0,0,1-.67.69,4.1,4.1,0,0,1-.46.31l-.13.09-2.45,1.41-.08.05-1,.59-.68.39-2.15,1.25-2.71,1.56-8.3-4.79.88-.51,1.83-1h0l.26-.16.68-.39,2.92-1.68Zm-16.63-5.16.67-.39.33-.19h0l1.87-1.08.34-.16a5.48,5.48,0,0,1,1.21-.45,8.31,8.31,0,0,1,2-.2,7.93,7.93,0,0,1,3.79,1l.09.05c.22.13.41.25.59.38a2.44,2.44,0,0,1,1.25,1.94,1.93,1.93,0,0,1-.32,1,3.19,3.19,0,0,1-.93.89l-.32.2-.36.2-1.24.72L252.22,247h0l-1.05.61-1.66,1-.92-.53-1-.6-.43-.25L245.19,246,241.57,244l1-.58,1.7-1h0Z"/><path class="253a644a-fd75-4c93-b249-0ca9d7192f8d" d="M208.47,261.64v11.13c-.24-.3-.46-.6-.68-.9V260.74C208,261,208.23,261.34,208.47,261.64Z"/><path class="253a644a-fd75-4c93-b249-0ca9d7192f8d" d="M217.23,269v11.13l-.68-.42V268.6Z"/><path class="253a644a-fd75-4c93-b249-0ca9d7192f8d" d="M227.42,273.9V285l-.68-.25V273.65Z"/><path class="253a644a-fd75-4c93-b249-0ca9d7192f8d" d="M237.61,276.88V288l-.67-.15V276.73Z"/><path class="253a644a-fd75-4c93-b249-0ca9d7192f8d" d="M247.8,278.48v11.13l-.67-.07V278.41Z"/><path class="253a644a-fd75-4c93-b249-0ca9d7192f8d" d="M258,278.94v11.13h-.68V279Z"/><path class="253a644a-fd75-4c93-b249-0ca9d7192f8d" d="M268.19,278.3v11.13l-.68.08V278.38Z"/><path class="253a644a-fd75-4c93-b249-0ca9d7192f8d" d="M278.38,276.49v11.13l-.67.17V276.65Z"/><path class="253a644a-fd75-4c93-b249-0ca9d7192f8d" d="M288.57,273.27V284.4l-.67.26V273.53Z"/><path class="253a644a-fd75-4c93-b249-0ca9d7192f8d" d="M298.77,268v11.13l-.68.44V268.4Z"/><path class="253a644a-fd75-4c93-b249-0ca9d7192f8d" d="M307.81,259v11.13c-.21.35-.44.69-.68,1V260C307.37,259.68,307.59,259.34,307.81,259Z"/><path class="02a5b961-26d6-4426-a9a6-3009b6b83c4d" d="M252.64,242.92,206.3,275.81,198,346.57,184,346.14l-1.49-81.37a11.49,11.49,0,0,1,4.17-9.12l1.09-.89,46-37.62a16,16,0,0,1,20.3,24.8C253.55,242.29,253.09,242.62,252.64,242.92Z"/><path class="cebff768-5fcc-4a26-afcd-085beef99a3a" d="M284.14,247.39a12.75,12.75,0,0,1-1.46,1l-46,32.65L225.8,360.06l-14.29-.94.05-2.49,1.34-87.48a11.57,11.57,0,0,1,4.63-9l1.1-.81,46.84-34.75a16,16,0,0,1,11.39-3.06h0a16,16,0,0,1,11,6.38C293.17,235,291.25,242.12,284.14,247.39Z"/><path class="0e2d4e56-6d4d-43a9-b36c-4821b4bbc049" d="M276.51,244.4a16.79,16.79,0,0,1-1.46,1L229.1,278l-10.93,79.05-6.61-.43,1.34-87.48a11.57,11.57,0,0,1,4.63-9l1.1-.81,46.84-34.75a16,16,0,0,1,11.39-3.06h0a16.26,16.26,0,0,1,3.39,3.39C285.53,232,283.62,239.13,276.51,244.4Z"/><path class="d320ce0a-260b-40f2-b00a-af7156a5458d" d="M211.78,359.12h-.54l1.4-90a11.74,11.74,0,0,1,4.73-9.24l47.94-35.57.32.43-47.94,35.57a11.25,11.25,0,0,0-4.52,8.82Z"/><path class="dc9d3063-c8b1-4ae3-8c1d-4122b849a260" d="M263.59,140.43l-6.71,49.32-.09.61a5.89,5.89,0,0,1-4.53,4.94L206,205.61a4.18,4.18,0,0,1-2.17-8.06L249,183.18l-4.62,5.54L245.83,139a8.92,8.92,0,0,1,17.84.52C263.66,139.8,263.63,140.12,263.59,140.43Z"/><path class="1c9bbbac-00bd-455c-861e-be5fe4323ff1" d="M264.08,132l-11.71-1.57a3,3,0,0,0-2.71,1.08l-.08.1c-7.26,8.68-8.89,19.9-8.46,31.21l-1.45,19L236.4,223a7.24,7.24,0,0,0,3.77,7l12.51,6.76a48.18,48.18,0,0,0,14.5,5.05l12.12,2.13a12.07,12.07,0,0,0,14.16-11.34c.42-9.29.76-21,.23-27.61-.76-9.38,3.94-37.87,6.06-50a8.12,8.12,0,0,0-4-8.45c-6.79-3.83-17.56-9.72-17.56-9.72Z"/><path class="d320ce0a-260b-40f2-b00a-af7156a5458d" d="M281.4,244.33a12,12,0,0,1-2.15-.19L267.13,242a48.42,48.42,0,0,1-14.58-5.07l-12.5-6.76a7.5,7.5,0,0,1-3.92-7.21l3.28-41.16,1.44-19.11c-.5-13.15,2-22.76,7.73-30.23a6.31,6.31,0,0,1,2.59-2,2.45,2.45,0,0,1,1.24-.23l11.7,1.56h.05l14.11,4.74c.15.08,10.91,5.95,17.61,9.74A8.36,8.36,0,0,1,300,155c-2.07,11.89-6.82,40.55-6.06,49.92.55,6.69.18,18.73-.22,27.65a12.34,12.34,0,0,1-12.33,11.78Zm-29.18-113.6a2.37,2.37,0,0,0-.85.21,5.76,5.76,0,0,0-2.37,1.85c-5.68,7.36-8.1,16.86-7.61,29.91l-1.45,19.14L236.66,223a7,7,0,0,0,3.64,6.7l12.51,6.75a47.56,47.56,0,0,0,14.42,5l12.12,2.14a11.8,11.8,0,0,0,13.84-11.08c.4-8.91.77-20.93.23-27.59-.77-9.43,4-38.14,6.06-50.05a7.83,7.83,0,0,0-3.86-8.16c-6.71-3.79-17.45-9.66-17.56-9.72l-14-4.71-11.68-1.56Z"/><path class="ac441815-1870-4a3a-834e-78bb1a8db939" d="M250.67,93.78s-.37,7.93.8,10.54c1.45,3.25,5.65,6,5.65,6l2-17.19Z"/><path class="cbf205b4-0e41-466f-9f99-2b2d01070471" d="M278.61,126.92s-7.57-4.53-11.48-2.8-6.78,11.07-6.78,11.07l-1.6,9.18a2.61,2.61,0,0,0,3.6,2.85l14.73-6.31a2.78,2.78,0,0,0,1.6-3.22C277.69,133.6,278.61,126.92,278.61,126.92Z"/><path class="a93f03ac-a723-47aa-af04-7b9d9f3586cc" d="M251.86,111.14c.17,4,1.85,7.73,2,11.69.13,3.78-.92,8.28,1.89,10.81,1.95,1.76,4.9,1.65,7.52,1.43,5.72-.47,12.12-1.29,15.69-5.79a20.78,20.78,0,0,0,2.72-5.12q1.6-3.81,3.19-7.62c1.58-3.77,3.18-7.7,3-11.78-.17-4.5-2.44-8.62-4.67-12.54-3.37-6-16.4-7.34-22.37-3.87C254.37,92.11,251.59,104.35,251.86,111.14Z"/><path class="074e66da-c476-4f58-8c61-ff4886df81bb" d="M256.05,98.49h0a3.35,3.35,0,0,1,3.29.79l1.86,1.78a3.25,3.25,0,0,0,1.65.86l7.09,1.44a3.35,3.35,0,0,1,2.41,2l.61,1.41a3.35,3.35,0,0,0,3.48,2l2.45-.3c1.49-.18,1.58,1.49,2.15,2.89l.31,4c.94,2.29,5.43-.94,7.08-2.79l.4-.46a3.32,3.32,0,0,0,.68-1.16c.47-1.4,1.24-4.92.46-11.61-1.07-9.15-4-14.19-9.16-14.8S267.08,80.68,263.27,83,250.15,86.48,250,90.29c-.09,2.19,1.12,4.8,2.16,6.64A3.37,3.37,0,0,0,256.05,98.49Z"/><path class="074e66da-c476-4f58-8c61-ff4886df81bb" d="M283.35,112.43s.87,5.79-1,10,1.92-.56,1.92-.56l5.19-11Z"/><path class="587b9cb3-a519-4a05-b5c8-da1da0a64783" d="M211.76,358.35s-6.24,7.71-8.62,8.79-16.09,10.4-9.39,13,16.53,1.93,19.88-1.3c5-4.79,10.91-4.14,11.77-6.52s1.19-13.81,1.19-13.81Z"/><path class="587b9cb3-a519-4a05-b5c8-da1da0a64783" d="M184.41,344.58s-5.3,7.56-7.67,8.64-16.1,10.41-9.4,13,16.53,1.93,19.88-1.3c5-4.79,10.91-4.14,11.78-6.51s.09-13.83.09-13.83Z"/><path class="d320ce0a-260b-40f2-b00a-af7156a5458d" d="M236.18,246.22l-3.67,2.52-.07,2.24a1.55,1.55,0,0,0,1-.27l28.48-19.64a4.29,4.29,0,0,0,1.86-3.9l-.2-2.5-.68.18a4.24,4.24,0,0,0-1.59-1.29l-28-13.23Z"/><path class="5b85fd15-0ddb-495f-9b7f-aae8c3611c42" d="M164.09,216.41l.07,1a2.53,2.53,0,0,0,1.44,2.07l66.31,31.33a1.46,1.46,0,0,0,.53.15l.07-2.24Z"/><path class="d320ce0a-260b-40f2-b00a-af7156a5458d" d="M164.09,216.41l68.42,32.33,3.67-2.52-2.88-35.89-4-1.91-21.28-10a15.94,15.94,0,0,0-15.84,1.29l-24.91,17.19Z"/><path class="5ba49294-a465-4a97-94b4-78a34c0627a7" d="M232.51,248.74l-68.43-32.33L192,197.18a15.94,15.94,0,0,1,15.84-1.29l53.3,25.19a4.36,4.36,0,0,1,.61,7.52Z"/><polygon class="5e47afe7-1ff1-44c1-96c6-84058ff28e96" points="236.66 236.5 183.55 211.27 201.05 199.2 254.16 224.43 236.66 236.5"/><path class="ea05ba6a-f064-47b5-9ae3-be5ff5d62691" d="M304.72,159.69l-5.88,52.16-.09.87a7.63,7.63,0,0,1-6,6.58l-49,10.39a5.09,5.09,0,0,1-2.75-9.78l47.25-16.7-6.08,7.45,1.62-52.47a10.5,10.5,0,0,1,21,.65C304.77,159.12,304.75,159.42,304.72,159.69Z"/><path class="a93f03ac-a723-47aa-af04-7b9d9f3586cc" d="M244.08,218.73h0a6.55,6.55,0,0,1,2.14,4l-.34,5a2.42,2.42,0,0,1-2.38,2.74l-7.9,1.42-.92-10.93,5.88-.23-2.43-.58a16.85,16.85,0,0,1-5.7-2.59h0a4.25,4.25,0,0,1-2-3.32c0-.6.73-.82,1.33-.41l1.06.74a11,11,0,0,0,5.51,2l1,.07A7.85,7.85,0,0,1,244.08,218.73Z"/><path class="a93f03ac-a723-47aa-af04-7b9d9f3586cc" d="M234.68,220.94l-5.73.82-5.51-.21a.18.18,0,0,0-.18.24h0c0,.05,0,.11.07.17a2.83,2.83,0,0,0,2,1.45l4.33.64,6.61.27Z"/><path class="a93f03ac-a723-47aa-af04-7b9d9f3586cc" d="M235.64,227l-1.91.31a5.07,5.07,0,0,1-2.14-.14l-3.51-1a2.22,2.22,0,0,1-.87-.49l-1.36-1.28a.64.64,0,0,1-.18-.8.66.66,0,0,1,.86-.06l.69.44a3.22,3.22,0,0,0,1.08.43l3.35.65a2.84,2.84,0,0,0,1.2,0l2.77-.72Z"/><path class="a93f03ac-a723-47aa-af04-7b9d9f3586cc" d="M235.58,227.07l-2.9.7a1.57,1.57,0,0,1-.53,0l-2.21-.25a1.91,1.91,0,0,1-.6-.19L227,226.18c-.32-.16-.66-.05-.71.24h0a.9.9,0,0,0,.42.84l1.92,1.34a3.82,3.82,0,0,0,1.34.59l2.62.55a2.64,2.64,0,0,0,.62,0l2.42-.15Z"/><path class="a93f03ac-a723-47aa-af04-7b9d9f3586cc" d="M235.91,229.67l-2.84.28a2.46,2.46,0,0,1-1.44-.33l-1-.59a.67.67,0,0,0-.89.1h0a.4.4,0,0,0,.17.52l.74.52a7.1,7.1,0,0,0,2.38,1.08l2.59.62Z"/><path class="d320ce0a-260b-40f2-b00a-af7156a5458d" d="M226.91,191.08a11,11,0,0,1,1.32,4.39l1,12.95,3.24,40.32,3.67-2.52-2.88-35.89L231.9,193a10.9,10.9,0,0,0-1.33-4.4Z"/><path class="5e47afe7-1ff1-44c1-96c6-84058ff28e96" d="M230.57,188.55l-3.66,2.53a10.92,10.92,0,0,0-4.9-4.6l-56.94-26.9a3.67,3.67,0,0,0-3.69.31l3.67-2.53a3.69,3.69,0,0,1,3.69-.3L225.68,184A10.88,10.88,0,0,1,230.57,188.55Z"/><path class="ac8c628d-7a41-426c-8c65-f71f887eeb13" d="M228.23,195.47l3.92,48.85-64.4-30.43-4.22-52.56,0,.06-2.14-1.5h0a3.67,3.67,0,0,1,3.69-.31L222,186.48a10.91,10.91,0,0,1,6.22,9Z"/><path class="d8bba9a0-5419-4ba4-9b2d-2bcba51f6a6d" d="M159.81,163.22l4.28,53.19,68.42,32.33-3.24-40.32-1-12.95a11,11,0,0,0-1.32-4.39,10.87,10.87,0,0,0-4.9-4.6l-56.94-26.9a3.67,3.67,0,0,0-3.69.31h0A3.68,3.68,0,0,0,159.81,163.22Z"/></svg>